M48
; DRILL file {KiCad 9.0.4} date 2026-06-11T12:07:40+0530
; FORMAT={-:-/ absolute / metric / decimal}
; #@! TF.CreationDate,2026-06-11T12:07:40+05:30
; #@! TF.GenerationSoftware,Kicad,Pcbnew,9.0.4
; #@! TF.FileFunction,Plated,1,2,PTH
FMAT,2
METRIC
; #@! TA.AperFunction,Plated,PTH,ViaDrill
T1C0.150
; #@! TA.AperFunction,Plated,PTH,ComponentDrill
T2C0.200
; #@! TA.AperFunction,Plated,PTH,ViaDrill
T3C0.300
; #@! TA.AperFunction,Plated,PTH,ComponentDrill
T4C0.600
; #@! TA.AperFunction,Plated,PTH,ComponentDrill
T5C0.800
; #@! TA.AperFunction,Plated,PTH,ComponentDrill
T6C0.900
; #@! TA.AperFunction,Plated,PTH,ComponentDrill
T7C1.000
; #@! TA.AperFunction,Plated,PTH,ComponentDrill
T8C1.100
; #@! TA.AperFunction,Plated,PTH,ComponentDrill
T9C1.300
; #@! TA.AperFunction,Plated,PTH,ComponentDrill
T10C1.520
%
G90
G05
T1
X42.25Y-67.025
X44.825Y-84.35
X47.375Y-84.65
X47.725Y-64.425
X48.725Y-75.8
X48.85Y-72.375
X49.925Y-80.575
X50.9Y-60.875
X52.5Y-55.0
X53.9Y-81.525
X54.6Y-67.2
X56.087Y-58.587
X56.25Y-56.95
X56.575Y-60.475
X58.475Y-76.3
X59.1Y-77.825
X59.225Y-63.95
X62.3Y-50.875
X63.575Y-81.525
X67.9Y-79.1
X68.25Y-73.0
X69.95Y-77.8
X73.138Y-81.412
X76.775Y-72.425
X78.275Y-80.8
X81.525Y-70.55
X82.925Y-52.05
X84.925Y-47.975
X86.575Y-81.625
X89.025Y-48.05
X94.3Y-63.675
X95.4Y-61.625
X95.7Y-73.025
X95.8Y-52.15
X101.625Y-72.775
X110.35Y-86.0
X110.525Y-76.975
T2
X75.25Y-55.12
X75.25Y-56.52
X75.95Y-54.42
X75.95Y-55.82
X75.95Y-57.22
X76.65Y-55.12
X76.65Y-56.52
X77.35Y-54.42
X77.35Y-55.82
X77.35Y-57.22
X78.05Y-55.12
X78.05Y-56.52
T3
X43.655Y-69.45
X45.1Y-78.4
X54.5Y-54.7
X54.6Y-74.4
X58.0Y-54.65
X69.8Y-70.1
X72.42Y-50.63
X72.75Y-55.15
X72.85Y-63.6
X73.4Y-56.1
X75.65Y-61.85
X92.4Y-88.8
X96.8Y-58.3
T5
X121.8Y-53.68
X121.8Y-61.3
X134.15Y-59.85
X136.85Y-52.35
T6
X42.5Y-74.0
X42.5Y-81.625
X42.5Y-89.25
X45.04Y-74.0
X45.04Y-81.625
X45.04Y-89.25
T7
X47.25Y-49.45
X49.79Y-49.45
X52.33Y-49.45
X54.87Y-49.45
X107.1Y-68.95
X107.1Y-86.95
X127.7Y-50.6
X127.7Y-60.6
X140.7Y-74.95
X140.7Y-80.95
X142.29Y-52.88
X142.3Y-47.8
T8
X49.4Y-89.15
X49.4Y-95.65
X53.9Y-89.15
X53.9Y-95.65
X57.95Y-89.15
X57.95Y-95.65
X62.45Y-89.15
X62.45Y-95.65
X66.5Y-89.15
X66.5Y-95.65
X71.0Y-89.15
X71.0Y-95.65
X75.05Y-89.15
X75.05Y-95.65
X79.55Y-89.15
X79.55Y-95.65
X83.6Y-89.15
X83.6Y-95.65
X88.1Y-89.15
X88.1Y-95.65
T9
X104.6Y-44.1
X104.6Y-56.3
X110.6Y-58.3
X116.6Y-44.1
X116.6Y-56.3
T10
X121.72Y-44.35
X126.8Y-44.35
X131.88Y-44.35
X136.96Y-44.35
T4
G00X43.85Y-54.01
M15
G01X43.25Y-54.01
M16
G05
G00X43.85Y-62.65
M15
G01X43.25Y-62.65
M16
G05
G00X48.28Y-54.01
M15
G01X47.18Y-54.01
M16
G05
G00X48.28Y-62.65
M15
G01X47.18Y-62.65
M16
G05
M30
