%TF.GenerationSoftware,KiCad,Pcbnew,9.0.4*%
%TF.CreationDate,2026-06-11T12:07:45+05:30*%
%TF.ProjectId,ZAP-010A,5a41502d-3031-4304-912e-6b696361645f,rev?*%
%TF.SameCoordinates,Original*%
%TF.FileFunction,Soldermask,Top*%
%TF.FilePolarity,Negative*%
%FSLAX46Y46*%
G04 Gerber Fmt 4.6, Leading zero omitted, Abs format (unit mm)*
G04 Created by KiCad (PCBNEW 9.0.4) date 2026-06-11 12:07:45*
%MOMM*%
%LPD*%
G01*
G04 APERTURE LIST*
G04 Aperture macros list*
%AMRoundRect*
0 Rectangle with rounded corners*
0 $1 Rounding radius*
0 $2 $3 $4 $5 $6 $7 $8 $9 X,Y pos of 4 corners*
0 Add a 4 corners polygon primitive as box body*
4,1,4,$2,$3,$4,$5,$6,$7,$8,$9,$2,$3,0*
0 Add four circle primitives for the rounded corners*
1,1,$1+$1,$2,$3*
1,1,$1+$1,$4,$5*
1,1,$1+$1,$6,$7*
1,1,$1+$1,$8,$9*
0 Add four rect primitives between the rounded corners*
20,1,$1+$1,$2,$3,$4,$5,0*
20,1,$1+$1,$4,$5,$6,$7,0*
20,1,$1+$1,$6,$7,$8,$9,0*
20,1,$1+$1,$8,$9,$2,$3,0*%
G04 Aperture macros list end*
%ADD10C,0.600000*%
%ADD11R,3.900000X3.900000*%
%ADD12R,1.500000X0.900000*%
%ADD13R,0.900000X1.500000*%
%ADD14C,2.500000*%
%ADD15RoundRect,0.250000X1.000000X-1.000000X1.000000X1.000000X-1.000000X1.000000X-1.000000X-1.000000X0*%
%ADD16RoundRect,0.250000X0.250000X0.475000X-0.250000X0.475000X-0.250000X-0.475000X0.250000X-0.475000X0*%
%ADD17RoundRect,0.200000X-0.275000X0.200000X-0.275000X-0.200000X0.275000X-0.200000X0.275000X0.200000X0*%
%ADD18R,2.311400X2.311400*%
%ADD19RoundRect,0.225000X0.250000X-0.225000X0.250000X0.225000X-0.250000X0.225000X-0.250000X-0.225000X0*%
%ADD20RoundRect,0.200000X-0.200000X-0.275000X0.200000X-0.275000X0.200000X0.275000X-0.200000X0.275000X0*%
%ADD21RoundRect,0.150000X-0.875000X-0.150000X0.875000X-0.150000X0.875000X0.150000X-0.875000X0.150000X0*%
%ADD22RoundRect,0.200000X0.200000X0.275000X-0.200000X0.275000X-0.200000X-0.275000X0.200000X-0.275000X0*%
%ADD23RoundRect,0.093750X-0.156250X-0.093750X0.156250X-0.093750X0.156250X0.093750X-0.156250X0.093750X0*%
%ADD24RoundRect,0.075000X-0.250000X-0.075000X0.250000X-0.075000X0.250000X0.075000X-0.250000X0.075000X0*%
%ADD25C,1.800000*%
%ADD26C,1.500000*%
%ADD27RoundRect,0.218750X-0.256250X0.218750X-0.256250X-0.218750X0.256250X-0.218750X0.256250X0.218750X0*%
%ADD28C,1.300000*%
%ADD29C,1.000000*%
%ADD30RoundRect,0.102000X-2.150000X-1.150000X2.150000X-1.150000X2.150000X1.150000X-2.150000X1.150000X0*%
%ADD31RoundRect,0.102000X-1.830000X-1.150000X1.830000X-1.150000X1.830000X1.150000X-1.830000X1.150000X0*%
%ADD32RoundRect,0.150000X0.150000X-0.587500X0.150000X0.587500X-0.150000X0.587500X-0.150000X-0.587500X0*%
%ADD33RoundRect,0.225000X-0.225000X-0.250000X0.225000X-0.250000X0.225000X0.250000X-0.225000X0.250000X0*%
%ADD34RoundRect,0.250000X-0.250000X-0.475000X0.250000X-0.475000X0.250000X0.475000X-0.250000X0.475000X0*%
%ADD35RoundRect,0.375000X-0.375000X0.625000X-0.375000X-0.625000X0.375000X-0.625000X0.375000X0.625000X0*%
%ADD36RoundRect,0.500000X-1.400000X0.500000X-1.400000X-0.500000X1.400000X-0.500000X1.400000X0.500000X0*%
%ADD37RoundRect,0.250000X0.600000X0.750000X-0.600000X0.750000X-0.600000X-0.750000X0.600000X-0.750000X0*%
%ADD38O,1.700000X2.000000*%
%ADD39RoundRect,0.225000X-0.225000X-0.375000X0.225000X-0.375000X0.225000X0.375000X-0.225000X0.375000X0*%
%ADD40RoundRect,0.200000X0.275000X-0.200000X0.275000X0.200000X-0.275000X0.200000X-0.275000X-0.200000X0*%
%ADD41R,1.700000X1.700000*%
%ADD42C,1.700000*%
%ADD43C,2.000000*%
%ADD44RoundRect,0.225000X0.225000X0.250000X-0.225000X0.250000X-0.225000X-0.250000X0.225000X-0.250000X0*%
%ADD45C,0.650000*%
%ADD46RoundRect,0.150000X-0.500000X0.150000X-0.500000X-0.150000X0.500000X-0.150000X0.500000X0.150000X0*%
%ADD47RoundRect,0.075000X-0.575000X0.075000X-0.575000X-0.075000X0.575000X-0.075000X0.575000X0.075000X0*%
%ADD48O,2.100000X1.000000*%
%ADD49O,1.600000X1.000000*%
%ADD50RoundRect,0.225000X0.225000X0.375000X-0.225000X0.375000X-0.225000X-0.375000X0.225000X-0.375000X0*%
%ADD51R,1.800000X1.800000*%
%ADD52RoundRect,0.200000X0.800000X-0.200000X0.800000X0.200000X-0.800000X0.200000X-0.800000X-0.200000X0*%
%ADD53RoundRect,0.225000X-0.250000X0.225000X-0.250000X-0.225000X0.250000X-0.225000X0.250000X0.225000X0*%
%ADD54RoundRect,0.250000X1.000000X-1.500000X1.000000X1.500000X-1.000000X1.500000X-1.000000X-1.500000X0*%
%ADD55RoundRect,0.150000X-0.587500X-0.150000X0.587500X-0.150000X0.587500X0.150000X-0.587500X0.150000X0*%
%ADD56RoundRect,0.225000X0.375000X-0.225000X0.375000X0.225000X-0.375000X0.225000X-0.375000X-0.225000X0*%
%ADD57C,1.600000*%
%ADD58R,3.000000X3.000000*%
%ADD59C,3.000000*%
%ADD60RoundRect,0.250000X0.475000X-0.250000X0.475000X0.250000X-0.475000X0.250000X-0.475000X-0.250000X0*%
G04 APERTURE END LIST*
D10*
%TO.C,U2*%
X78050000Y-56520000D03*
X78050000Y-55120000D03*
X77350000Y-57220000D03*
X77350000Y-55820000D03*
X77350000Y-54420000D03*
X76650000Y-56520000D03*
D11*
X76650000Y-55820000D03*
D10*
X76650000Y-55120000D03*
X75950000Y-57220000D03*
X75950000Y-55820000D03*
X75950000Y-54420000D03*
X75250000Y-56520000D03*
X75250000Y-55120000D03*
D12*
X86900000Y-48100000D03*
X86900000Y-49370000D03*
X86900000Y-50640000D03*
X86900000Y-51910000D03*
X86900000Y-53180000D03*
X86900000Y-54450000D03*
X86900000Y-55720000D03*
X86900000Y-56990000D03*
X86900000Y-58260000D03*
X86900000Y-59530000D03*
X86900000Y-60800000D03*
X86900000Y-62070000D03*
X86900000Y-63340000D03*
X86900000Y-64610000D03*
D13*
X85135000Y-65860000D03*
X83865000Y-65860000D03*
X82595000Y-65860000D03*
X81325000Y-65860000D03*
X80055000Y-65860000D03*
X78785000Y-65860000D03*
X77515000Y-65860000D03*
X76245000Y-65860000D03*
X74975000Y-65860000D03*
X73705000Y-65860000D03*
X72435000Y-65860000D03*
X71165000Y-65860000D03*
D12*
X69400000Y-64610000D03*
X69400000Y-63340000D03*
X69400000Y-62070000D03*
X69400000Y-60800000D03*
X69400000Y-59530000D03*
X69400000Y-58260000D03*
X69400000Y-56990000D03*
X69400000Y-55720000D03*
X69400000Y-54450000D03*
X69400000Y-53180000D03*
X69400000Y-51910000D03*
X69400000Y-50640000D03*
X69400000Y-49370000D03*
X69400000Y-48100000D03*
%TD*%
D14*
%TO.C,K1*%
X110600000Y-58300000D03*
X104600000Y-44100000D03*
X116600000Y-44100000D03*
D15*
X104600000Y-56300000D03*
D14*
X116600000Y-56300000D03*
%TD*%
D16*
%TO.C,C17*%
X50400000Y-45400000D03*
X48500000Y-45400000D03*
%TD*%
D17*
%TO.C,R8*%
X98550000Y-64875000D03*
X98550000Y-66525000D03*
%TD*%
D18*
%TO.C,LS1*%
X92749998Y-55500000D03*
X99850000Y-55500000D03*
X92749998Y-48399998D03*
X99850000Y-48399998D03*
%TD*%
D19*
%TO.C,C9*%
X64750000Y-49600000D03*
X64750000Y-48050000D03*
%TD*%
D20*
%TO.C,R13*%
X60450000Y-86620000D03*
X62100000Y-86620000D03*
%TD*%
%TO.C,R6*%
X60500000Y-57700000D03*
X62150000Y-57700000D03*
%TD*%
D21*
%TO.C,U4*%
X51900000Y-73155000D03*
X51900000Y-74425000D03*
X51900000Y-75695000D03*
X51900000Y-76965000D03*
X51900000Y-78235000D03*
X51900000Y-79505000D03*
X51900000Y-80775000D03*
X51900000Y-82045000D03*
X61200000Y-82045000D03*
X61200000Y-80775000D03*
X61200000Y-79505000D03*
X61200000Y-78235000D03*
X61200000Y-76965000D03*
X61200000Y-75695000D03*
X61200000Y-74425000D03*
X61200000Y-73155000D03*
%TD*%
D22*
%TO.C,R9*%
X102200000Y-65850000D03*
X100550000Y-65850000D03*
%TD*%
D17*
%TO.C,R17*%
X61250000Y-68150000D03*
X61250000Y-69800000D03*
%TD*%
D23*
%TO.C,U3*%
X56950000Y-58050000D03*
D24*
X56875000Y-58587500D03*
D23*
X56950000Y-59125000D03*
X58650000Y-59125000D03*
D24*
X58725000Y-58587500D03*
D23*
X58650000Y-58050000D03*
%TD*%
D17*
%TO.C,R23*%
X65100000Y-57900000D03*
X65100000Y-59550000D03*
%TD*%
D25*
%TO.C,RV1*%
X134150000Y-59850000D03*
X136850000Y-52350000D03*
%TD*%
D26*
%TO.C,TP7*%
X111600000Y-94950000D03*
%TD*%
%TO.C,TP2*%
X90850000Y-67800000D03*
%TD*%
%TO.C,TP6*%
X90800000Y-70450000D03*
%TD*%
D27*
%TO.C,D4*%
X105200000Y-61250000D03*
X105200000Y-62825000D03*
%TD*%
D19*
%TO.C,C10*%
X66350000Y-49600000D03*
X66350000Y-48050000D03*
%TD*%
D17*
%TO.C,R19*%
X54500000Y-52150000D03*
X54500000Y-53800000D03*
%TD*%
D28*
%TO.C,BT1*%
X68650000Y-75650000D03*
D29*
X76150000Y-75650000D03*
D30*
X80290000Y-75650000D03*
D31*
X64820000Y-75650000D03*
%TD*%
D26*
%TO.C,TP4*%
X115250000Y-94950000D03*
%TD*%
D32*
%TO.C,Q1*%
X100550000Y-63700000D03*
X102450000Y-63700000D03*
X101500000Y-61825000D03*
%TD*%
D33*
%TO.C,C6*%
X96500000Y-84600000D03*
X98050000Y-84600000D03*
%TD*%
D34*
%TO.C,C5*%
X96375000Y-82600000D03*
X98275000Y-82600000D03*
%TD*%
D20*
%TO.C,R15*%
X77572500Y-86620000D03*
X79222500Y-86620000D03*
%TD*%
D35*
%TO.C,U1*%
X98600000Y-88800000D03*
X96300000Y-88800000D03*
D36*
X96300000Y-95100000D03*
D35*
X94000000Y-88800000D03*
%TD*%
D37*
%TO.C,PS1*%
X140700000Y-80950000D03*
D38*
X140700000Y-74950000D03*
X107100000Y-86950000D03*
X107100000Y-68950000D03*
%TD*%
D39*
%TO.C,D7*%
X95600000Y-58300000D03*
X98900000Y-58300000D03*
%TD*%
D26*
%TO.C,FID1*%
X45000000Y-94000000D03*
%TD*%
D40*
%TO.C,R22*%
X52900000Y-53800000D03*
X52900000Y-52150000D03*
%TD*%
D20*
%TO.C,R5*%
X53725000Y-60100000D03*
X55375000Y-60100000D03*
%TD*%
D41*
%TO.C,J3*%
X54870000Y-49450000D03*
D42*
X52330000Y-49450000D03*
X49790000Y-49450000D03*
X47250000Y-49450000D03*
%TD*%
D17*
%TO.C,R18*%
X59250000Y-68150000D03*
X59250000Y-69800000D03*
%TD*%
D26*
%TO.C,FID2*%
X45000000Y-42500000D03*
%TD*%
D20*
%TO.C,R12*%
X42050000Y-78400000D03*
X43700000Y-78400000D03*
%TD*%
D43*
%TO.C,SW1*%
X49400000Y-95650000D03*
X49400000Y-89150000D03*
X53900000Y-95650000D03*
X53900000Y-89150000D03*
%TD*%
D44*
%TO.C,C11*%
X53950000Y-86650000D03*
X52400000Y-86650000D03*
%TD*%
%TO.C,C4*%
X93875000Y-84550000D03*
X92325000Y-84550000D03*
%TD*%
D22*
%TO.C,R2*%
X43700000Y-70900000D03*
X42050000Y-70900000D03*
%TD*%
D43*
%TO.C,F1*%
X142300000Y-47800000D03*
X142290000Y-52880000D03*
%TD*%
D45*
%TO.C,J2*%
X47230000Y-55440000D03*
X47230000Y-61220000D03*
D46*
X48370000Y-55130000D03*
X48370000Y-55930000D03*
D47*
X48370000Y-57080000D03*
X48370000Y-58080000D03*
X48370000Y-58580000D03*
X48370000Y-59580000D03*
D46*
X48370000Y-60730000D03*
X48370000Y-61530000D03*
X48370000Y-61530000D03*
X48370000Y-60730000D03*
D47*
X48370000Y-60080000D03*
X48370000Y-59080000D03*
X48370000Y-57580000D03*
X48370000Y-56580000D03*
D46*
X48370000Y-55930000D03*
X48370000Y-55130000D03*
D48*
X47730000Y-54010000D03*
D49*
X43550000Y-54010000D03*
D48*
X47730000Y-62650000D03*
D49*
X43550000Y-62650000D03*
%TD*%
D40*
%TO.C,R20*%
X58000000Y-53800000D03*
X58000000Y-52150000D03*
%TD*%
D26*
%TO.C,TP1*%
X90800000Y-65150000D03*
%TD*%
D50*
%TO.C,D3*%
X116650000Y-63400000D03*
X113350000Y-63400000D03*
%TD*%
D20*
%TO.C,R7*%
X60000000Y-60500000D03*
X61650000Y-60500000D03*
%TD*%
%TO.C,R16*%
X86133750Y-86620000D03*
X87783750Y-86620000D03*
%TD*%
D40*
%TO.C,R25*%
X93300000Y-62200000D03*
X93300000Y-60550000D03*
%TD*%
D51*
%TO.C,D1*%
X42500000Y-74000000D03*
D25*
X45040000Y-74000000D03*
%TD*%
D52*
%TO.C,SW2*%
X87000000Y-77150000D03*
X87000000Y-72950000D03*
%TD*%
D53*
%TO.C,C12*%
X83950000Y-73050000D03*
X83950000Y-74600000D03*
%TD*%
D54*
%TO.C,C2*%
X98350000Y-78000000D03*
X98350000Y-71500000D03*
%TD*%
D26*
%TO.C,TP5*%
X49350000Y-86250000D03*
%TD*%
D40*
%TO.C,R21*%
X59650000Y-53800000D03*
X59650000Y-52150000D03*
%TD*%
D53*
%TO.C,C13*%
X63250000Y-53250000D03*
X63250000Y-54800000D03*
%TD*%
D17*
%TO.C,R24*%
X66700000Y-57900000D03*
X66700000Y-59550000D03*
%TD*%
%TO.C,R3*%
X64850000Y-53200000D03*
X64850000Y-54850000D03*
%TD*%
D55*
%TO.C,Q2*%
X95250000Y-60550000D03*
X95250000Y-62450000D03*
X97125000Y-61500000D03*
%TD*%
D43*
%TO.C,SW4*%
X66500000Y-95650000D03*
X66500000Y-89150000D03*
X71000000Y-95650000D03*
X71000000Y-89150000D03*
%TD*%
D56*
%TO.C,D2*%
X51200000Y-66550000D03*
X51200000Y-63250000D03*
%TD*%
D22*
%TO.C,R26*%
X93500000Y-57950000D03*
X91850000Y-57950000D03*
%TD*%
D19*
%TO.C,C15*%
X49550000Y-74475000D03*
X49550000Y-72925000D03*
%TD*%
D20*
%TO.C,R11*%
X42250000Y-86100000D03*
X43900000Y-86100000D03*
%TD*%
D57*
%TO.C,R1*%
X121800000Y-61300000D03*
X121800000Y-53680000D03*
%TD*%
D20*
%TO.C,R4*%
X53650000Y-57100000D03*
X55300000Y-57100000D03*
%TD*%
D43*
%TO.C,SW3*%
X57950000Y-95650000D03*
X57950000Y-89150000D03*
X62450000Y-95650000D03*
X62450000Y-89150000D03*
%TD*%
D26*
%TO.C,TP3*%
X107950000Y-94950000D03*
%TD*%
%TO.C,FID3*%
X143100000Y-41450000D03*
%TD*%
D20*
%TO.C,R14*%
X69011250Y-86620000D03*
X70661250Y-86620000D03*
%TD*%
D43*
%TO.C,SW6*%
X83600000Y-95650000D03*
X83600000Y-89150000D03*
X88100000Y-95650000D03*
X88100000Y-89150000D03*
%TD*%
D58*
%TO.C,J1*%
X136960000Y-44350000D03*
D59*
X131880000Y-44350000D03*
X126800000Y-44350000D03*
X121720000Y-44350000D03*
%TD*%
D20*
%TO.C,R10*%
X109400000Y-63450000D03*
X111050000Y-63450000D03*
%TD*%
D43*
%TO.C,C1*%
X127700000Y-60600000D03*
X127700000Y-50600000D03*
%TD*%
%TO.C,SW5*%
X75050000Y-95650000D03*
X75050000Y-89150000D03*
X79550000Y-95650000D03*
X79550000Y-89150000D03*
%TD*%
D60*
%TO.C,C16*%
X47650000Y-74470000D03*
X47650000Y-72570000D03*
%TD*%
D53*
%TO.C,C14*%
X53600000Y-63300000D03*
X53600000Y-64850000D03*
%TD*%
D19*
%TO.C,C8*%
X63150000Y-49600000D03*
X63150000Y-48050000D03*
%TD*%
D16*
%TO.C,C3*%
X94050000Y-82500000D03*
X92150000Y-82500000D03*
%TD*%
D51*
%TO.C,D6*%
X42500000Y-89250000D03*
D25*
X45040000Y-89250000D03*
%TD*%
D51*
%TO.C,D5*%
X42500000Y-81625000D03*
D25*
X45040000Y-81625000D03*
%TD*%
D60*
%TO.C,C7*%
X61250000Y-49625000D03*
X61250000Y-47725000D03*
%TD*%
M02*
