%TF.GenerationSoftware,KiCad,Pcbnew,9.0.4*%
%TF.CreationDate,2026-06-11T12:07:45+05:30*%
%TF.ProjectId,ZAP-010A,5a41502d-3031-4304-912e-6b696361645f,rev?*%
%TF.SameCoordinates,Original*%
%TF.FileFunction,Legend,Bot*%
%TF.FilePolarity,Positive*%
%FSLAX46Y46*%
G04 Gerber Fmt 4.6, Leading zero omitted, Abs format (unit mm)*
G04 Created by KiCad (PCBNEW 9.0.4) date 2026-06-11 12:07:45*
%MOMM*%
%LPD*%
G01*
G04 APERTURE LIST*
%ADD10C,0.010000*%
G04 APERTURE END LIST*
D10*
%TO.C,REF\u002A\u002A*%
X41312128Y-51228945D02*
X41342954Y-51238568D01*
X41380916Y-51254563D01*
X41399296Y-51263159D01*
X41412561Y-51264713D01*
X41415495Y-51252798D01*
X41415498Y-51252461D01*
X41421709Y-51241087D01*
X41443131Y-51235256D01*
X41484653Y-51233614D01*
X41553812Y-51233614D01*
X41553812Y-51837179D01*
X41415495Y-51837179D01*
X41415495Y-51421027D01*
X41381110Y-51389161D01*
X41370368Y-51380104D01*
X41338370Y-51364630D01*
X41298965Y-51364010D01*
X41245312Y-51377664D01*
X41227225Y-51378529D01*
X41206008Y-51365283D01*
X41177768Y-51333800D01*
X41164069Y-51316385D01*
X41147868Y-51291797D01*
X41145371Y-51276145D01*
X41154442Y-51262941D01*
X41182289Y-51246245D01*
X41225540Y-51233030D01*
X41272464Y-51226478D01*
X41312128Y-51228945D01*
G36*
X41312128Y-51228945D02*
G01*
X41342954Y-51238568D01*
X41380916Y-51254563D01*
X41399296Y-51263159D01*
X41412561Y-51264713D01*
X41415495Y-51252798D01*
X41415498Y-51252461D01*
X41421709Y-51241087D01*
X41443131Y-51235256D01*
X41484653Y-51233614D01*
X41553812Y-51233614D01*
X41553812Y-51837179D01*
X41415495Y-51837179D01*
X41415495Y-51421027D01*
X41381110Y-51389161D01*
X41370368Y-51380104D01*
X41338370Y-51364630D01*
X41298965Y-51364010D01*
X41245312Y-51377664D01*
X41227225Y-51378529D01*
X41206008Y-51365283D01*
X41177768Y-51333800D01*
X41164069Y-51316385D01*
X41147868Y-51291797D01*
X41145371Y-51276145D01*
X41154442Y-51262941D01*
X41182289Y-51246245D01*
X41225540Y-51233030D01*
X41272464Y-51226478D01*
X41312128Y-51228945D01*
G37*
X41495265Y-52184965D02*
X41533255Y-52202745D01*
X41566386Y-52228806D01*
X41566386Y-52202745D01*
X41567211Y-52192849D01*
X41574893Y-52182358D01*
X41595667Y-52177725D01*
X41635544Y-52176683D01*
X41704703Y-52176683D01*
X41704703Y-52792822D01*
X41566386Y-52792822D01*
X41566386Y-52592226D01*
X41566369Y-52580710D01*
X41565189Y-52499758D01*
X41562294Y-52433817D01*
X41557888Y-52386258D01*
X41552181Y-52360452D01*
X41546940Y-52350710D01*
X41514676Y-52320156D01*
X41470730Y-52306631D01*
X41422743Y-52312941D01*
X41410973Y-52317217D01*
X41385898Y-52324776D01*
X41368762Y-52322428D01*
X41351518Y-52307064D01*
X41326124Y-52275571D01*
X41284936Y-52223568D01*
X41313886Y-52200125D01*
X41341405Y-52186015D01*
X41389745Y-52176486D01*
X41444230Y-52176174D01*
X41495265Y-52184965D01*
G36*
X41495265Y-52184965D02*
G01*
X41533255Y-52202745D01*
X41566386Y-52228806D01*
X41566386Y-52202745D01*
X41567211Y-52192849D01*
X41574893Y-52182358D01*
X41595667Y-52177725D01*
X41635544Y-52176683D01*
X41704703Y-52176683D01*
X41704703Y-52792822D01*
X41566386Y-52792822D01*
X41566386Y-52592226D01*
X41566369Y-52580710D01*
X41565189Y-52499758D01*
X41562294Y-52433817D01*
X41557888Y-52386258D01*
X41552181Y-52360452D01*
X41546940Y-52350710D01*
X41514676Y-52320156D01*
X41470730Y-52306631D01*
X41422743Y-52312941D01*
X41410973Y-52317217D01*
X41385898Y-52324776D01*
X41368762Y-52322428D01*
X41351518Y-52307064D01*
X41326124Y-52275571D01*
X41284936Y-52223568D01*
X41313886Y-52200125D01*
X41341405Y-52186015D01*
X41389745Y-52176486D01*
X41444230Y-52176174D01*
X41495265Y-52184965D01*
G37*
X44118960Y-52792822D02*
X43993218Y-52792822D01*
X43993218Y-52598740D01*
X43993078Y-52553594D01*
X43991649Y-52478823D01*
X43988029Y-52423467D01*
X43981434Y-52383702D01*
X43971079Y-52355700D01*
X43956178Y-52335635D01*
X43935946Y-52319681D01*
X43913859Y-52307792D01*
X43887705Y-52304421D01*
X43850508Y-52311917D01*
X43838555Y-52315038D01*
X43808718Y-52319735D01*
X43787383Y-52313005D01*
X43762655Y-52292177D01*
X43757963Y-52287647D01*
X43732020Y-52259626D01*
X43715291Y-52236843D01*
X43712996Y-52231355D01*
X43717543Y-52211088D01*
X43740602Y-52194884D01*
X43776995Y-52183513D01*
X43821544Y-52177740D01*
X43869072Y-52178334D01*
X43914400Y-52186063D01*
X43952351Y-52201694D01*
X43964381Y-52208993D01*
X43984632Y-52219676D01*
X43992129Y-52217230D01*
X43993218Y-52201647D01*
X43993473Y-52196053D01*
X43999539Y-52183660D01*
X44018356Y-52178020D01*
X44056089Y-52176683D01*
X44118960Y-52176683D01*
X44118960Y-52792822D01*
G36*
X44118960Y-52792822D02*
G01*
X43993218Y-52792822D01*
X43993218Y-52598740D01*
X43993078Y-52553594D01*
X43991649Y-52478823D01*
X43988029Y-52423467D01*
X43981434Y-52383702D01*
X43971079Y-52355700D01*
X43956178Y-52335635D01*
X43935946Y-52319681D01*
X43913859Y-52307792D01*
X43887705Y-52304421D01*
X43850508Y-52311917D01*
X43838555Y-52315038D01*
X43808718Y-52319735D01*
X43787383Y-52313005D01*
X43762655Y-52292177D01*
X43757963Y-52287647D01*
X43732020Y-52259626D01*
X43715291Y-52236843D01*
X43712996Y-52231355D01*
X43717543Y-52211088D01*
X43740602Y-52194884D01*
X43776995Y-52183513D01*
X43821544Y-52177740D01*
X43869072Y-52178334D01*
X43914400Y-52186063D01*
X43952351Y-52201694D01*
X43964381Y-52208993D01*
X43984632Y-52219676D01*
X43992129Y-52217230D01*
X43993218Y-52201647D01*
X43993473Y-52196053D01*
X43999539Y-52183660D01*
X44018356Y-52178020D01*
X44056089Y-52176683D01*
X44118960Y-52176683D01*
X44118960Y-52792822D01*
G37*
X41805297Y-51429342D02*
X41806357Y-51517394D01*
X41810509Y-51588510D01*
X41818921Y-51640199D01*
X41832757Y-51675360D01*
X41853182Y-51696889D01*
X41881364Y-51707682D01*
X41918465Y-51710636D01*
X41953890Y-51708000D01*
X41982500Y-51697679D01*
X42003296Y-51676772D01*
X42017442Y-51642381D01*
X42026103Y-51591610D01*
X42030445Y-51521563D01*
X42031633Y-51429342D01*
X42031633Y-51233614D01*
X42157376Y-51233614D01*
X42157376Y-51469578D01*
X42157160Y-51532561D01*
X42155484Y-51614007D01*
X42151277Y-51676121D01*
X42143521Y-51722458D01*
X42131196Y-51756573D01*
X42113285Y-51782022D01*
X42088767Y-51802362D01*
X42056623Y-51821147D01*
X41989125Y-51844928D01*
X41918681Y-51846480D01*
X41852264Y-51824580D01*
X41823286Y-51810383D01*
X41808909Y-51808261D01*
X41805297Y-51818293D01*
X41799299Y-51829556D01*
X41777830Y-51835489D01*
X41736138Y-51837179D01*
X41666980Y-51837179D01*
X41666980Y-51233614D01*
X41805297Y-51233614D01*
X41805297Y-51429342D01*
G36*
X41805297Y-51429342D02*
G01*
X41806357Y-51517394D01*
X41810509Y-51588510D01*
X41818921Y-51640199D01*
X41832757Y-51675360D01*
X41853182Y-51696889D01*
X41881364Y-51707682D01*
X41918465Y-51710636D01*
X41953890Y-51708000D01*
X41982500Y-51697679D01*
X42003296Y-51676772D01*
X42017442Y-51642381D01*
X42026103Y-51591610D01*
X42030445Y-51521563D01*
X42031633Y-51429342D01*
X42031633Y-51233614D01*
X42157376Y-51233614D01*
X42157376Y-51469578D01*
X42157160Y-51532561D01*
X42155484Y-51614007D01*
X42151277Y-51676121D01*
X42143521Y-51722458D01*
X42131196Y-51756573D01*
X42113285Y-51782022D01*
X42088767Y-51802362D01*
X42056623Y-51821147D01*
X41989125Y-51844928D01*
X41918681Y-51846480D01*
X41852264Y-51824580D01*
X41823286Y-51810383D01*
X41808909Y-51808261D01*
X41805297Y-51818293D01*
X41799299Y-51829556D01*
X41777830Y-51835489D01*
X41736138Y-51837179D01*
X41666980Y-51837179D01*
X41666980Y-51233614D01*
X41805297Y-51233614D01*
X41805297Y-51429342D01*
G37*
X43907605Y-51232424D02*
X43964926Y-51250434D01*
X43990199Y-51262674D01*
X44002910Y-51263938D01*
X44005792Y-51252798D01*
X44005795Y-51252461D01*
X44012006Y-51241087D01*
X44033428Y-51235256D01*
X44074950Y-51233614D01*
X44144109Y-51233614D01*
X44144109Y-51837179D01*
X44005792Y-51837179D01*
X44005792Y-51629132D01*
X44005697Y-51558879D01*
X44005051Y-51501170D01*
X44003320Y-51460787D01*
X43999974Y-51433615D01*
X43994481Y-51415540D01*
X43986310Y-51402447D01*
X43974928Y-51390221D01*
X43959424Y-51377217D01*
X43914843Y-51359745D01*
X43868047Y-51364873D01*
X43825180Y-51392507D01*
X43812927Y-51405368D01*
X43804132Y-51418384D01*
X43798233Y-51435706D01*
X43794651Y-51461501D01*
X43792809Y-51499939D01*
X43792128Y-51555189D01*
X43792030Y-51631418D01*
X43792030Y-51837179D01*
X43653713Y-51837179D01*
X43653989Y-51613985D01*
X43654008Y-51604044D01*
X43655207Y-51509106D01*
X43658891Y-51435358D01*
X43666006Y-51379214D01*
X43677500Y-51337087D01*
X43694318Y-51305391D01*
X43717409Y-51280541D01*
X43747717Y-51258950D01*
X43779012Y-51244002D01*
X43842037Y-51230421D01*
X43907605Y-51232424D01*
G36*
X43907605Y-51232424D02*
G01*
X43964926Y-51250434D01*
X43990199Y-51262674D01*
X44002910Y-51263938D01*
X44005792Y-51252798D01*
X44005795Y-51252461D01*
X44012006Y-51241087D01*
X44033428Y-51235256D01*
X44074950Y-51233614D01*
X44144109Y-51233614D01*
X44144109Y-51837179D01*
X44005792Y-51837179D01*
X44005792Y-51629132D01*
X44005697Y-51558879D01*
X44005051Y-51501170D01*
X44003320Y-51460787D01*
X43999974Y-51433615D01*
X43994481Y-51415540D01*
X43986310Y-51402447D01*
X43974928Y-51390221D01*
X43959424Y-51377217D01*
X43914843Y-51359745D01*
X43868047Y-51364873D01*
X43825180Y-51392507D01*
X43812927Y-51405368D01*
X43804132Y-51418384D01*
X43798233Y-51435706D01*
X43794651Y-51461501D01*
X43792809Y-51499939D01*
X43792128Y-51555189D01*
X43792030Y-51631418D01*
X43792030Y-51837179D01*
X43653713Y-51837179D01*
X43653989Y-51613985D01*
X43654008Y-51604044D01*
X43655207Y-51509106D01*
X43658891Y-51435358D01*
X43666006Y-51379214D01*
X43677500Y-51337087D01*
X43694318Y-51305391D01*
X43717409Y-51280541D01*
X43747717Y-51258950D01*
X43779012Y-51244002D01*
X43842037Y-51230421D01*
X43907605Y-51232424D01*
G37*
X40958409Y-51236493D02*
X41027021Y-51263224D01*
X41085048Y-51307351D01*
X41127907Y-51367958D01*
X41130801Y-51374137D01*
X41149176Y-51434409D01*
X41158357Y-51506407D01*
X41158285Y-51581369D01*
X41148901Y-51650536D01*
X41130149Y-51705149D01*
X41106995Y-51743212D01*
X41056030Y-51797135D01*
X40992306Y-51831411D01*
X40937785Y-51845272D01*
X40854767Y-51846785D01*
X40775326Y-51825882D01*
X40704879Y-51783464D01*
X40659284Y-51745880D01*
X40700351Y-51703510D01*
X40726296Y-51678409D01*
X40749764Y-51664434D01*
X40771524Y-51667511D01*
X40799356Y-51686287D01*
X40810454Y-51693638D01*
X40857337Y-51708683D01*
X40911224Y-51708673D01*
X40961675Y-51693168D01*
X40980672Y-51680716D01*
X41008537Y-51643946D01*
X41022506Y-51589939D01*
X41023405Y-51516331D01*
X41023403Y-51516289D01*
X41013009Y-51450433D01*
X40990114Y-51404772D01*
X40952439Y-51376528D01*
X40897708Y-51362920D01*
X40863241Y-51361090D01*
X40833126Y-51368584D01*
X40802240Y-51390295D01*
X40762272Y-51423926D01*
X40711656Y-51383250D01*
X40693163Y-51367667D01*
X40670065Y-51345340D01*
X40661039Y-51332183D01*
X40664236Y-51326253D01*
X40682646Y-51308048D01*
X40711973Y-51284895D01*
X40734920Y-51269830D01*
X40807774Y-51238880D01*
X40883799Y-51228073D01*
X40958409Y-51236493D01*
G36*
X40958409Y-51236493D02*
G01*
X41027021Y-51263224D01*
X41085048Y-51307351D01*
X41127907Y-51367958D01*
X41130801Y-51374137D01*
X41149176Y-51434409D01*
X41158357Y-51506407D01*
X41158285Y-51581369D01*
X41148901Y-51650536D01*
X41130149Y-51705149D01*
X41106995Y-51743212D01*
X41056030Y-51797135D01*
X40992306Y-51831411D01*
X40937785Y-51845272D01*
X40854767Y-51846785D01*
X40775326Y-51825882D01*
X40704879Y-51783464D01*
X40659284Y-51745880D01*
X40700351Y-51703510D01*
X40726296Y-51678409D01*
X40749764Y-51664434D01*
X40771524Y-51667511D01*
X40799356Y-51686287D01*
X40810454Y-51693638D01*
X40857337Y-51708683D01*
X40911224Y-51708673D01*
X40961675Y-51693168D01*
X40980672Y-51680716D01*
X41008537Y-51643946D01*
X41022506Y-51589939D01*
X41023405Y-51516331D01*
X41023403Y-51516289D01*
X41013009Y-51450433D01*
X40990114Y-51404772D01*
X40952439Y-51376528D01*
X40897708Y-51362920D01*
X40863241Y-51361090D01*
X40833126Y-51368584D01*
X40802240Y-51390295D01*
X40762272Y-51423926D01*
X40711656Y-51383250D01*
X40693163Y-51367667D01*
X40670065Y-51345340D01*
X40661039Y-51332183D01*
X40664236Y-51326253D01*
X40682646Y-51308048D01*
X40711973Y-51284895D01*
X40734920Y-51269830D01*
X40807774Y-51238880D01*
X40883799Y-51228073D01*
X40958409Y-51236493D01*
G37*
X42757857Y-51578771D02*
X42754349Y-51618565D01*
X42738844Y-51694538D01*
X42711110Y-51752511D01*
X42668898Y-51796300D01*
X42609960Y-51829722D01*
X42587076Y-51837676D01*
X42527812Y-51847601D01*
X42465447Y-51847331D01*
X42412823Y-51836430D01*
X42411789Y-51836034D01*
X42369381Y-51811087D01*
X42326537Y-51772468D01*
X42290986Y-51728306D01*
X42270459Y-51686727D01*
X42264374Y-51656334D01*
X42259164Y-51599429D01*
X42258291Y-51548705D01*
X42384976Y-51548705D01*
X42392549Y-51609545D01*
X42410341Y-51659538D01*
X42437296Y-51692204D01*
X42447513Y-51697812D01*
X42486473Y-51708007D01*
X42531536Y-51710104D01*
X42569448Y-51703020D01*
X42584244Y-51692861D01*
X42605014Y-51657334D01*
X42618083Y-51601732D01*
X42622624Y-51528766D01*
X42622551Y-51507762D01*
X42620974Y-51465203D01*
X42615728Y-51437439D01*
X42604723Y-51416925D01*
X42585868Y-51396112D01*
X42549989Y-51370887D01*
X42503280Y-51360573D01*
X42458151Y-51370396D01*
X42420680Y-51398805D01*
X42396943Y-51444253D01*
X42388675Y-51483497D01*
X42384976Y-51548705D01*
X42258291Y-51548705D01*
X42258049Y-51534621D01*
X42260844Y-51470116D01*
X42267366Y-51414121D01*
X42277432Y-51374842D01*
X42300877Y-51330372D01*
X42350637Y-51275692D01*
X42414238Y-51241055D01*
X42489790Y-51227345D01*
X42575399Y-51235448D01*
X42589644Y-51238899D01*
X42655982Y-51268664D01*
X42705971Y-51317530D01*
X42739612Y-51385501D01*
X42756906Y-51472580D01*
X42757410Y-51528766D01*
X42757857Y-51578771D01*
G36*
X42757857Y-51578771D02*
G01*
X42754349Y-51618565D01*
X42738844Y-51694538D01*
X42711110Y-51752511D01*
X42668898Y-51796300D01*
X42609960Y-51829722D01*
X42587076Y-51837676D01*
X42527812Y-51847601D01*
X42465447Y-51847331D01*
X42412823Y-51836430D01*
X42411789Y-51836034D01*
X42369381Y-51811087D01*
X42326537Y-51772468D01*
X42290986Y-51728306D01*
X42270459Y-51686727D01*
X42264374Y-51656334D01*
X42259164Y-51599429D01*
X42258291Y-51548705D01*
X42384976Y-51548705D01*
X42392549Y-51609545D01*
X42410341Y-51659538D01*
X42437296Y-51692204D01*
X42447513Y-51697812D01*
X42486473Y-51708007D01*
X42531536Y-51710104D01*
X42569448Y-51703020D01*
X42584244Y-51692861D01*
X42605014Y-51657334D01*
X42618083Y-51601732D01*
X42622624Y-51528766D01*
X42622551Y-51507762D01*
X42620974Y-51465203D01*
X42615728Y-51437439D01*
X42604723Y-51416925D01*
X42585868Y-51396112D01*
X42549989Y-51370887D01*
X42503280Y-51360573D01*
X42458151Y-51370396D01*
X42420680Y-51398805D01*
X42396943Y-51444253D01*
X42388675Y-51483497D01*
X42384976Y-51548705D01*
X42258291Y-51548705D01*
X42258049Y-51534621D01*
X42260844Y-51470116D01*
X42267366Y-51414121D01*
X42277432Y-51374842D01*
X42300877Y-51330372D01*
X42350637Y-51275692D01*
X42414238Y-51241055D01*
X42489790Y-51227345D01*
X42575399Y-51235448D01*
X42589644Y-51238899D01*
X42655982Y-51268664D01*
X42705971Y-51317530D01*
X42739612Y-51385501D01*
X42756906Y-51472580D01*
X42757410Y-51528766D01*
X42757857Y-51578771D01*
G37*
X42857997Y-52374130D02*
X42874997Y-52424850D01*
X42895107Y-52480997D01*
X42911899Y-52523532D01*
X42923986Y-52548990D01*
X42929980Y-52553903D01*
X42931426Y-52549630D01*
X42939254Y-52523422D01*
X42951723Y-52479649D01*
X42967447Y-52423211D01*
X42985043Y-52359010D01*
X43032914Y-52182971D01*
X43106007Y-52179152D01*
X43112177Y-52178846D01*
X43151592Y-52178441D01*
X43170533Y-52182487D01*
X43172945Y-52191726D01*
X43169898Y-52200749D01*
X43159874Y-52231632D01*
X43144180Y-52280544D01*
X43123934Y-52343987D01*
X43100256Y-52418462D01*
X43074263Y-52500471D01*
X42981736Y-52792822D01*
X42865993Y-52792822D01*
X42811457Y-52607352D01*
X42801386Y-52573294D01*
X42782775Y-52511378D01*
X42766872Y-52459787D01*
X42755109Y-52423130D01*
X42748918Y-52406018D01*
X42747154Y-52404741D01*
X42738571Y-52415779D01*
X42726316Y-52444969D01*
X42712426Y-52487750D01*
X42711692Y-52490263D01*
X42693096Y-52553400D01*
X42671818Y-52624889D01*
X42652321Y-52689734D01*
X42620705Y-52794122D01*
X42562402Y-52790328D01*
X42504098Y-52786535D01*
X42450098Y-52616782D01*
X42426390Y-52542193D01*
X42399833Y-52458539D01*
X42374404Y-52378342D01*
X42353354Y-52311857D01*
X42310609Y-52176683D01*
X42453612Y-52176683D01*
X42488274Y-52305570D01*
X42497488Y-52339625D01*
X42514915Y-52403115D01*
X42531054Y-52460874D01*
X42543322Y-52503614D01*
X42563709Y-52572773D01*
X42693745Y-52182971D01*
X42743476Y-52179237D01*
X42793206Y-52175504D01*
X42857997Y-52374130D01*
G36*
X42857997Y-52374130D02*
G01*
X42874997Y-52424850D01*
X42895107Y-52480997D01*
X42911899Y-52523532D01*
X42923986Y-52548990D01*
X42929980Y-52553903D01*
X42931426Y-52549630D01*
X42939254Y-52523422D01*
X42951723Y-52479649D01*
X42967447Y-52423211D01*
X42985043Y-52359010D01*
X43032914Y-52182971D01*
X43106007Y-52179152D01*
X43112177Y-52178846D01*
X43151592Y-52178441D01*
X43170533Y-52182487D01*
X43172945Y-52191726D01*
X43169898Y-52200749D01*
X43159874Y-52231632D01*
X43144180Y-52280544D01*
X43123934Y-52343987D01*
X43100256Y-52418462D01*
X43074263Y-52500471D01*
X42981736Y-52792822D01*
X42865993Y-52792822D01*
X42811457Y-52607352D01*
X42801386Y-52573294D01*
X42782775Y-52511378D01*
X42766872Y-52459787D01*
X42755109Y-52423130D01*
X42748918Y-52406018D01*
X42747154Y-52404741D01*
X42738571Y-52415779D01*
X42726316Y-52444969D01*
X42712426Y-52487750D01*
X42711692Y-52490263D01*
X42693096Y-52553400D01*
X42671818Y-52624889D01*
X42652321Y-52689734D01*
X42620705Y-52794122D01*
X42562402Y-52790328D01*
X42504098Y-52786535D01*
X42450098Y-52616782D01*
X42426390Y-52542193D01*
X42399833Y-52458539D01*
X42374404Y-52378342D01*
X42353354Y-52311857D01*
X42310609Y-52176683D01*
X42453612Y-52176683D01*
X42488274Y-52305570D01*
X42497488Y-52339625D01*
X42514915Y-52403115D01*
X42531054Y-52460874D01*
X42543322Y-52503614D01*
X42563709Y-52572773D01*
X42693745Y-52182971D01*
X42743476Y-52179237D01*
X42793206Y-52175504D01*
X42857997Y-52374130D01*
G37*
X43715761Y-52531813D02*
X43714167Y-52585571D01*
X43710962Y-52623018D01*
X43710413Y-52626450D01*
X43688838Y-52687835D01*
X43649438Y-52739877D01*
X43597752Y-52775135D01*
X43542248Y-52789729D01*
X43473977Y-52788597D01*
X43411173Y-52769029D01*
X43394815Y-52760771D01*
X43373779Y-52751923D01*
X43365774Y-52754676D01*
X43364505Y-52769029D01*
X43363922Y-52776186D01*
X43356394Y-52786772D01*
X43335488Y-52791645D01*
X43295346Y-52792822D01*
X43226188Y-52792822D01*
X43226188Y-52490930D01*
X43364505Y-52490930D01*
X43365496Y-52543230D01*
X43369519Y-52578050D01*
X43378108Y-52601905D01*
X43392797Y-52621895D01*
X43431584Y-52651618D01*
X43476974Y-52661582D01*
X43520989Y-52649260D01*
X43558060Y-52614888D01*
X43567859Y-52589735D01*
X43575097Y-52545194D01*
X43578279Y-52491155D01*
X43577277Y-52435728D01*
X43571961Y-52387022D01*
X43562204Y-52353148D01*
X43559087Y-52347593D01*
X43529038Y-52319674D01*
X43488315Y-52307306D01*
X43444579Y-52310183D01*
X43405491Y-52328000D01*
X43378710Y-52360452D01*
X43377603Y-52363181D01*
X43370963Y-52393634D01*
X43366278Y-52439139D01*
X43364505Y-52490930D01*
X43226188Y-52490930D01*
X43226188Y-51937773D01*
X43364505Y-51937773D01*
X43364505Y-52230878D01*
X43390124Y-52207693D01*
X43414792Y-52193282D01*
X43461480Y-52181236D01*
X43516056Y-52177354D01*
X43569354Y-52182120D01*
X43612207Y-52196014D01*
X43642878Y-52215779D01*
X43674471Y-52249449D01*
X43695733Y-52294730D01*
X43708514Y-52355981D01*
X43714664Y-52437563D01*
X43715568Y-52470540D01*
X43715633Y-52491155D01*
X43715761Y-52531813D01*
G36*
X43715761Y-52531813D02*
G01*
X43714167Y-52585571D01*
X43710962Y-52623018D01*
X43710413Y-52626450D01*
X43688838Y-52687835D01*
X43649438Y-52739877D01*
X43597752Y-52775135D01*
X43542248Y-52789729D01*
X43473977Y-52788597D01*
X43411173Y-52769029D01*
X43394815Y-52760771D01*
X43373779Y-52751923D01*
X43365774Y-52754676D01*
X43364505Y-52769029D01*
X43363922Y-52776186D01*
X43356394Y-52786772D01*
X43335488Y-52791645D01*
X43295346Y-52792822D01*
X43226188Y-52792822D01*
X43226188Y-52490930D01*
X43364505Y-52490930D01*
X43365496Y-52543230D01*
X43369519Y-52578050D01*
X43378108Y-52601905D01*
X43392797Y-52621895D01*
X43431584Y-52651618D01*
X43476974Y-52661582D01*
X43520989Y-52649260D01*
X43558060Y-52614888D01*
X43567859Y-52589735D01*
X43575097Y-52545194D01*
X43578279Y-52491155D01*
X43577277Y-52435728D01*
X43571961Y-52387022D01*
X43562204Y-52353148D01*
X43559087Y-52347593D01*
X43529038Y-52319674D01*
X43488315Y-52307306D01*
X43444579Y-52310183D01*
X43405491Y-52328000D01*
X43378710Y-52360452D01*
X43377603Y-52363181D01*
X43370963Y-52393634D01*
X43366278Y-52439139D01*
X43364505Y-52490930D01*
X43226188Y-52490930D01*
X43226188Y-51937773D01*
X43364505Y-51937773D01*
X43364505Y-52230878D01*
X43390124Y-52207693D01*
X43414792Y-52193282D01*
X43461480Y-52181236D01*
X43516056Y-52177354D01*
X43569354Y-52182120D01*
X43612207Y-52196014D01*
X43642878Y-52215779D01*
X43674471Y-52249449D01*
X43695733Y-52294730D01*
X43708514Y-52355981D01*
X43714664Y-52437563D01*
X43715568Y-52470540D01*
X43715633Y-52491155D01*
X43715761Y-52531813D01*
G37*
X45889997Y-51569931D02*
X45888373Y-51609310D01*
X45884688Y-51657332D01*
X45878410Y-51691368D01*
X45868044Y-51718338D01*
X45852092Y-51745158D01*
X45851412Y-51746175D01*
X45812132Y-51789629D01*
X45764072Y-51822772D01*
X45708185Y-51842439D01*
X45634666Y-51848824D01*
X45562609Y-51836268D01*
X45498201Y-51806011D01*
X45447627Y-51759294D01*
X45433108Y-51737221D01*
X45405993Y-51668602D01*
X45392546Y-51583939D01*
X45392776Y-51562523D01*
X45527920Y-51562523D01*
X45528174Y-51602574D01*
X45532421Y-51629313D01*
X45542096Y-51649859D01*
X45558638Y-51671331D01*
X45581593Y-51692639D01*
X45627505Y-51711653D01*
X45676802Y-51708122D01*
X45723917Y-51681694D01*
X45737207Y-51669072D01*
X45751397Y-51647465D01*
X45759266Y-51617094D01*
X45763726Y-51569770D01*
X45764955Y-51534219D01*
X45758224Y-51461620D01*
X45737567Y-51409642D01*
X45702894Y-51377999D01*
X45662249Y-51362847D01*
X45613777Y-51364123D01*
X45568845Y-51389703D01*
X45558103Y-51399442D01*
X45544548Y-51416480D01*
X45536505Y-51438772D01*
X45532043Y-51472947D01*
X45529228Y-51525638D01*
X45527920Y-51562523D01*
X45392776Y-51562523D01*
X45393583Y-51487351D01*
X45394907Y-51473651D01*
X45413374Y-51385908D01*
X45447540Y-51317793D01*
X45497479Y-51269231D01*
X45563261Y-51240148D01*
X45644961Y-51230471D01*
X45675828Y-51231379D01*
X45739128Y-51242493D01*
X45790889Y-51269021D01*
X45839147Y-51314436D01*
X45846865Y-51323551D01*
X45867681Y-51354248D01*
X45881362Y-51389007D01*
X45888948Y-51433056D01*
X45891479Y-51491621D01*
X45890672Y-51534219D01*
X45889997Y-51569931D01*
G36*
X45889997Y-51569931D02*
G01*
X45888373Y-51609310D01*
X45884688Y-51657332D01*
X45878410Y-51691368D01*
X45868044Y-51718338D01*
X45852092Y-51745158D01*
X45851412Y-51746175D01*
X45812132Y-51789629D01*
X45764072Y-51822772D01*
X45708185Y-51842439D01*
X45634666Y-51848824D01*
X45562609Y-51836268D01*
X45498201Y-51806011D01*
X45447627Y-51759294D01*
X45433108Y-51737221D01*
X45405993Y-51668602D01*
X45392546Y-51583939D01*
X45392776Y-51562523D01*
X45527920Y-51562523D01*
X45528174Y-51602574D01*
X45532421Y-51629313D01*
X45542096Y-51649859D01*
X45558638Y-51671331D01*
X45581593Y-51692639D01*
X45627505Y-51711653D01*
X45676802Y-51708122D01*
X45723917Y-51681694D01*
X45737207Y-51669072D01*
X45751397Y-51647465D01*
X45759266Y-51617094D01*
X45763726Y-51569770D01*
X45764955Y-51534219D01*
X45758224Y-51461620D01*
X45737567Y-51409642D01*
X45702894Y-51377999D01*
X45662249Y-51362847D01*
X45613777Y-51364123D01*
X45568845Y-51389703D01*
X45558103Y-51399442D01*
X45544548Y-51416480D01*
X45536505Y-51438772D01*
X45532043Y-51472947D01*
X45529228Y-51525638D01*
X45527920Y-51562523D01*
X45392776Y-51562523D01*
X45393583Y-51487351D01*
X45394907Y-51473651D01*
X45413374Y-51385908D01*
X45447540Y-51317793D01*
X45497479Y-51269231D01*
X45563261Y-51240148D01*
X45644961Y-51230471D01*
X45675828Y-51231379D01*
X45739128Y-51242493D01*
X45790889Y-51269021D01*
X45839147Y-51314436D01*
X45846865Y-51323551D01*
X45867681Y-51354248D01*
X45881362Y-51389007D01*
X45888948Y-51433056D01*
X45891479Y-51491621D01*
X45890672Y-51534219D01*
X45889997Y-51569931D01*
G37*
X40644444Y-51494878D02*
X40642825Y-51591121D01*
X40642615Y-51593014D01*
X40624535Y-51681325D01*
X40591870Y-51749986D01*
X40543601Y-51800506D01*
X40478713Y-51834393D01*
X40466801Y-51838268D01*
X40392971Y-51849688D01*
X40316614Y-51843320D01*
X40245626Y-51820563D01*
X40187904Y-51782819D01*
X40144667Y-51742872D01*
X40190625Y-51706532D01*
X40236583Y-51670193D01*
X40291969Y-51697101D01*
X40356056Y-51718905D01*
X40412632Y-51719558D01*
X40458920Y-51699525D01*
X40492230Y-51659315D01*
X40504171Y-51635222D01*
X40510837Y-51614630D01*
X40506980Y-51600720D01*
X40489675Y-51592181D01*
X40455997Y-51587704D01*
X40403021Y-51585978D01*
X40327822Y-51585693D01*
X40145495Y-51585693D01*
X40145495Y-51498492D01*
X40146857Y-51460210D01*
X40275234Y-51460210D01*
X40281399Y-51467251D01*
X40299654Y-51470916D01*
X40334352Y-51472306D01*
X40389846Y-51472525D01*
X40419603Y-51472176D01*
X40466562Y-51469867D01*
X40498416Y-51465822D01*
X40510148Y-51460542D01*
X40507146Y-51441062D01*
X40485988Y-51403786D01*
X40450731Y-51373164D01*
X40408699Y-51354668D01*
X40367220Y-51353773D01*
X40335997Y-51368604D01*
X40300618Y-51402355D01*
X40278122Y-51444233D01*
X40276805Y-51448690D01*
X40275234Y-51460210D01*
X40146857Y-51460210D01*
X40147136Y-51452371D01*
X40151955Y-51406740D01*
X40158840Y-51375893D01*
X40163859Y-51364117D01*
X40200390Y-51311667D01*
X40253175Y-51267921D01*
X40314904Y-51239279D01*
X40347102Y-51231457D01*
X40423820Y-51227896D01*
X40492179Y-51246009D01*
X40550299Y-51283779D01*
X40596302Y-51339191D01*
X40628310Y-51410229D01*
X40637900Y-51460542D01*
X40644444Y-51494878D01*
G36*
X40644444Y-51494878D02*
G01*
X40642825Y-51591121D01*
X40642615Y-51593014D01*
X40624535Y-51681325D01*
X40591870Y-51749986D01*
X40543601Y-51800506D01*
X40478713Y-51834393D01*
X40466801Y-51838268D01*
X40392971Y-51849688D01*
X40316614Y-51843320D01*
X40245626Y-51820563D01*
X40187904Y-51782819D01*
X40144667Y-51742872D01*
X40190625Y-51706532D01*
X40236583Y-51670193D01*
X40291969Y-51697101D01*
X40356056Y-51718905D01*
X40412632Y-51719558D01*
X40458920Y-51699525D01*
X40492230Y-51659315D01*
X40504171Y-51635222D01*
X40510837Y-51614630D01*
X40506980Y-51600720D01*
X40489675Y-51592181D01*
X40455997Y-51587704D01*
X40403021Y-51585978D01*
X40327822Y-51585693D01*
X40145495Y-51585693D01*
X40145495Y-51498492D01*
X40146857Y-51460210D01*
X40275234Y-51460210D01*
X40281399Y-51467251D01*
X40299654Y-51470916D01*
X40334352Y-51472306D01*
X40389846Y-51472525D01*
X40419603Y-51472176D01*
X40466562Y-51469867D01*
X40498416Y-51465822D01*
X40510148Y-51460542D01*
X40507146Y-51441062D01*
X40485988Y-51403786D01*
X40450731Y-51373164D01*
X40408699Y-51354668D01*
X40367220Y-51353773D01*
X40335997Y-51368604D01*
X40300618Y-51402355D01*
X40278122Y-51444233D01*
X40276805Y-51448690D01*
X40275234Y-51460210D01*
X40146857Y-51460210D01*
X40147136Y-51452371D01*
X40151955Y-51406740D01*
X40158840Y-51375893D01*
X40163859Y-51364117D01*
X40200390Y-51311667D01*
X40253175Y-51267921D01*
X40314904Y-51239279D01*
X40347102Y-51231457D01*
X40423820Y-51227896D01*
X40492179Y-51246009D01*
X40550299Y-51283779D01*
X40596302Y-51339191D01*
X40628310Y-51410229D01*
X40637900Y-51460542D01*
X40644444Y-51494878D01*
G37*
X43123874Y-51233207D02*
X43196495Y-51251408D01*
X43249546Y-51285144D01*
X43283329Y-51334642D01*
X43298147Y-51400126D01*
X43295147Y-51462820D01*
X43273493Y-51515699D01*
X43231967Y-51554796D01*
X43169736Y-51580873D01*
X43085969Y-51594695D01*
X43031540Y-51601940D01*
X42981860Y-51617615D01*
X42956211Y-51640314D01*
X42954662Y-51669998D01*
X42964984Y-51688507D01*
X42996951Y-51710443D01*
X43042395Y-51720818D01*
X43095649Y-51719399D01*
X43151048Y-51705952D01*
X43202928Y-51680243D01*
X43254653Y-51646013D01*
X43300148Y-51692049D01*
X43345643Y-51738084D01*
X43307921Y-51768876D01*
X43293253Y-51779574D01*
X43251983Y-51803880D01*
X43207327Y-51824825D01*
X43171984Y-51836845D01*
X43120234Y-51845552D01*
X43056435Y-51845667D01*
X42978200Y-51836081D01*
X42907722Y-51811783D01*
X42857836Y-51773188D01*
X42828423Y-51720198D01*
X42819365Y-51652718D01*
X42825921Y-51593354D01*
X42846970Y-51544752D01*
X42884864Y-51509946D01*
X42942004Y-51486798D01*
X43020785Y-51473170D01*
X43029834Y-51472183D01*
X43078885Y-51465892D01*
X43118675Y-51459309D01*
X43141312Y-51453708D01*
X43148866Y-51449197D01*
X43161637Y-51425941D01*
X43159563Y-51396171D01*
X43142495Y-51370327D01*
X43133533Y-51364691D01*
X43096188Y-51355660D01*
X43047950Y-51356267D01*
X42997650Y-51365878D01*
X42954115Y-51383858D01*
X42908372Y-51410847D01*
X42872890Y-51369384D01*
X42864280Y-51358850D01*
X42844883Y-51330632D01*
X42836897Y-51311508D01*
X42845283Y-51299781D01*
X42871226Y-51281476D01*
X42908688Y-51261777D01*
X42913966Y-51259370D01*
X42963366Y-51240482D01*
X43010983Y-51231452D01*
X43070072Y-51229639D01*
X43123874Y-51233207D01*
G36*
X43123874Y-51233207D02*
G01*
X43196495Y-51251408D01*
X43249546Y-51285144D01*
X43283329Y-51334642D01*
X43298147Y-51400126D01*
X43295147Y-51462820D01*
X43273493Y-51515699D01*
X43231967Y-51554796D01*
X43169736Y-51580873D01*
X43085969Y-51594695D01*
X43031540Y-51601940D01*
X42981860Y-51617615D01*
X42956211Y-51640314D01*
X42954662Y-51669998D01*
X42964984Y-51688507D01*
X42996951Y-51710443D01*
X43042395Y-51720818D01*
X43095649Y-51719399D01*
X43151048Y-51705952D01*
X43202928Y-51680243D01*
X43254653Y-51646013D01*
X43300148Y-51692049D01*
X43345643Y-51738084D01*
X43307921Y-51768876D01*
X43293253Y-51779574D01*
X43251983Y-51803880D01*
X43207327Y-51824825D01*
X43171984Y-51836845D01*
X43120234Y-51845552D01*
X43056435Y-51845667D01*
X42978200Y-51836081D01*
X42907722Y-51811783D01*
X42857836Y-51773188D01*
X42828423Y-51720198D01*
X42819365Y-51652718D01*
X42825921Y-51593354D01*
X42846970Y-51544752D01*
X42884864Y-51509946D01*
X42942004Y-51486798D01*
X43020785Y-51473170D01*
X43029834Y-51472183D01*
X43078885Y-51465892D01*
X43118675Y-51459309D01*
X43141312Y-51453708D01*
X43148866Y-51449197D01*
X43161637Y-51425941D01*
X43159563Y-51396171D01*
X43142495Y-51370327D01*
X43133533Y-51364691D01*
X43096188Y-51355660D01*
X43047950Y-51356267D01*
X42997650Y-51365878D01*
X42954115Y-51383858D01*
X42908372Y-51410847D01*
X42872890Y-51369384D01*
X42864280Y-51358850D01*
X42844883Y-51330632D01*
X42836897Y-51311508D01*
X42845283Y-51299781D01*
X42871226Y-51281476D01*
X42908688Y-51261777D01*
X42913966Y-51259370D01*
X42963366Y-51240482D01*
X43010983Y-51231452D01*
X43070072Y-51229639D01*
X43123874Y-51233207D01*
G37*
X41289353Y-52484753D02*
X41287718Y-52531692D01*
X41272827Y-52621459D01*
X41242185Y-52692045D01*
X41195524Y-52743952D01*
X41132574Y-52777686D01*
X41112235Y-52783647D01*
X41039612Y-52791971D01*
X40962928Y-52784946D01*
X40893663Y-52763265D01*
X40869262Y-52750959D01*
X40834275Y-52729879D01*
X40813072Y-52712534D01*
X40809942Y-52708571D01*
X40804085Y-52694077D01*
X40812524Y-52678321D01*
X40838221Y-52654460D01*
X40850622Y-52644072D01*
X40875052Y-52625063D01*
X40887861Y-52617293D01*
X40891530Y-52618094D01*
X40912561Y-52626745D01*
X40943960Y-52641931D01*
X40954197Y-52646926D01*
X41014590Y-52665475D01*
X41067057Y-52660694D01*
X41113065Y-52632500D01*
X41118419Y-52627291D01*
X41144013Y-52594659D01*
X41158637Y-52563342D01*
X41166736Y-52528763D01*
X40786782Y-52528763D01*
X40786852Y-52462748D01*
X40786892Y-52456182D01*
X40792022Y-52403218D01*
X40925099Y-52403218D01*
X40926670Y-52414203D01*
X40934738Y-52421773D01*
X40953967Y-52425975D01*
X40989019Y-52427783D01*
X41044554Y-52428169D01*
X41075429Y-52427768D01*
X41121002Y-52425429D01*
X41152348Y-52421465D01*
X41164010Y-52416413D01*
X41154064Y-52374827D01*
X41124947Y-52336013D01*
X41082952Y-52309086D01*
X41034440Y-52299772D01*
X40998723Y-52310272D01*
X40963020Y-52335940D01*
X40935879Y-52369381D01*
X40925099Y-52403218D01*
X40792022Y-52403218D01*
X40794758Y-52374965D01*
X40817655Y-52308895D01*
X40857607Y-52251940D01*
X40881979Y-52227848D01*
X40932315Y-52195597D01*
X40992419Y-52179970D01*
X41068338Y-52178871D01*
X41105010Y-52183179D01*
X41172703Y-52205549D01*
X41224530Y-52246263D01*
X41260945Y-52305949D01*
X41282401Y-52385236D01*
X41284579Y-52416413D01*
X41289353Y-52484753D01*
G36*
X41289353Y-52484753D02*
G01*
X41287718Y-52531692D01*
X41272827Y-52621459D01*
X41242185Y-52692045D01*
X41195524Y-52743952D01*
X41132574Y-52777686D01*
X41112235Y-52783647D01*
X41039612Y-52791971D01*
X40962928Y-52784946D01*
X40893663Y-52763265D01*
X40869262Y-52750959D01*
X40834275Y-52729879D01*
X40813072Y-52712534D01*
X40809942Y-52708571D01*
X40804085Y-52694077D01*
X40812524Y-52678321D01*
X40838221Y-52654460D01*
X40850622Y-52644072D01*
X40875052Y-52625063D01*
X40887861Y-52617293D01*
X40891530Y-52618094D01*
X40912561Y-52626745D01*
X40943960Y-52641931D01*
X40954197Y-52646926D01*
X41014590Y-52665475D01*
X41067057Y-52660694D01*
X41113065Y-52632500D01*
X41118419Y-52627291D01*
X41144013Y-52594659D01*
X41158637Y-52563342D01*
X41166736Y-52528763D01*
X40786782Y-52528763D01*
X40786852Y-52462748D01*
X40786892Y-52456182D01*
X40792022Y-52403218D01*
X40925099Y-52403218D01*
X40926670Y-52414203D01*
X40934738Y-52421773D01*
X40953967Y-52425975D01*
X40989019Y-52427783D01*
X41044554Y-52428169D01*
X41075429Y-52427768D01*
X41121002Y-52425429D01*
X41152348Y-52421465D01*
X41164010Y-52416413D01*
X41154064Y-52374827D01*
X41124947Y-52336013D01*
X41082952Y-52309086D01*
X41034440Y-52299772D01*
X40998723Y-52310272D01*
X40963020Y-52335940D01*
X40935879Y-52369381D01*
X40925099Y-52403218D01*
X40792022Y-52403218D01*
X40794758Y-52374965D01*
X40817655Y-52308895D01*
X40857607Y-52251940D01*
X40881979Y-52227848D01*
X40932315Y-52195597D01*
X40992419Y-52179970D01*
X41068338Y-52178871D01*
X41105010Y-52183179D01*
X41172703Y-52205549D01*
X41224530Y-52246263D01*
X41260945Y-52305949D01*
X41282401Y-52385236D01*
X41284579Y-52416413D01*
X41289353Y-52484753D01*
G37*
X44732022Y-51459861D02*
X44736421Y-51547936D01*
X44735322Y-51586371D01*
X44722926Y-51670367D01*
X44695608Y-51736595D01*
X44651941Y-51787784D01*
X44590495Y-51826663D01*
X44530888Y-51844812D01*
X44456110Y-51848284D01*
X44380664Y-51834930D01*
X44313366Y-51805425D01*
X44288428Y-51789012D01*
X44260951Y-51767973D01*
X44248414Y-51754129D01*
X44249124Y-51748417D01*
X44263158Y-51728955D01*
X44289533Y-51705376D01*
X44335240Y-51670513D01*
X44388799Y-51697262D01*
X44403282Y-51703882D01*
X44445916Y-51718273D01*
X44481649Y-51724010D01*
X44507998Y-51719282D01*
X44549347Y-51696514D01*
X44584104Y-51661170D01*
X44603983Y-51620273D01*
X44612083Y-51585693D01*
X44232129Y-51585693D01*
X44232199Y-51519679D01*
X44232774Y-51498757D01*
X44236972Y-51453862D01*
X44370445Y-51453862D01*
X44370690Y-51456434D01*
X44377604Y-51464443D01*
X44397141Y-51469364D01*
X44433467Y-51471843D01*
X44490748Y-51472525D01*
X44509575Y-51472517D01*
X44558470Y-51472065D01*
X44587863Y-51470113D01*
X44602115Y-51465558D01*
X44605582Y-51457299D01*
X44602625Y-51444233D01*
X44602173Y-51442752D01*
X44576699Y-51397285D01*
X44536539Y-51365981D01*
X44488651Y-51354327D01*
X44470949Y-51355259D01*
X44438094Y-51366408D01*
X44406575Y-51394763D01*
X44398085Y-51404789D01*
X44378336Y-51433423D01*
X44370445Y-51453862D01*
X44236972Y-51453862D01*
X44237512Y-51448091D01*
X44245459Y-51406166D01*
X44254168Y-51382696D01*
X44284790Y-51331646D01*
X44325799Y-51285283D01*
X44369168Y-51253514D01*
X44381699Y-51247614D01*
X44454661Y-51228046D01*
X44529168Y-51230109D01*
X44599217Y-51252931D01*
X44658807Y-51295639D01*
X44691038Y-51335025D01*
X44717392Y-51390510D01*
X44731482Y-51457299D01*
X44732022Y-51459861D01*
G36*
X44732022Y-51459861D02*
G01*
X44736421Y-51547936D01*
X44735322Y-51586371D01*
X44722926Y-51670367D01*
X44695608Y-51736595D01*
X44651941Y-51787784D01*
X44590495Y-51826663D01*
X44530888Y-51844812D01*
X44456110Y-51848284D01*
X44380664Y-51834930D01*
X44313366Y-51805425D01*
X44288428Y-51789012D01*
X44260951Y-51767973D01*
X44248414Y-51754129D01*
X44249124Y-51748417D01*
X44263158Y-51728955D01*
X44289533Y-51705376D01*
X44335240Y-51670513D01*
X44388799Y-51697262D01*
X44403282Y-51703882D01*
X44445916Y-51718273D01*
X44481649Y-51724010D01*
X44507998Y-51719282D01*
X44549347Y-51696514D01*
X44584104Y-51661170D01*
X44603983Y-51620273D01*
X44612083Y-51585693D01*
X44232129Y-51585693D01*
X44232199Y-51519679D01*
X44232774Y-51498757D01*
X44236972Y-51453862D01*
X44370445Y-51453862D01*
X44370690Y-51456434D01*
X44377604Y-51464443D01*
X44397141Y-51469364D01*
X44433467Y-51471843D01*
X44490748Y-51472525D01*
X44509575Y-51472517D01*
X44558470Y-51472065D01*
X44587863Y-51470113D01*
X44602115Y-51465558D01*
X44605582Y-51457299D01*
X44602625Y-51444233D01*
X44602173Y-51442752D01*
X44576699Y-51397285D01*
X44536539Y-51365981D01*
X44488651Y-51354327D01*
X44470949Y-51355259D01*
X44438094Y-51366408D01*
X44406575Y-51394763D01*
X44398085Y-51404789D01*
X44378336Y-51433423D01*
X44370445Y-51453862D01*
X44236972Y-51453862D01*
X44237512Y-51448091D01*
X44245459Y-51406166D01*
X44254168Y-51382696D01*
X44284790Y-51331646D01*
X44325799Y-51285283D01*
X44369168Y-51253514D01*
X44381699Y-51247614D01*
X44454661Y-51228046D01*
X44529168Y-51230109D01*
X44599217Y-51252931D01*
X44658807Y-51295639D01*
X44691038Y-51335025D01*
X44717392Y-51390510D01*
X44731482Y-51457299D01*
X44732022Y-51459861D01*
G37*
X42314413Y-52627333D02*
X42299244Y-52684419D01*
X42266277Y-52733255D01*
X42216270Y-52768386D01*
X42211362Y-52770521D01*
X42156646Y-52785903D01*
X42094993Y-52791899D01*
X42036376Y-52788233D01*
X41990767Y-52774629D01*
X41972549Y-52765754D01*
X41959179Y-52763637D01*
X41956188Y-52774706D01*
X41950524Y-52784942D01*
X41928607Y-52791038D01*
X41886068Y-52792822D01*
X41815948Y-52792822D01*
X41820053Y-52550768D01*
X41820492Y-52528763D01*
X41956188Y-52528763D01*
X41956188Y-52572773D01*
X41960924Y-52605666D01*
X41981336Y-52641931D01*
X41988871Y-52648597D01*
X42019753Y-52662620D01*
X42066213Y-52666228D01*
X42094090Y-52664819D01*
X42146255Y-52654204D01*
X42178587Y-52634425D01*
X42189492Y-52606824D01*
X42177374Y-52572743D01*
X42170304Y-52563824D01*
X42138724Y-52543818D01*
X42088744Y-52532395D01*
X42017487Y-52528763D01*
X41956188Y-52528763D01*
X41820492Y-52528763D01*
X41821169Y-52494794D01*
X41824106Y-52410996D01*
X41829058Y-52346920D01*
X41837002Y-52299073D01*
X41848917Y-52263962D01*
X41865780Y-52238093D01*
X41888572Y-52217974D01*
X41918269Y-52200110D01*
X41933589Y-52193290D01*
X41986589Y-52180417D01*
X42050513Y-52175095D01*
X42116602Y-52177227D01*
X42176099Y-52186714D01*
X42220247Y-52203461D01*
X42235604Y-52213185D01*
X42270960Y-52242005D01*
X42282926Y-52266137D01*
X42280020Y-52270800D01*
X42261909Y-52287088D01*
X42232672Y-52308817D01*
X42217725Y-52318987D01*
X42192270Y-52333397D01*
X42175728Y-52334773D01*
X42160370Y-52324827D01*
X42122094Y-52304684D01*
X42070590Y-52296400D01*
X42017957Y-52302742D01*
X42016961Y-52303030D01*
X41979838Y-52319158D01*
X41961463Y-52344405D01*
X41956380Y-52386158D01*
X41956188Y-52425879D01*
X42087423Y-52430168D01*
X42108331Y-52430873D01*
X42161043Y-52433326D01*
X42196381Y-52437180D01*
X42220267Y-52443878D01*
X42238624Y-52454864D01*
X42257376Y-52471580D01*
X42288337Y-52510244D01*
X42311029Y-52567456D01*
X42313254Y-52606824D01*
X42314413Y-52627333D01*
G36*
X42314413Y-52627333D02*
G01*
X42299244Y-52684419D01*
X42266277Y-52733255D01*
X42216270Y-52768386D01*
X42211362Y-52770521D01*
X42156646Y-52785903D01*
X42094993Y-52791899D01*
X42036376Y-52788233D01*
X41990767Y-52774629D01*
X41972549Y-52765754D01*
X41959179Y-52763637D01*
X41956188Y-52774706D01*
X41950524Y-52784942D01*
X41928607Y-52791038D01*
X41886068Y-52792822D01*
X41815948Y-52792822D01*
X41820053Y-52550768D01*
X41820492Y-52528763D01*
X41956188Y-52528763D01*
X41956188Y-52572773D01*
X41960924Y-52605666D01*
X41981336Y-52641931D01*
X41988871Y-52648597D01*
X42019753Y-52662620D01*
X42066213Y-52666228D01*
X42094090Y-52664819D01*
X42146255Y-52654204D01*
X42178587Y-52634425D01*
X42189492Y-52606824D01*
X42177374Y-52572743D01*
X42170304Y-52563824D01*
X42138724Y-52543818D01*
X42088744Y-52532395D01*
X42017487Y-52528763D01*
X41956188Y-52528763D01*
X41820492Y-52528763D01*
X41821169Y-52494794D01*
X41824106Y-52410996D01*
X41829058Y-52346920D01*
X41837002Y-52299073D01*
X41848917Y-52263962D01*
X41865780Y-52238093D01*
X41888572Y-52217974D01*
X41918269Y-52200110D01*
X41933589Y-52193290D01*
X41986589Y-52180417D01*
X42050513Y-52175095D01*
X42116602Y-52177227D01*
X42176099Y-52186714D01*
X42220247Y-52203461D01*
X42235604Y-52213185D01*
X42270960Y-52242005D01*
X42282926Y-52266137D01*
X42280020Y-52270800D01*
X42261909Y-52287088D01*
X42232672Y-52308817D01*
X42217725Y-52318987D01*
X42192270Y-52333397D01*
X42175728Y-52334773D01*
X42160370Y-52324827D01*
X42122094Y-52304684D01*
X42070590Y-52296400D01*
X42017957Y-52302742D01*
X42016961Y-52303030D01*
X41979838Y-52319158D01*
X41961463Y-52344405D01*
X41956380Y-52386158D01*
X41956188Y-52425879D01*
X42087423Y-52430168D01*
X42108331Y-52430873D01*
X42161043Y-52433326D01*
X42196381Y-52437180D01*
X42220267Y-52443878D01*
X42238624Y-52454864D01*
X42257376Y-52471580D01*
X42288337Y-52510244D01*
X42311029Y-52567456D01*
X42313254Y-52606824D01*
X42314413Y-52627333D01*
G37*
X44732299Y-52625223D02*
X44732157Y-52626882D01*
X44716835Y-52691479D01*
X44682753Y-52740063D01*
X44628218Y-52775072D01*
X44600036Y-52783589D01*
X44551764Y-52790228D01*
X44498978Y-52791813D01*
X44451353Y-52788160D01*
X44418566Y-52779083D01*
X44398652Y-52771813D01*
X44379155Y-52779083D01*
X44372023Y-52783295D01*
X44343557Y-52790126D01*
X44305059Y-52792822D01*
X44244703Y-52792822D01*
X44244703Y-52549484D01*
X44244707Y-52528763D01*
X44383020Y-52528763D01*
X44383020Y-52577111D01*
X44387668Y-52613904D01*
X44406015Y-52646269D01*
X44416514Y-52653274D01*
X44453988Y-52664191D01*
X44500773Y-52666917D01*
X44546652Y-52661379D01*
X44581410Y-52647505D01*
X44598726Y-52629161D01*
X44609356Y-52596566D01*
X44599929Y-52570729D01*
X44568764Y-52548263D01*
X44518667Y-52533850D01*
X44452582Y-52528763D01*
X44383020Y-52528763D01*
X44244707Y-52528763D01*
X44244707Y-52528440D01*
X44244937Y-52449122D01*
X44245797Y-52390154D01*
X44247679Y-52347616D01*
X44250974Y-52317592D01*
X44256073Y-52296163D01*
X44263366Y-52279411D01*
X44273246Y-52263419D01*
X44305023Y-52225948D01*
X44350055Y-52197339D01*
X44409210Y-52181555D01*
X44487161Y-52176703D01*
X44489695Y-52176708D01*
X44543880Y-52179155D01*
X44592380Y-52185256D01*
X44625478Y-52193809D01*
X44634552Y-52198096D01*
X44663433Y-52216248D01*
X44689568Y-52237822D01*
X44706764Y-52257236D01*
X44708825Y-52268909D01*
X44704803Y-52272063D01*
X44660976Y-52305739D01*
X44631671Y-52325600D01*
X44612294Y-52333613D01*
X44598253Y-52331746D01*
X44584957Y-52321965D01*
X44560418Y-52309756D01*
X44519064Y-52301615D01*
X44472326Y-52299503D01*
X44430034Y-52303800D01*
X44402017Y-52314887D01*
X44400543Y-52316236D01*
X44387953Y-52341581D01*
X44383020Y-52379411D01*
X44383020Y-52428169D01*
X44499331Y-52428216D01*
X44552760Y-52429061D01*
X44597735Y-52432740D01*
X44629907Y-52440309D01*
X44655899Y-52452808D01*
X44661948Y-52456647D01*
X44705710Y-52498845D01*
X44728987Y-52554647D01*
X44730955Y-52596566D01*
X44732299Y-52625223D01*
G36*
X44732299Y-52625223D02*
G01*
X44732157Y-52626882D01*
X44716835Y-52691479D01*
X44682753Y-52740063D01*
X44628218Y-52775072D01*
X44600036Y-52783589D01*
X44551764Y-52790228D01*
X44498978Y-52791813D01*
X44451353Y-52788160D01*
X44418566Y-52779083D01*
X44398652Y-52771813D01*
X44379155Y-52779083D01*
X44372023Y-52783295D01*
X44343557Y-52790126D01*
X44305059Y-52792822D01*
X44244703Y-52792822D01*
X44244703Y-52549484D01*
X44244707Y-52528763D01*
X44383020Y-52528763D01*
X44383020Y-52577111D01*
X44387668Y-52613904D01*
X44406015Y-52646269D01*
X44416514Y-52653274D01*
X44453988Y-52664191D01*
X44500773Y-52666917D01*
X44546652Y-52661379D01*
X44581410Y-52647505D01*
X44598726Y-52629161D01*
X44609356Y-52596566D01*
X44599929Y-52570729D01*
X44568764Y-52548263D01*
X44518667Y-52533850D01*
X44452582Y-52528763D01*
X44383020Y-52528763D01*
X44244707Y-52528763D01*
X44244707Y-52528440D01*
X44244937Y-52449122D01*
X44245797Y-52390154D01*
X44247679Y-52347616D01*
X44250974Y-52317592D01*
X44256073Y-52296163D01*
X44263366Y-52279411D01*
X44273246Y-52263419D01*
X44305023Y-52225948D01*
X44350055Y-52197339D01*
X44409210Y-52181555D01*
X44487161Y-52176703D01*
X44489695Y-52176708D01*
X44543880Y-52179155D01*
X44592380Y-52185256D01*
X44625478Y-52193809D01*
X44634552Y-52198096D01*
X44663433Y-52216248D01*
X44689568Y-52237822D01*
X44706764Y-52257236D01*
X44708825Y-52268909D01*
X44704803Y-52272063D01*
X44660976Y-52305739D01*
X44631671Y-52325600D01*
X44612294Y-52333613D01*
X44598253Y-52331746D01*
X44584957Y-52321965D01*
X44560418Y-52309756D01*
X44519064Y-52301615D01*
X44472326Y-52299503D01*
X44430034Y-52303800D01*
X44402017Y-52314887D01*
X44400543Y-52316236D01*
X44387953Y-52341581D01*
X44383020Y-52379411D01*
X44383020Y-52428169D01*
X44499331Y-52428216D01*
X44552760Y-52429061D01*
X44597735Y-52432740D01*
X44629907Y-52440309D01*
X44655899Y-52452808D01*
X44661948Y-52456647D01*
X44705710Y-52498845D01*
X44728987Y-52554647D01*
X44730955Y-52596566D01*
X44732299Y-52625223D01*
G37*
X45300940Y-52794136D02*
X45234926Y-52790336D01*
X45168911Y-52786535D01*
X45165772Y-52585347D01*
X45164844Y-52536425D01*
X45162208Y-52462926D01*
X45157683Y-52408991D01*
X45150438Y-52370995D01*
X45139642Y-52345313D01*
X45124462Y-52328320D01*
X45104066Y-52316389D01*
X45065797Y-52304205D01*
X45027738Y-52308940D01*
X44987549Y-52334979D01*
X44948861Y-52367533D01*
X44948861Y-52792822D01*
X44810544Y-52792822D01*
X44810544Y-52562176D01*
X44810677Y-52489882D01*
X44811413Y-52425641D01*
X44813181Y-52378618D01*
X44816411Y-52344548D01*
X44821530Y-52319170D01*
X44828967Y-52298221D01*
X44839150Y-52277436D01*
X44841564Y-52273024D01*
X44873675Y-52230047D01*
X44911256Y-52200013D01*
X44956564Y-52184243D01*
X45016561Y-52177222D01*
X45076643Y-52181025D01*
X45125525Y-52195868D01*
X45162624Y-52215052D01*
X45162624Y-51799859D01*
X45111792Y-51826354D01*
X45090558Y-51835980D01*
X45023536Y-51849592D01*
X44956930Y-51840184D01*
X44895187Y-51808905D01*
X44842757Y-51756902D01*
X44834543Y-51744680D01*
X44826649Y-51726763D01*
X44821500Y-51702404D01*
X44818527Y-51666927D01*
X44817161Y-51615656D01*
X44816915Y-51562236D01*
X44949749Y-51562236D01*
X44949861Y-51606849D01*
X44953272Y-51636601D01*
X44960937Y-51657835D01*
X44973814Y-51676896D01*
X44990171Y-51694617D01*
X45016329Y-51708028D01*
X45055742Y-51711436D01*
X45090559Y-51708471D01*
X45125020Y-51693631D01*
X45147215Y-51663569D01*
X45159097Y-51615254D01*
X45162624Y-51545650D01*
X45161712Y-51508624D01*
X45152609Y-51438728D01*
X45133828Y-51391464D01*
X45105476Y-51367168D01*
X45076840Y-51360332D01*
X45026970Y-51363537D01*
X44984833Y-51383380D01*
X44974749Y-51392480D01*
X44964063Y-51408223D01*
X44957456Y-51431658D01*
X44953532Y-51468604D01*
X44950897Y-51524880D01*
X44949749Y-51562236D01*
X44816915Y-51562236D01*
X44816831Y-51543917D01*
X44816944Y-51511184D01*
X44818872Y-51435044D01*
X44824240Y-51378166D01*
X44834406Y-51336249D01*
X44850725Y-51304996D01*
X44874553Y-51280106D01*
X44907247Y-51257282D01*
X44933759Y-51244184D01*
X44996615Y-51229739D01*
X45062869Y-51231707D01*
X45121757Y-51250433D01*
X45147030Y-51262673D01*
X45159742Y-51263938D01*
X45162624Y-51252798D01*
X45162626Y-51252461D01*
X45168838Y-51241087D01*
X45190260Y-51235256D01*
X45231782Y-51233614D01*
X45300940Y-51233614D01*
X45300940Y-51545650D01*
X45300940Y-52794136D01*
G36*
X45300940Y-52794136D02*
G01*
X45234926Y-52790336D01*
X45168911Y-52786535D01*
X45165772Y-52585347D01*
X45164844Y-52536425D01*
X45162208Y-52462926D01*
X45157683Y-52408991D01*
X45150438Y-52370995D01*
X45139642Y-52345313D01*
X45124462Y-52328320D01*
X45104066Y-52316389D01*
X45065797Y-52304205D01*
X45027738Y-52308940D01*
X44987549Y-52334979D01*
X44948861Y-52367533D01*
X44948861Y-52792822D01*
X44810544Y-52792822D01*
X44810544Y-52562176D01*
X44810677Y-52489882D01*
X44811413Y-52425641D01*
X44813181Y-52378618D01*
X44816411Y-52344548D01*
X44821530Y-52319170D01*
X44828967Y-52298221D01*
X44839150Y-52277436D01*
X44841564Y-52273024D01*
X44873675Y-52230047D01*
X44911256Y-52200013D01*
X44956564Y-52184243D01*
X45016561Y-52177222D01*
X45076643Y-52181025D01*
X45125525Y-52195868D01*
X45162624Y-52215052D01*
X45162624Y-51799859D01*
X45111792Y-51826354D01*
X45090558Y-51835980D01*
X45023536Y-51849592D01*
X44956930Y-51840184D01*
X44895187Y-51808905D01*
X44842757Y-51756902D01*
X44834543Y-51744680D01*
X44826649Y-51726763D01*
X44821500Y-51702404D01*
X44818527Y-51666927D01*
X44817161Y-51615656D01*
X44816915Y-51562236D01*
X44949749Y-51562236D01*
X44949861Y-51606849D01*
X44953272Y-51636601D01*
X44960937Y-51657835D01*
X44973814Y-51676896D01*
X44990171Y-51694617D01*
X45016329Y-51708028D01*
X45055742Y-51711436D01*
X45090559Y-51708471D01*
X45125020Y-51693631D01*
X45147215Y-51663569D01*
X45159097Y-51615254D01*
X45162624Y-51545650D01*
X45161712Y-51508624D01*
X45152609Y-51438728D01*
X45133828Y-51391464D01*
X45105476Y-51367168D01*
X45076840Y-51360332D01*
X45026970Y-51363537D01*
X44984833Y-51383380D01*
X44974749Y-51392480D01*
X44964063Y-51408223D01*
X44957456Y-51431658D01*
X44953532Y-51468604D01*
X44950897Y-51524880D01*
X44949749Y-51562236D01*
X44816915Y-51562236D01*
X44816831Y-51543917D01*
X44816944Y-51511184D01*
X44818872Y-51435044D01*
X44824240Y-51378166D01*
X44834406Y-51336249D01*
X44850725Y-51304996D01*
X44874553Y-51280106D01*
X44907247Y-51257282D01*
X44933759Y-51244184D01*
X44996615Y-51229739D01*
X45062869Y-51231707D01*
X45121757Y-51250433D01*
X45147030Y-51262673D01*
X45159742Y-51263938D01*
X45162624Y-51252798D01*
X45162626Y-51252461D01*
X45168838Y-51241087D01*
X45190260Y-51235256D01*
X45231782Y-51233614D01*
X45300940Y-51233614D01*
X45300940Y-51545650D01*
X45300940Y-52794136D01*
G37*
X43389389Y-47065018D02*
X43446237Y-47366570D01*
X43656001Y-47453041D01*
X43865764Y-47539512D01*
X44117410Y-47368395D01*
X44167216Y-47334661D01*
X44233244Y-47290381D01*
X44290410Y-47252561D01*
X44335744Y-47223142D01*
X44366280Y-47204067D01*
X44379046Y-47197278D01*
X44386887Y-47202106D01*
X44410325Y-47222339D01*
X44445794Y-47255543D01*
X44490289Y-47298670D01*
X44540805Y-47348670D01*
X44594336Y-47402495D01*
X44647877Y-47457095D01*
X44698423Y-47509423D01*
X44742968Y-47556428D01*
X44778507Y-47595063D01*
X44802034Y-47622278D01*
X44810544Y-47635024D01*
X44808565Y-47640500D01*
X44794857Y-47664927D01*
X44769825Y-47705129D01*
X44735499Y-47757952D01*
X44693907Y-47820247D01*
X44647079Y-47888862D01*
X44621380Y-47926283D01*
X44577173Y-47991432D01*
X44539272Y-48048289D01*
X44509698Y-48093770D01*
X44490472Y-48124793D01*
X44483614Y-48138274D01*
X44483726Y-48139021D01*
X44489776Y-48156110D01*
X44503654Y-48191006D01*
X44523427Y-48239151D01*
X44547160Y-48295986D01*
X44572918Y-48356953D01*
X44598766Y-48417492D01*
X44622771Y-48473047D01*
X44642998Y-48519057D01*
X44657511Y-48550965D01*
X44664377Y-48564212D01*
X44668439Y-48565387D01*
X44693121Y-48570687D01*
X44737111Y-48579467D01*
X44796887Y-48591040D01*
X44868929Y-48604721D01*
X44949716Y-48619823D01*
X44992294Y-48627830D01*
X45070445Y-48643107D01*
X45138775Y-48657215D01*
X45193551Y-48669345D01*
X45231037Y-48678686D01*
X45247500Y-48684427D01*
X45250457Y-48690119D01*
X45255362Y-48717930D01*
X45259216Y-48764250D01*
X45262021Y-48824720D01*
X45263781Y-48894983D01*
X45264499Y-48970680D01*
X45264177Y-49047453D01*
X45262819Y-49120944D01*
X45260428Y-49186794D01*
X45257006Y-49240645D01*
X45252556Y-49278138D01*
X45247082Y-49294916D01*
X45243760Y-49296809D01*
X45218987Y-49304926D01*
X45176011Y-49315666D01*
X45119802Y-49327853D01*
X45055325Y-49340310D01*
X45033570Y-49344277D01*
X44933093Y-49362729D01*
X44854126Y-49377559D01*
X44793934Y-49389380D01*
X44749778Y-49398809D01*
X44718920Y-49406460D01*
X44698625Y-49412948D01*
X44686154Y-49418888D01*
X44678771Y-49424894D01*
X44677913Y-49425902D01*
X44665838Y-49446919D01*
X44647971Y-49485376D01*
X44626042Y-49536761D01*
X44601784Y-49596563D01*
X44576927Y-49660270D01*
X44553205Y-49723371D01*
X44532347Y-49781355D01*
X44516087Y-49829709D01*
X44506156Y-49863922D01*
X44504285Y-49879483D01*
X44505536Y-49881502D01*
X44518486Y-49901028D01*
X44542840Y-49937042D01*
X44576340Y-49986228D01*
X44616727Y-50045267D01*
X44661745Y-50110842D01*
X44674100Y-50128884D01*
X44717545Y-50193599D01*
X44755091Y-50251476D01*
X44784594Y-50299082D01*
X44803914Y-50332985D01*
X44810905Y-50349752D01*
X44809398Y-50354161D01*
X44793695Y-50375882D01*
X44762714Y-50411354D01*
X44718673Y-50458188D01*
X44663790Y-50513996D01*
X44600286Y-50576392D01*
X44563988Y-50611317D01*
X44506595Y-50665711D01*
X44456361Y-50712302D01*
X44415984Y-50748636D01*
X44388161Y-50772261D01*
X44375590Y-50780724D01*
X44366952Y-50777587D01*
X44340360Y-50762747D01*
X44301741Y-50738477D01*
X44256134Y-50707852D01*
X44223707Y-50685503D01*
X44158970Y-50641122D01*
X44089886Y-50593987D01*
X44026787Y-50551155D01*
X43903178Y-50467547D01*
X43799417Y-50523650D01*
X43774984Y-50536599D01*
X43730552Y-50558749D01*
X43696191Y-50574041D01*
X43677828Y-50579743D01*
X43671818Y-50572421D01*
X43656895Y-50544541D01*
X43634852Y-50498575D01*
X43606917Y-50437441D01*
X43574317Y-50364055D01*
X43538276Y-50281335D01*
X43500023Y-50192197D01*
X43460783Y-50099559D01*
X43421783Y-50006337D01*
X43384249Y-49915450D01*
X43349409Y-49829814D01*
X43318488Y-49752345D01*
X43292714Y-49685962D01*
X43273311Y-49633582D01*
X43261508Y-49598121D01*
X43258531Y-49582496D01*
X43258732Y-49582039D01*
X43272601Y-49567595D01*
X43301611Y-49544974D01*
X43339772Y-49518864D01*
X43351817Y-49510892D01*
X43443469Y-49435256D01*
X43519323Y-49345169D01*
X43577581Y-49244381D01*
X43616448Y-49136640D01*
X43634128Y-49025697D01*
X43628826Y-48915303D01*
X43607347Y-48817115D01*
X43568782Y-48717966D01*
X43512562Y-48629512D01*
X43435410Y-48545487D01*
X43405095Y-48518645D01*
X43307094Y-48452510D01*
X43201227Y-48407970D01*
X43090561Y-48384625D01*
X42978164Y-48382078D01*
X42867105Y-48399929D01*
X42760451Y-48437780D01*
X42661270Y-48495232D01*
X42572631Y-48571887D01*
X42497600Y-48667345D01*
X42483175Y-48690985D01*
X42434143Y-48799034D01*
X42408103Y-48911548D01*
X42404372Y-49025614D01*
X42422268Y-49138318D01*
X42461109Y-49246745D01*
X42520214Y-49347982D01*
X42598900Y-49439114D01*
X42696485Y-49517228D01*
X42699654Y-49519333D01*
X42737411Y-49545940D01*
X42765709Y-49568561D01*
X42778634Y-49582496D01*
X42777003Y-49593421D01*
X42766864Y-49625231D01*
X42748884Y-49674534D01*
X42724292Y-49738413D01*
X42694311Y-49813948D01*
X42660170Y-49898223D01*
X42623092Y-49988320D01*
X42584306Y-50081321D01*
X42545036Y-50174308D01*
X42506509Y-50264364D01*
X42469950Y-50348571D01*
X42436586Y-50424010D01*
X42407643Y-50487765D01*
X42384346Y-50536917D01*
X42367923Y-50568549D01*
X42359598Y-50579743D01*
X42352674Y-50578227D01*
X42325477Y-50567331D01*
X42285280Y-50548228D01*
X42238009Y-50523650D01*
X42134248Y-50467547D01*
X42010639Y-50551155D01*
X41974120Y-50575913D01*
X41906194Y-50622171D01*
X41838475Y-50668503D01*
X41781291Y-50707852D01*
X41749732Y-50729297D01*
X41708714Y-50755939D01*
X41678301Y-50774178D01*
X41663446Y-50780941D01*
X41657065Y-50778070D01*
X41633996Y-50760485D01*
X41598433Y-50729523D01*
X41553471Y-50688231D01*
X41502206Y-50639653D01*
X41447733Y-50586835D01*
X41393148Y-50532823D01*
X41341547Y-50480661D01*
X41296024Y-50433396D01*
X41259675Y-50394072D01*
X41235595Y-50365736D01*
X41226881Y-50351432D01*
X41227383Y-50348711D01*
X41237755Y-50326560D01*
X41259912Y-50288235D01*
X41291712Y-50237200D01*
X41331016Y-50176914D01*
X41375681Y-50110842D01*
X41388207Y-50092617D01*
X41432193Y-50028485D01*
X41470937Y-49971789D01*
X41502182Y-49925844D01*
X41523669Y-49893970D01*
X41533140Y-49879483D01*
X41533373Y-49878862D01*
X41530578Y-49861139D01*
X41519903Y-49825235D01*
X41503081Y-49775662D01*
X41481843Y-49716932D01*
X41457921Y-49653556D01*
X41433046Y-49590046D01*
X41408950Y-49530913D01*
X41387365Y-49480669D01*
X41370023Y-49443826D01*
X41358655Y-49424894D01*
X41357516Y-49423719D01*
X41349376Y-49417773D01*
X41335629Y-49411776D01*
X41313537Y-49405114D01*
X41280363Y-49397173D01*
X41233370Y-49387337D01*
X41169820Y-49374991D01*
X41086976Y-49359520D01*
X40982100Y-49340310D01*
X40960348Y-49336267D01*
X40898036Y-49323769D01*
X40845619Y-49311927D01*
X40808066Y-49301917D01*
X40790343Y-49294916D01*
X40787378Y-49289075D01*
X40782435Y-49261016D01*
X40778518Y-49214500D01*
X40775629Y-49153886D01*
X40773773Y-49083532D01*
X40772952Y-49007796D01*
X40773168Y-48931037D01*
X40774426Y-48857612D01*
X40776728Y-48791880D01*
X40780076Y-48738200D01*
X40784474Y-48700930D01*
X40789926Y-48684427D01*
X40795491Y-48681989D01*
X40823178Y-48674305D01*
X40869979Y-48663436D01*
X40932157Y-48650192D01*
X41005979Y-48635384D01*
X41087710Y-48619823D01*
X41132336Y-48611509D01*
X41208824Y-48597092D01*
X41274660Y-48584467D01*
X41326323Y-48574321D01*
X41360293Y-48567341D01*
X41373048Y-48564212D01*
X41373528Y-48563568D01*
X41381651Y-48547181D01*
X41397137Y-48512852D01*
X41418050Y-48465136D01*
X41442455Y-48408586D01*
X41468416Y-48347758D01*
X41493997Y-48287206D01*
X41517262Y-48231485D01*
X41536277Y-48185150D01*
X41549105Y-48152755D01*
X41553812Y-48138855D01*
X41551736Y-48133965D01*
X41537920Y-48110692D01*
X41512860Y-48071519D01*
X41478568Y-48019520D01*
X41437059Y-47957768D01*
X41390346Y-47889336D01*
X41364718Y-47851860D01*
X41320490Y-47786156D01*
X41282570Y-47728492D01*
X41252980Y-47682014D01*
X41233743Y-47649865D01*
X41226881Y-47635190D01*
X41231649Y-47627230D01*
X41251593Y-47603446D01*
X41284313Y-47567451D01*
X41326805Y-47522295D01*
X41376065Y-47471028D01*
X41429091Y-47416701D01*
X41482877Y-47362364D01*
X41534421Y-47311067D01*
X41580720Y-47265859D01*
X41618769Y-47229792D01*
X41645565Y-47205914D01*
X41658105Y-47197278D01*
X41665066Y-47200636D01*
X41690627Y-47216210D01*
X41731874Y-47242715D01*
X41785837Y-47278210D01*
X41849542Y-47320750D01*
X41920016Y-47368395D01*
X42171662Y-47539512D01*
X42591188Y-47366570D01*
X42648036Y-47065018D01*
X42704885Y-46763466D01*
X43332540Y-46763466D01*
X43389389Y-47065018D01*
G36*
X43389389Y-47065018D02*
G01*
X43446237Y-47366570D01*
X43656001Y-47453041D01*
X43865764Y-47539512D01*
X44117410Y-47368395D01*
X44167216Y-47334661D01*
X44233244Y-47290381D01*
X44290410Y-47252561D01*
X44335744Y-47223142D01*
X44366280Y-47204067D01*
X44379046Y-47197278D01*
X44386887Y-47202106D01*
X44410325Y-47222339D01*
X44445794Y-47255543D01*
X44490289Y-47298670D01*
X44540805Y-47348670D01*
X44594336Y-47402495D01*
X44647877Y-47457095D01*
X44698423Y-47509423D01*
X44742968Y-47556428D01*
X44778507Y-47595063D01*
X44802034Y-47622278D01*
X44810544Y-47635024D01*
X44808565Y-47640500D01*
X44794857Y-47664927D01*
X44769825Y-47705129D01*
X44735499Y-47757952D01*
X44693907Y-47820247D01*
X44647079Y-47888862D01*
X44621380Y-47926283D01*
X44577173Y-47991432D01*
X44539272Y-48048289D01*
X44509698Y-48093770D01*
X44490472Y-48124793D01*
X44483614Y-48138274D01*
X44483726Y-48139021D01*
X44489776Y-48156110D01*
X44503654Y-48191006D01*
X44523427Y-48239151D01*
X44547160Y-48295986D01*
X44572918Y-48356953D01*
X44598766Y-48417492D01*
X44622771Y-48473047D01*
X44642998Y-48519057D01*
X44657511Y-48550965D01*
X44664377Y-48564212D01*
X44668439Y-48565387D01*
X44693121Y-48570687D01*
X44737111Y-48579467D01*
X44796887Y-48591040D01*
X44868929Y-48604721D01*
X44949716Y-48619823D01*
X44992294Y-48627830D01*
X45070445Y-48643107D01*
X45138775Y-48657215D01*
X45193551Y-48669345D01*
X45231037Y-48678686D01*
X45247500Y-48684427D01*
X45250457Y-48690119D01*
X45255362Y-48717930D01*
X45259216Y-48764250D01*
X45262021Y-48824720D01*
X45263781Y-48894983D01*
X45264499Y-48970680D01*
X45264177Y-49047453D01*
X45262819Y-49120944D01*
X45260428Y-49186794D01*
X45257006Y-49240645D01*
X45252556Y-49278138D01*
X45247082Y-49294916D01*
X45243760Y-49296809D01*
X45218987Y-49304926D01*
X45176011Y-49315666D01*
X45119802Y-49327853D01*
X45055325Y-49340310D01*
X45033570Y-49344277D01*
X44933093Y-49362729D01*
X44854126Y-49377559D01*
X44793934Y-49389380D01*
X44749778Y-49398809D01*
X44718920Y-49406460D01*
X44698625Y-49412948D01*
X44686154Y-49418888D01*
X44678771Y-49424894D01*
X44677913Y-49425902D01*
X44665838Y-49446919D01*
X44647971Y-49485376D01*
X44626042Y-49536761D01*
X44601784Y-49596563D01*
X44576927Y-49660270D01*
X44553205Y-49723371D01*
X44532347Y-49781355D01*
X44516087Y-49829709D01*
X44506156Y-49863922D01*
X44504285Y-49879483D01*
X44505536Y-49881502D01*
X44518486Y-49901028D01*
X44542840Y-49937042D01*
X44576340Y-49986228D01*
X44616727Y-50045267D01*
X44661745Y-50110842D01*
X44674100Y-50128884D01*
X44717545Y-50193599D01*
X44755091Y-50251476D01*
X44784594Y-50299082D01*
X44803914Y-50332985D01*
X44810905Y-50349752D01*
X44809398Y-50354161D01*
X44793695Y-50375882D01*
X44762714Y-50411354D01*
X44718673Y-50458188D01*
X44663790Y-50513996D01*
X44600286Y-50576392D01*
X44563988Y-50611317D01*
X44506595Y-50665711D01*
X44456361Y-50712302D01*
X44415984Y-50748636D01*
X44388161Y-50772261D01*
X44375590Y-50780724D01*
X44366952Y-50777587D01*
X44340360Y-50762747D01*
X44301741Y-50738477D01*
X44256134Y-50707852D01*
X44223707Y-50685503D01*
X44158970Y-50641122D01*
X44089886Y-50593987D01*
X44026787Y-50551155D01*
X43903178Y-50467547D01*
X43799417Y-50523650D01*
X43774984Y-50536599D01*
X43730552Y-50558749D01*
X43696191Y-50574041D01*
X43677828Y-50579743D01*
X43671818Y-50572421D01*
X43656895Y-50544541D01*
X43634852Y-50498575D01*
X43606917Y-50437441D01*
X43574317Y-50364055D01*
X43538276Y-50281335D01*
X43500023Y-50192197D01*
X43460783Y-50099559D01*
X43421783Y-50006337D01*
X43384249Y-49915450D01*
X43349409Y-49829814D01*
X43318488Y-49752345D01*
X43292714Y-49685962D01*
X43273311Y-49633582D01*
X43261508Y-49598121D01*
X43258531Y-49582496D01*
X43258732Y-49582039D01*
X43272601Y-49567595D01*
X43301611Y-49544974D01*
X43339772Y-49518864D01*
X43351817Y-49510892D01*
X43443469Y-49435256D01*
X43519323Y-49345169D01*
X43577581Y-49244381D01*
X43616448Y-49136640D01*
X43634128Y-49025697D01*
X43628826Y-48915303D01*
X43607347Y-48817115D01*
X43568782Y-48717966D01*
X43512562Y-48629512D01*
X43435410Y-48545487D01*
X43405095Y-48518645D01*
X43307094Y-48452510D01*
X43201227Y-48407970D01*
X43090561Y-48384625D01*
X42978164Y-48382078D01*
X42867105Y-48399929D01*
X42760451Y-48437780D01*
X42661270Y-48495232D01*
X42572631Y-48571887D01*
X42497600Y-48667345D01*
X42483175Y-48690985D01*
X42434143Y-48799034D01*
X42408103Y-48911548D01*
X42404372Y-49025614D01*
X42422268Y-49138318D01*
X42461109Y-49246745D01*
X42520214Y-49347982D01*
X42598900Y-49439114D01*
X42696485Y-49517228D01*
X42699654Y-49519333D01*
X42737411Y-49545940D01*
X42765709Y-49568561D01*
X42778634Y-49582496D01*
X42777003Y-49593421D01*
X42766864Y-49625231D01*
X42748884Y-49674534D01*
X42724292Y-49738413D01*
X42694311Y-49813948D01*
X42660170Y-49898223D01*
X42623092Y-49988320D01*
X42584306Y-50081321D01*
X42545036Y-50174308D01*
X42506509Y-50264364D01*
X42469950Y-50348571D01*
X42436586Y-50424010D01*
X42407643Y-50487765D01*
X42384346Y-50536917D01*
X42367923Y-50568549D01*
X42359598Y-50579743D01*
X42352674Y-50578227D01*
X42325477Y-50567331D01*
X42285280Y-50548228D01*
X42238009Y-50523650D01*
X42134248Y-50467547D01*
X42010639Y-50551155D01*
X41974120Y-50575913D01*
X41906194Y-50622171D01*
X41838475Y-50668503D01*
X41781291Y-50707852D01*
X41749732Y-50729297D01*
X41708714Y-50755939D01*
X41678301Y-50774178D01*
X41663446Y-50780941D01*
X41657065Y-50778070D01*
X41633996Y-50760485D01*
X41598433Y-50729523D01*
X41553471Y-50688231D01*
X41502206Y-50639653D01*
X41447733Y-50586835D01*
X41393148Y-50532823D01*
X41341547Y-50480661D01*
X41296024Y-50433396D01*
X41259675Y-50394072D01*
X41235595Y-50365736D01*
X41226881Y-50351432D01*
X41227383Y-50348711D01*
X41237755Y-50326560D01*
X41259912Y-50288235D01*
X41291712Y-50237200D01*
X41331016Y-50176914D01*
X41375681Y-50110842D01*
X41388207Y-50092617D01*
X41432193Y-50028485D01*
X41470937Y-49971789D01*
X41502182Y-49925844D01*
X41523669Y-49893970D01*
X41533140Y-49879483D01*
X41533373Y-49878862D01*
X41530578Y-49861139D01*
X41519903Y-49825235D01*
X41503081Y-49775662D01*
X41481843Y-49716932D01*
X41457921Y-49653556D01*
X41433046Y-49590046D01*
X41408950Y-49530913D01*
X41387365Y-49480669D01*
X41370023Y-49443826D01*
X41358655Y-49424894D01*
X41357516Y-49423719D01*
X41349376Y-49417773D01*
X41335629Y-49411776D01*
X41313537Y-49405114D01*
X41280363Y-49397173D01*
X41233370Y-49387337D01*
X41169820Y-49374991D01*
X41086976Y-49359520D01*
X40982100Y-49340310D01*
X40960348Y-49336267D01*
X40898036Y-49323769D01*
X40845619Y-49311927D01*
X40808066Y-49301917D01*
X40790343Y-49294916D01*
X40787378Y-49289075D01*
X40782435Y-49261016D01*
X40778518Y-49214500D01*
X40775629Y-49153886D01*
X40773773Y-49083532D01*
X40772952Y-49007796D01*
X40773168Y-48931037D01*
X40774426Y-48857612D01*
X40776728Y-48791880D01*
X40780076Y-48738200D01*
X40784474Y-48700930D01*
X40789926Y-48684427D01*
X40795491Y-48681989D01*
X40823178Y-48674305D01*
X40869979Y-48663436D01*
X40932157Y-48650192D01*
X41005979Y-48635384D01*
X41087710Y-48619823D01*
X41132336Y-48611509D01*
X41208824Y-48597092D01*
X41274660Y-48584467D01*
X41326323Y-48574321D01*
X41360293Y-48567341D01*
X41373048Y-48564212D01*
X41373528Y-48563568D01*
X41381651Y-48547181D01*
X41397137Y-48512852D01*
X41418050Y-48465136D01*
X41442455Y-48408586D01*
X41468416Y-48347758D01*
X41493997Y-48287206D01*
X41517262Y-48231485D01*
X41536277Y-48185150D01*
X41549105Y-48152755D01*
X41553812Y-48138855D01*
X41551736Y-48133965D01*
X41537920Y-48110692D01*
X41512860Y-48071519D01*
X41478568Y-48019520D01*
X41437059Y-47957768D01*
X41390346Y-47889336D01*
X41364718Y-47851860D01*
X41320490Y-47786156D01*
X41282570Y-47728492D01*
X41252980Y-47682014D01*
X41233743Y-47649865D01*
X41226881Y-47635190D01*
X41231649Y-47627230D01*
X41251593Y-47603446D01*
X41284313Y-47567451D01*
X41326805Y-47522295D01*
X41376065Y-47471028D01*
X41429091Y-47416701D01*
X41482877Y-47362364D01*
X41534421Y-47311067D01*
X41580720Y-47265859D01*
X41618769Y-47229792D01*
X41645565Y-47205914D01*
X41658105Y-47197278D01*
X41665066Y-47200636D01*
X41690627Y-47216210D01*
X41731874Y-47242715D01*
X41785837Y-47278210D01*
X41849542Y-47320750D01*
X41920016Y-47368395D01*
X42171662Y-47539512D01*
X42591188Y-47366570D01*
X42648036Y-47065018D01*
X42704885Y-46763466D01*
X43332540Y-46763466D01*
X43389389Y-47065018D01*
G37*
%TD*%
M02*
