%TF.GenerationSoftware,KiCad,Pcbnew,9.0.4*%
%TF.CreationDate,2026-06-11T12:07:44+05:30*%
%TF.ProjectId,ZAP-010A,5a41502d-3031-4304-912e-6b696361645f,rev?*%
%TF.SameCoordinates,Original*%
%TF.FileFunction,Copper,L1,Top*%
%TF.FilePolarity,Positive*%
%FSLAX46Y46*%
G04 Gerber Fmt 4.6, Leading zero omitted, Abs format (unit mm)*
G04 Created by KiCad (PCBNEW 9.0.4) date 2026-06-11 12:07:44*
%MOMM*%
%LPD*%
G01*
G04 APERTURE LIST*
G04 Aperture macros list*
%AMRoundRect*
0 Rectangle with rounded corners*
0 $1 Rounding radius*
0 $2 $3 $4 $5 $6 $7 $8 $9 X,Y pos of 4 corners*
0 Add a 4 corners polygon primitive as box body*
4,1,4,$2,$3,$4,$5,$6,$7,$8,$9,$2,$3,0*
0 Add four circle primitives for the rounded corners*
1,1,$1+$1,$2,$3*
1,1,$1+$1,$4,$5*
1,1,$1+$1,$6,$7*
1,1,$1+$1,$8,$9*
0 Add four rect primitives between the rounded corners*
20,1,$1+$1,$2,$3,$4,$5,0*
20,1,$1+$1,$4,$5,$6,$7,0*
20,1,$1+$1,$6,$7,$8,$9,0*
20,1,$1+$1,$8,$9,$2,$3,0*%
G04 Aperture macros list end*
%TA.AperFunction,HeatsinkPad*%
%ADD10C,0.600000*%
%TD*%
%TA.AperFunction,HeatsinkPad*%
%ADD11R,3.900000X3.900000*%
%TD*%
%TA.AperFunction,SMDPad,CuDef*%
%ADD12R,1.500000X0.900000*%
%TD*%
%TA.AperFunction,SMDPad,CuDef*%
%ADD13R,0.900000X1.500000*%
%TD*%
%TA.AperFunction,ComponentPad*%
%ADD14C,2.500000*%
%TD*%
%TA.AperFunction,ComponentPad*%
%ADD15RoundRect,0.250000X1.000000X-1.000000X1.000000X1.000000X-1.000000X1.000000X-1.000000X-1.000000X0*%
%TD*%
%TA.AperFunction,SMDPad,CuDef*%
%ADD16RoundRect,0.250000X0.250000X0.475000X-0.250000X0.475000X-0.250000X-0.475000X0.250000X-0.475000X0*%
%TD*%
%TA.AperFunction,SMDPad,CuDef*%
%ADD17RoundRect,0.200000X-0.275000X0.200000X-0.275000X-0.200000X0.275000X-0.200000X0.275000X0.200000X0*%
%TD*%
%TA.AperFunction,SMDPad,CuDef*%
%ADD18R,2.311400X2.311400*%
%TD*%
%TA.AperFunction,SMDPad,CuDef*%
%ADD19RoundRect,0.225000X0.250000X-0.225000X0.250000X0.225000X-0.250000X0.225000X-0.250000X-0.225000X0*%
%TD*%
%TA.AperFunction,SMDPad,CuDef*%
%ADD20RoundRect,0.200000X-0.200000X-0.275000X0.200000X-0.275000X0.200000X0.275000X-0.200000X0.275000X0*%
%TD*%
%TA.AperFunction,SMDPad,CuDef*%
%ADD21RoundRect,0.150000X-0.875000X-0.150000X0.875000X-0.150000X0.875000X0.150000X-0.875000X0.150000X0*%
%TD*%
%TA.AperFunction,SMDPad,CuDef*%
%ADD22RoundRect,0.200000X0.200000X0.275000X-0.200000X0.275000X-0.200000X-0.275000X0.200000X-0.275000X0*%
%TD*%
%TA.AperFunction,SMDPad,CuDef*%
%ADD23RoundRect,0.093750X-0.156250X-0.093750X0.156250X-0.093750X0.156250X0.093750X-0.156250X0.093750X0*%
%TD*%
%TA.AperFunction,SMDPad,CuDef*%
%ADD24RoundRect,0.075000X-0.250000X-0.075000X0.250000X-0.075000X0.250000X0.075000X-0.250000X0.075000X0*%
%TD*%
%TA.AperFunction,ComponentPad*%
%ADD25C,1.800000*%
%TD*%
%TA.AperFunction,SMDPad,CuDef*%
%ADD26C,1.500000*%
%TD*%
%TA.AperFunction,SMDPad,CuDef*%
%ADD27RoundRect,0.218750X-0.256250X0.218750X-0.256250X-0.218750X0.256250X-0.218750X0.256250X0.218750X0*%
%TD*%
%TA.AperFunction,SMDPad,CuDef*%
%ADD28R,4.300000X2.300000*%
%TD*%
%TA.AperFunction,SMDPad,CuDef*%
%ADD29R,3.660000X2.300000*%
%TD*%
%TA.AperFunction,SMDPad,CuDef*%
%ADD30RoundRect,0.150000X0.150000X-0.587500X0.150000X0.587500X-0.150000X0.587500X-0.150000X-0.587500X0*%
%TD*%
%TA.AperFunction,SMDPad,CuDef*%
%ADD31RoundRect,0.225000X-0.225000X-0.250000X0.225000X-0.250000X0.225000X0.250000X-0.225000X0.250000X0*%
%TD*%
%TA.AperFunction,SMDPad,CuDef*%
%ADD32RoundRect,0.250000X-0.250000X-0.475000X0.250000X-0.475000X0.250000X0.475000X-0.250000X0.475000X0*%
%TD*%
%TA.AperFunction,SMDPad,CuDef*%
%ADD33RoundRect,0.375000X-0.375000X0.625000X-0.375000X-0.625000X0.375000X-0.625000X0.375000X0.625000X0*%
%TD*%
%TA.AperFunction,SMDPad,CuDef*%
%ADD34RoundRect,0.500000X-1.400000X0.500000X-1.400000X-0.500000X1.400000X-0.500000X1.400000X0.500000X0*%
%TD*%
%TA.AperFunction,ComponentPad*%
%ADD35RoundRect,0.250000X0.600000X0.750000X-0.600000X0.750000X-0.600000X-0.750000X0.600000X-0.750000X0*%
%TD*%
%TA.AperFunction,ComponentPad*%
%ADD36O,1.700000X2.000000*%
%TD*%
%TA.AperFunction,SMDPad,CuDef*%
%ADD37RoundRect,0.225000X-0.225000X-0.375000X0.225000X-0.375000X0.225000X0.375000X-0.225000X0.375000X0*%
%TD*%
%TA.AperFunction,SMDPad,CuDef*%
%ADD38C,0.750000*%
%TD*%
%TA.AperFunction,SMDPad,CuDef*%
%ADD39RoundRect,0.200000X0.275000X-0.200000X0.275000X0.200000X-0.275000X0.200000X-0.275000X-0.200000X0*%
%TD*%
%TA.AperFunction,ComponentPad*%
%ADD40R,1.700000X1.700000*%
%TD*%
%TA.AperFunction,ComponentPad*%
%ADD41C,1.700000*%
%TD*%
%TA.AperFunction,ComponentPad*%
%ADD42C,2.000000*%
%TD*%
%TA.AperFunction,SMDPad,CuDef*%
%ADD43RoundRect,0.225000X0.225000X0.250000X-0.225000X0.250000X-0.225000X-0.250000X0.225000X-0.250000X0*%
%TD*%
%TA.AperFunction,SMDPad,CuDef*%
%ADD44RoundRect,0.150000X-0.500000X0.150000X-0.500000X-0.150000X0.500000X-0.150000X0.500000X0.150000X0*%
%TD*%
%TA.AperFunction,SMDPad,CuDef*%
%ADD45RoundRect,0.075000X-0.575000X0.075000X-0.575000X-0.075000X0.575000X-0.075000X0.575000X0.075000X0*%
%TD*%
%TA.AperFunction,HeatsinkPad*%
%ADD46O,2.100000X1.000000*%
%TD*%
%TA.AperFunction,HeatsinkPad*%
%ADD47O,1.600000X1.000000*%
%TD*%
%TA.AperFunction,SMDPad,CuDef*%
%ADD48RoundRect,0.225000X0.225000X0.375000X-0.225000X0.375000X-0.225000X-0.375000X0.225000X-0.375000X0*%
%TD*%
%TA.AperFunction,ComponentPad*%
%ADD49R,1.800000X1.800000*%
%TD*%
%TA.AperFunction,SMDPad,CuDef*%
%ADD50RoundRect,0.200000X0.800000X-0.200000X0.800000X0.200000X-0.800000X0.200000X-0.800000X-0.200000X0*%
%TD*%
%TA.AperFunction,SMDPad,CuDef*%
%ADD51RoundRect,0.225000X-0.250000X0.225000X-0.250000X-0.225000X0.250000X-0.225000X0.250000X0.225000X0*%
%TD*%
%TA.AperFunction,SMDPad,CuDef*%
%ADD52RoundRect,0.250000X1.000000X-1.500000X1.000000X1.500000X-1.000000X1.500000X-1.000000X-1.500000X0*%
%TD*%
%TA.AperFunction,SMDPad,CuDef*%
%ADD53RoundRect,0.150000X-0.587500X-0.150000X0.587500X-0.150000X0.587500X0.150000X-0.587500X0.150000X0*%
%TD*%
%TA.AperFunction,SMDPad,CuDef*%
%ADD54RoundRect,0.225000X0.375000X-0.225000X0.375000X0.225000X-0.375000X0.225000X-0.375000X-0.225000X0*%
%TD*%
%TA.AperFunction,ComponentPad*%
%ADD55C,1.600000*%
%TD*%
%TA.AperFunction,ComponentPad*%
%ADD56R,3.000000X3.000000*%
%TD*%
%TA.AperFunction,ComponentPad*%
%ADD57C,3.000000*%
%TD*%
%TA.AperFunction,SMDPad,CuDef*%
%ADD58RoundRect,0.250000X0.475000X-0.250000X0.475000X0.250000X-0.475000X0.250000X-0.475000X-0.250000X0*%
%TD*%
%TA.AperFunction,ViaPad*%
%ADD59C,0.300000*%
%TD*%
%TA.AperFunction,ViaPad*%
%ADD60C,0.450000*%
%TD*%
%TA.AperFunction,ViaPad*%
%ADD61C,0.600000*%
%TD*%
%TA.AperFunction,Conductor*%
%ADD62C,0.200000*%
%TD*%
%TA.AperFunction,Conductor*%
%ADD63C,0.300000*%
%TD*%
%TA.AperFunction,Conductor*%
%ADD64C,0.500000*%
%TD*%
%TA.AperFunction,Conductor*%
%ADD65C,2.000000*%
%TD*%
G04 APERTURE END LIST*
D10*
%TO.P,U2,41,GND*%
%TO.N,GND*%
X78050000Y-56520000D03*
X78050000Y-55120000D03*
X77350000Y-57220000D03*
X77350000Y-55820000D03*
X77350000Y-54420000D03*
X76650000Y-56520000D03*
D11*
X76650000Y-55820000D03*
D10*
X76650000Y-55120000D03*
X75950000Y-57220000D03*
X75950000Y-55820000D03*
X75950000Y-54420000D03*
X75250000Y-56520000D03*
X75250000Y-55120000D03*
D12*
%TO.P,U2,40,GND*%
X86900000Y-48100000D03*
%TO.P,U2,39,IO1*%
%TO.N,BUZZ{slash}IO1*%
X86900000Y-49370000D03*
%TO.P,U2,38,IO2*%
%TO.N,RELAY{slash}IO2*%
X86900000Y-50640000D03*
%TO.P,U2,37,TXD0*%
%TO.N,Net-(U2-TXD0)*%
X86900000Y-51910000D03*
%TO.P,U2,36,RXD0*%
%TO.N,Net-(U2-RXD0)*%
X86900000Y-53180000D03*
%TO.P,U2,35,IO42*%
%TO.N,unconnected-(U2-IO42-Pad35)*%
X86900000Y-54450000D03*
%TO.P,U2,34,IO41*%
%TO.N,unconnected-(U2-IO41-Pad34)*%
X86900000Y-55720000D03*
%TO.P,U2,33,IO40*%
%TO.N,unconnected-(U2-IO40-Pad33)*%
X86900000Y-56990000D03*
%TO.P,U2,32,IO39*%
%TO.N,unconnected-(U2-IO39-Pad32)*%
X86900000Y-58260000D03*
%TO.P,U2,31,IO38*%
%TO.N,unconnected-(U2-IO38-Pad31)*%
X86900000Y-59530000D03*
%TO.P,U2,30,IO37*%
%TO.N,unconnected-(U2-IO37-Pad30)*%
X86900000Y-60800000D03*
%TO.P,U2,29,IO36*%
%TO.N,unconnected-(U2-IO36-Pad29)*%
X86900000Y-62070000D03*
%TO.P,U2,28,IO35*%
%TO.N,unconnected-(U2-IO35-Pad28)*%
X86900000Y-63340000D03*
%TO.P,U2,27,IO0*%
%TO.N,BOOT*%
X86900000Y-64610000D03*
D13*
%TO.P,U2,26,IO45*%
%TO.N,unconnected-(U2-IO45-Pad26)*%
X85135000Y-65860000D03*
%TO.P,U2,25,IO48*%
%TO.N,unconnected-(U2-IO48-Pad25)*%
X83865000Y-65860000D03*
%TO.P,U2,24,IO47*%
%TO.N,unconnected-(U2-IO47-Pad24)*%
X82595000Y-65860000D03*
%TO.P,U2,23,IO21*%
%TO.N,unconnected-(U2-IO21-Pad23)*%
X81325000Y-65860000D03*
%TO.P,U2,22,IO14*%
%TO.N,SW4{slash}IO14*%
X80055000Y-65860000D03*
%TO.P,U2,21,IO13*%
%TO.N,SW3{slash}IO13*%
X78785000Y-65860000D03*
%TO.P,U2,20,IO12*%
%TO.N,SW2{slash}IO12*%
X77515000Y-65860000D03*
%TO.P,U2,19,IO11*%
%TO.N,SW1{slash}IO11*%
X76245000Y-65860000D03*
%TO.P,U2,18,IO10*%
%TO.N,unconnected-(U2-IO10-Pad18)*%
X74975000Y-65860000D03*
%TO.P,U2,17,IO9*%
%TO.N,SCL{slash}IO9*%
X73705000Y-65860000D03*
%TO.P,U2,16,IO46*%
%TO.N,unconnected-(U2-IO46-Pad16)*%
X72435000Y-65860000D03*
%TO.P,U2,15,IO3*%
%TO.N,EL{slash}IO3*%
X71165000Y-65860000D03*
D12*
%TO.P,U2,14,USB_D+*%
%TO.N,USB_D+*%
X69400000Y-64610000D03*
%TO.P,U2,13,USB_D-*%
%TO.N,USB_D-*%
X69400000Y-63340000D03*
%TO.P,U2,12,IO8*%
%TO.N,SDA{slash}IO8*%
X69400000Y-62070000D03*
%TO.P,U2,11,IO18*%
%TO.N,SCL2{slash}IO18*%
X69400000Y-60800000D03*
%TO.P,U2,10,IO17*%
%TO.N,SDA2{slash}IO17*%
X69400000Y-59530000D03*
%TO.P,U2,9,IO16*%
%TO.N,unconnected-(U2-IO16-Pad9)*%
X69400000Y-58260000D03*
%TO.P,U2,8,IO15*%
%TO.N,unconnected-(U2-IO15-Pad8)*%
X69400000Y-56990000D03*
%TO.P,U2,7,IO7*%
%TO.N,unconnected-(U2-IO7-Pad7)*%
X69400000Y-55720000D03*
%TO.P,U2,6,IO6*%
%TO.N,unconnected-(U2-IO6-Pad6)*%
X69400000Y-54450000D03*
%TO.P,U2,5,IO5*%
%TO.N,unconnected-(U2-IO5-Pad5)*%
X69400000Y-53180000D03*
%TO.P,U2,4,IO4*%
%TO.N,SL{slash}IO4*%
X69400000Y-51910000D03*
%TO.P,U2,3,EN*%
%TO.N,CHIP-PU{slash}RST{slash}EN*%
X69400000Y-50640000D03*
%TO.P,U2,2,3V3*%
%TO.N,+3.3V*%
X69400000Y-49370000D03*
%TO.P,U2,1,GND*%
%TO.N,GND*%
X69400000Y-48100000D03*
%TD*%
D14*
%TO.P,K1,11*%
%TO.N,R-C*%
X110600000Y-58300000D03*
%TO.P,K1,12*%
%TO.N,unconnected-(K1-Pad12)*%
X104600000Y-44100000D03*
%TO.P,K1,14*%
%TO.N,R-NO*%
X116600000Y-44100000D03*
D15*
%TO.P,K1,A1*%
%TO.N,Net-(D3-A)*%
X104600000Y-56300000D03*
D14*
%TO.P,K1,A2*%
%TO.N,+5V*%
X116600000Y-56300000D03*
%TD*%
D16*
%TO.P,C17,1*%
%TO.N,+3.3V*%
X50400000Y-45400000D03*
%TO.P,C17,2*%
%TO.N,GND*%
X48500000Y-45400000D03*
%TD*%
D17*
%TO.P,R8,1*%
%TO.N,Net-(Q1-G)*%
X98550000Y-64875000D03*
%TO.P,R8,2*%
%TO.N,RELAY{slash}IO2*%
X98550000Y-66525000D03*
%TD*%
D18*
%TO.P,LS1,1,1*%
%TO.N,+5V*%
X92749998Y-55500000D03*
%TO.P,LS1,2,2*%
%TO.N,Net-(D7-A)*%
X99850000Y-55500000D03*
%TO.P,LS1,3*%
%TO.N,N/C*%
X92749998Y-48399998D03*
%TO.P,LS1,4*%
X99850000Y-48399998D03*
%TD*%
D19*
%TO.P,C9,1*%
%TO.N,+3.3V*%
X64750000Y-49600000D03*
%TO.P,C9,2*%
%TO.N,GND*%
X64750000Y-48050000D03*
%TD*%
D20*
%TO.P,R13,1*%
%TO.N,+3.3V*%
X60450000Y-86620000D03*
%TO.P,R13,2*%
%TO.N,SW1{slash}IO11*%
X62100000Y-86620000D03*
%TD*%
%TO.P,R6,1*%
%TO.N,/N*%
X60500000Y-57700000D03*
%TO.P,R6,2*%
%TO.N,USB_D-*%
X62150000Y-57700000D03*
%TD*%
D21*
%TO.P,U4,1,32KHZ*%
%TO.N,unconnected-(U4-32KHZ-Pad1)*%
X51900000Y-73155000D03*
%TO.P,U4,2,VCC*%
%TO.N,+3.3V*%
X51900000Y-74425000D03*
%TO.P,U4,3,~{INT}/SQW*%
%TO.N,unconnected-(U4-~{INT}{slash}SQW-Pad3)*%
X51900000Y-75695000D03*
%TO.P,U4,4,~{RST}*%
%TO.N,unconnected-(U4-~{RST}-Pad4)*%
X51900000Y-76965000D03*
%TO.P,U4,5,GND*%
%TO.N,GND*%
X51900000Y-78235000D03*
%TO.P,U4,6,GND*%
X51900000Y-79505000D03*
%TO.P,U4,7,GND*%
X51900000Y-80775000D03*
%TO.P,U4,8,GND*%
X51900000Y-82045000D03*
%TO.P,U4,9,GND*%
X61200000Y-82045000D03*
%TO.P,U4,10,GND*%
X61200000Y-80775000D03*
%TO.P,U4,11,GND*%
X61200000Y-79505000D03*
%TO.P,U4,12,GND*%
X61200000Y-78235000D03*
%TO.P,U4,13,GND*%
X61200000Y-76965000D03*
%TO.P,U4,14,VBAT*%
%TO.N,Net-(U4-VBAT)*%
X61200000Y-75695000D03*
%TO.P,U4,15,SDA*%
%TO.N,SDA{slash}IO8*%
X61200000Y-74425000D03*
%TO.P,U4,16,SCL*%
%TO.N,SCL{slash}IO9*%
X61200000Y-73155000D03*
%TD*%
D22*
%TO.P,R9,1*%
%TO.N,GND*%
X102200000Y-65850000D03*
%TO.P,R9,2*%
%TO.N,Net-(Q1-G)*%
X100550000Y-65850000D03*
%TD*%
D17*
%TO.P,R17,1*%
%TO.N,+3.3V*%
X61250000Y-68150000D03*
%TO.P,R17,2*%
%TO.N,SCL{slash}IO9*%
X61250000Y-69800000D03*
%TD*%
D23*
%TO.P,U3,1,I/O1*%
%TO.N,/D-*%
X56950000Y-58050000D03*
D24*
%TO.P,U3,2,GND*%
%TO.N,GND*%
X56875000Y-58587500D03*
D23*
%TO.P,U3,3,I/O2*%
%TO.N,/D+*%
X56950000Y-59125000D03*
%TO.P,U3,4,I/O2*%
%TO.N,/P*%
X58650000Y-59125000D03*
D24*
%TO.P,U3,5,VBUS*%
%TO.N,VBUS*%
X58725000Y-58587500D03*
D23*
%TO.P,U3,6,I/O1*%
%TO.N,/N*%
X58650000Y-58050000D03*
%TD*%
D17*
%TO.P,R23,1*%
%TO.N,Net-(J3-Pin_2)*%
X65100000Y-57900000D03*
%TO.P,R23,2*%
%TO.N,SCL2{slash}IO18*%
X65100000Y-59550000D03*
%TD*%
D25*
%TO.P,RV1,1*%
%TO.N,Net-(PS1-AC{slash}L)*%
X134150000Y-59850000D03*
%TO.P,RV1,2*%
%TO.N,NEUTRAL*%
X136850000Y-52350000D03*
%TD*%
D26*
%TO.P,TP7,1,1*%
%TO.N,GND*%
X111600000Y-94950000D03*
%TD*%
%TO.P,TP2,1,1*%
%TO.N,Net-(U2-RXD0)*%
X90850000Y-67800000D03*
%TD*%
%TO.P,TP6,1,1*%
%TO.N,BOOT*%
X90800000Y-70450000D03*
%TD*%
D27*
%TO.P,D4,1,K*%
%TO.N,Net-(D3-A)*%
X105200000Y-61250000D03*
%TO.P,D4,2,A*%
%TO.N,Net-(D4-A)*%
X105200000Y-62825000D03*
%TD*%
D19*
%TO.P,C10,1*%
%TO.N,+3.3V*%
X66350000Y-49600000D03*
%TO.P,C10,2*%
%TO.N,GND*%
X66350000Y-48050000D03*
%TD*%
D17*
%TO.P,R19,1*%
%TO.N,Net-(J3-Pin_2)*%
X54500000Y-52150000D03*
%TO.P,R19,2*%
%TO.N,SCL{slash}IO9*%
X54500000Y-53800000D03*
%TD*%
D28*
%TO.P,BT1,N*%
%TO.N,GND*%
X80290000Y-75650000D03*
D29*
%TO.P,BT1,P*%
%TO.N,Net-(U4-VBAT)*%
X64820000Y-75650000D03*
%TD*%
D26*
%TO.P,TP4,1,1*%
%TO.N,+5V*%
X115250000Y-94950000D03*
%TD*%
D30*
%TO.P,Q1,1,G*%
%TO.N,Net-(Q1-G)*%
X100550000Y-63700000D03*
%TO.P,Q1,2,S*%
%TO.N,GND*%
X102450000Y-63700000D03*
%TO.P,Q1,3,D*%
%TO.N,Net-(D3-A)*%
X101500000Y-61825000D03*
%TD*%
D31*
%TO.P,C6,1*%
%TO.N,+3.3V*%
X96500000Y-84600000D03*
%TO.P,C6,2*%
%TO.N,GND*%
X98050000Y-84600000D03*
%TD*%
D32*
%TO.P,C5,1*%
%TO.N,+3.3V*%
X96375000Y-82600000D03*
%TO.P,C5,2*%
%TO.N,GND*%
X98275000Y-82600000D03*
%TD*%
D20*
%TO.P,R15,1*%
%TO.N,+3.3V*%
X77572500Y-86620000D03*
%TO.P,R15,2*%
%TO.N,SW3{slash}IO13*%
X79222500Y-86620000D03*
%TD*%
D33*
%TO.P,U1,1,GND*%
%TO.N,GND*%
X98600000Y-88800000D03*
%TO.P,U1,2,VO*%
%TO.N,+3.3V*%
X96300000Y-88800000D03*
D34*
X96300000Y-95100000D03*
D33*
%TO.P,U1,3,VI*%
%TO.N,+5V*%
X94000000Y-88800000D03*
%TD*%
D35*
%TO.P,PS1,1,AC/L*%
%TO.N,Net-(PS1-AC{slash}L)*%
X140700000Y-80950000D03*
D36*
%TO.P,PS1,2,AC/N*%
%TO.N,NEUTRAL*%
X140700000Y-74950000D03*
%TO.P,PS1,3,-Vout*%
%TO.N,GND*%
X107100000Y-86950000D03*
%TO.P,PS1,4,+Vout*%
%TO.N,+5V*%
X107100000Y-68950000D03*
%TD*%
D37*
%TO.P,D7,1,K*%
%TO.N,+5V*%
X95600000Y-58300000D03*
%TO.P,D7,2,A*%
%TO.N,Net-(D7-A)*%
X98900000Y-58300000D03*
%TD*%
D38*
%TO.P,FID1,*%
%TO.N,*%
X45000000Y-94000000D03*
%TD*%
D39*
%TO.P,R22,1*%
%TO.N,+3.3V*%
X52900000Y-53800000D03*
%TO.P,R22,2*%
%TO.N,Net-(J3-Pin_2)*%
X52900000Y-52150000D03*
%TD*%
D20*
%TO.P,R5,1*%
%TO.N,Net-(J2-CC2)*%
X53725000Y-60100000D03*
%TO.P,R5,2*%
%TO.N,GND*%
X55375000Y-60100000D03*
%TD*%
D40*
%TO.P,J3,1,Pin_1*%
%TO.N,Net-(J3-Pin_1)*%
X54870000Y-49450000D03*
D41*
%TO.P,J3,2,Pin_2*%
%TO.N,Net-(J3-Pin_2)*%
X52330000Y-49450000D03*
%TO.P,J3,3,Pin_3*%
%TO.N,+3.3V*%
X49790000Y-49450000D03*
%TO.P,J3,4,Pin_4*%
%TO.N,GND*%
X47250000Y-49450000D03*
%TD*%
D17*
%TO.P,R18,1*%
%TO.N,+3.3V*%
X59250000Y-68150000D03*
%TO.P,R18,2*%
%TO.N,SDA{slash}IO8*%
X59250000Y-69800000D03*
%TD*%
D38*
%TO.P,FID2,*%
%TO.N,*%
X45000000Y-42500000D03*
%TD*%
D20*
%TO.P,R12,1*%
%TO.N,Net-(D5-A)*%
X42050000Y-78400000D03*
%TO.P,R12,2*%
%TO.N,SL{slash}IO4*%
X43700000Y-78400000D03*
%TD*%
D42*
%TO.P,SW1,1,1*%
%TO.N,GND*%
X49400000Y-95650000D03*
X49400000Y-89150000D03*
%TO.P,SW1,2,2*%
%TO.N,CHIP-PU{slash}RST{slash}EN*%
X53900000Y-95650000D03*
X53900000Y-89150000D03*
%TD*%
D43*
%TO.P,C11,1*%
%TO.N,CHIP-PU{slash}RST{slash}EN*%
X53950000Y-86650000D03*
%TO.P,C11,2*%
%TO.N,GND*%
X52400000Y-86650000D03*
%TD*%
%TO.P,C4,1*%
%TO.N,+5V*%
X93875000Y-84550000D03*
%TO.P,C4,2*%
%TO.N,GND*%
X92325000Y-84550000D03*
%TD*%
D22*
%TO.P,R2,1*%
%TO.N,+5V*%
X43700000Y-70900000D03*
%TO.P,R2,2*%
%TO.N,Net-(D1-A)*%
X42050000Y-70900000D03*
%TD*%
D42*
%TO.P,F1,1*%
%TO.N,LINE*%
X142300000Y-47800000D03*
%TO.P,F1,2*%
%TO.N,Net-(PS1-AC{slash}L)*%
X142290000Y-52880000D03*
%TD*%
D44*
%TO.P,J2,A1,GND*%
%TO.N,GND*%
X48370000Y-55130000D03*
%TO.P,J2,A4,VBUS*%
%TO.N,VBUS*%
X48370000Y-55930000D03*
D45*
%TO.P,J2,A5,CC1*%
%TO.N,Net-(J2-CC1)*%
X48370000Y-57080000D03*
%TO.P,J2,A6,D+*%
%TO.N,/D+*%
X48370000Y-58080000D03*
%TO.P,J2,A7,D-*%
%TO.N,/D-*%
X48370000Y-58580000D03*
%TO.P,J2,A8,SBU1*%
%TO.N,unconnected-(J2-SBU1-PadA8)*%
X48370000Y-59580000D03*
D44*
%TO.P,J2,A9,VBUS*%
%TO.N,VBUS*%
X48370000Y-60730000D03*
%TO.P,J2,A12,GND*%
%TO.N,GND*%
X48370000Y-61530000D03*
%TO.P,J2,B1,GND*%
X48370000Y-61530000D03*
%TO.P,J2,B4,VBUS*%
%TO.N,VBUS*%
X48370000Y-60730000D03*
D45*
%TO.P,J2,B5,CC2*%
%TO.N,Net-(J2-CC2)*%
X48370000Y-60080000D03*
%TO.P,J2,B6,D+*%
%TO.N,/D+*%
X48370000Y-59080000D03*
%TO.P,J2,B7,D-*%
%TO.N,/D-*%
X48370000Y-57580000D03*
%TO.P,J2,B8,SBU2*%
%TO.N,unconnected-(J2-SBU2-PadB8)*%
X48370000Y-56580000D03*
D44*
%TO.P,J2,B9,VBUS*%
%TO.N,VBUS*%
X48370000Y-55930000D03*
%TO.P,J2,B12,GND*%
%TO.N,GND*%
X48370000Y-55130000D03*
D46*
%TO.P,J2,S1,SHIELD*%
X47730000Y-54010000D03*
D47*
X43550000Y-54010000D03*
D46*
X47730000Y-62650000D03*
D47*
X43550000Y-62650000D03*
%TD*%
D39*
%TO.P,R20,1*%
%TO.N,SDA{slash}IO8*%
X58000000Y-53800000D03*
%TO.P,R20,2*%
%TO.N,Net-(J3-Pin_1)*%
X58000000Y-52150000D03*
%TD*%
D26*
%TO.P,TP1,1,1*%
%TO.N,Net-(U2-TXD0)*%
X90800000Y-65150000D03*
%TD*%
D48*
%TO.P,D3,1,K*%
%TO.N,+5V*%
X116650000Y-63400000D03*
%TO.P,D3,2,A*%
%TO.N,Net-(D3-A)*%
X113350000Y-63400000D03*
%TD*%
D20*
%TO.P,R7,1*%
%TO.N,/P*%
X60000000Y-60500000D03*
%TO.P,R7,2*%
%TO.N,USB_D+*%
X61650000Y-60500000D03*
%TD*%
%TO.P,R16,1*%
%TO.N,+3.3V*%
X86133750Y-86620000D03*
%TO.P,R16,2*%
%TO.N,SW4{slash}IO14*%
X87783750Y-86620000D03*
%TD*%
D39*
%TO.P,R25,1*%
%TO.N,GND*%
X93300000Y-62200000D03*
%TO.P,R25,2*%
%TO.N,Net-(Q2-G)*%
X93300000Y-60550000D03*
%TD*%
D49*
%TO.P,D1,1,K*%
%TO.N,GND*%
X42500000Y-74000000D03*
D25*
%TO.P,D1,2,A*%
%TO.N,Net-(D1-A)*%
X45040000Y-74000000D03*
%TD*%
D50*
%TO.P,SW2,1,1*%
%TO.N,GND*%
X87000000Y-77150000D03*
%TO.P,SW2,2,2*%
%TO.N,BOOT*%
X87000000Y-72950000D03*
%TD*%
D51*
%TO.P,C12,1*%
%TO.N,BOOT*%
X83950000Y-73050000D03*
%TO.P,C12,2*%
%TO.N,GND*%
X83950000Y-74600000D03*
%TD*%
D52*
%TO.P,C2,1*%
%TO.N,+5V*%
X98350000Y-78000000D03*
%TO.P,C2,2*%
%TO.N,GND*%
X98350000Y-71500000D03*
%TD*%
D26*
%TO.P,TP5,1,1*%
%TO.N,CHIP-PU{slash}RST{slash}EN*%
X49350000Y-86250000D03*
%TD*%
D39*
%TO.P,R21,1*%
%TO.N,+3.3V*%
X59650000Y-53800000D03*
%TO.P,R21,2*%
%TO.N,Net-(J3-Pin_1)*%
X59650000Y-52150000D03*
%TD*%
D51*
%TO.P,C13,1*%
%TO.N,GND*%
X63250000Y-53250000D03*
%TO.P,C13,2*%
%TO.N,CHIP-PU{slash}RST{slash}EN*%
X63250000Y-54800000D03*
%TD*%
D17*
%TO.P,R24,1*%
%TO.N,Net-(J3-Pin_1)*%
X66700000Y-57900000D03*
%TO.P,R24,2*%
%TO.N,SDA2{slash}IO17*%
X66700000Y-59550000D03*
%TD*%
%TO.P,R3,1*%
%TO.N,+3.3V*%
X64850000Y-53200000D03*
%TO.P,R3,2*%
%TO.N,CHIP-PU{slash}RST{slash}EN*%
X64850000Y-54850000D03*
%TD*%
D53*
%TO.P,Q2,1,G*%
%TO.N,Net-(Q2-G)*%
X95250000Y-60550000D03*
%TO.P,Q2,2,S*%
%TO.N,GND*%
X95250000Y-62450000D03*
%TO.P,Q2,3,D*%
%TO.N,Net-(D7-A)*%
X97125000Y-61500000D03*
%TD*%
D42*
%TO.P,SW4,1,1*%
%TO.N,GND*%
X66500000Y-95650000D03*
X66500000Y-89150000D03*
%TO.P,SW4,2,2*%
%TO.N,SW2{slash}IO12*%
X71000000Y-95650000D03*
X71000000Y-89150000D03*
%TD*%
D54*
%TO.P,D2,1,K*%
%TO.N,+5V*%
X51200000Y-66550000D03*
%TO.P,D2,2,A*%
%TO.N,VBUS*%
X51200000Y-63250000D03*
%TD*%
D22*
%TO.P,R26,1*%
%TO.N,Net-(Q2-G)*%
X93500000Y-57950000D03*
%TO.P,R26,2*%
%TO.N,BUZZ{slash}IO1*%
X91850000Y-57950000D03*
%TD*%
D19*
%TO.P,C15,1*%
%TO.N,+3.3V*%
X49550000Y-74475000D03*
%TO.P,C15,2*%
%TO.N,GND*%
X49550000Y-72925000D03*
%TD*%
D20*
%TO.P,R11,1*%
%TO.N,Net-(D6-A)*%
X42250000Y-86100000D03*
%TO.P,R11,2*%
%TO.N,EL{slash}IO3*%
X43900000Y-86100000D03*
%TD*%
D55*
%TO.P,R1,1*%
%TO.N,Net-(PS1-AC{slash}L)*%
X121800000Y-61300000D03*
%TO.P,R1,2*%
%TO.N,NEUTRAL*%
X121800000Y-53680000D03*
%TD*%
D20*
%TO.P,R4,1*%
%TO.N,Net-(J2-CC1)*%
X53650000Y-57100000D03*
%TO.P,R4,2*%
%TO.N,GND*%
X55300000Y-57100000D03*
%TD*%
D42*
%TO.P,SW3,1,1*%
%TO.N,GND*%
X57950000Y-95650000D03*
X57950000Y-89150000D03*
%TO.P,SW3,2,2*%
%TO.N,SW1{slash}IO11*%
X62450000Y-95650000D03*
X62450000Y-89150000D03*
%TD*%
D26*
%TO.P,TP3,1,1*%
%TO.N,+3.3V*%
X107950000Y-94950000D03*
%TD*%
D38*
%TO.P,FID3,*%
%TO.N,*%
X143100000Y-41450000D03*
%TD*%
D20*
%TO.P,R14,1*%
%TO.N,+3.3V*%
X69011250Y-86620000D03*
%TO.P,R14,2*%
%TO.N,SW2{slash}IO12*%
X70661250Y-86620000D03*
%TD*%
D42*
%TO.P,SW6,1,1*%
%TO.N,GND*%
X83600000Y-95650000D03*
X83600000Y-89150000D03*
%TO.P,SW6,2,2*%
%TO.N,SW4{slash}IO14*%
X88100000Y-95650000D03*
X88100000Y-89150000D03*
%TD*%
D56*
%TO.P,J1,1,Pin_1*%
%TO.N,LINE*%
X136960000Y-44350000D03*
D57*
%TO.P,J1,2,Pin_2*%
%TO.N,NEUTRAL*%
X131880000Y-44350000D03*
%TO.P,J1,3,Pin_3*%
%TO.N,R-C*%
X126800000Y-44350000D03*
%TO.P,J1,4,Pin_4*%
%TO.N,R-NO*%
X121720000Y-44350000D03*
%TD*%
D20*
%TO.P,R10,1*%
%TO.N,Net-(D4-A)*%
X109400000Y-63450000D03*
%TO.P,R10,2*%
%TO.N,+5V*%
X111050000Y-63450000D03*
%TD*%
D42*
%TO.P,C1,1*%
%TO.N,Net-(PS1-AC{slash}L)*%
X127700000Y-60600000D03*
%TO.P,C1,2*%
%TO.N,NEUTRAL*%
X127700000Y-50600000D03*
%TD*%
%TO.P,SW5,1,1*%
%TO.N,GND*%
X75050000Y-95650000D03*
X75050000Y-89150000D03*
%TO.P,SW5,2,2*%
%TO.N,SW3{slash}IO13*%
X79550000Y-95650000D03*
X79550000Y-89150000D03*
%TD*%
D58*
%TO.P,C16,1*%
%TO.N,+3.3V*%
X47650000Y-74470000D03*
%TO.P,C16,2*%
%TO.N,GND*%
X47650000Y-72570000D03*
%TD*%
D51*
%TO.P,C14,1*%
%TO.N,VBUS*%
X53600000Y-63300000D03*
%TO.P,C14,2*%
%TO.N,GND*%
X53600000Y-64850000D03*
%TD*%
D19*
%TO.P,C8,1*%
%TO.N,+3.3V*%
X63150000Y-49600000D03*
%TO.P,C8,2*%
%TO.N,GND*%
X63150000Y-48050000D03*
%TD*%
D16*
%TO.P,C3,1*%
%TO.N,+5V*%
X94050000Y-82500000D03*
%TO.P,C3,2*%
%TO.N,GND*%
X92150000Y-82500000D03*
%TD*%
D49*
%TO.P,D6,1,K*%
%TO.N,GND*%
X42500000Y-89250000D03*
D25*
%TO.P,D6,2,A*%
%TO.N,Net-(D6-A)*%
X45040000Y-89250000D03*
%TD*%
D49*
%TO.P,D5,1,K*%
%TO.N,GND*%
X42500000Y-81625000D03*
D25*
%TO.P,D5,2,A*%
%TO.N,Net-(D5-A)*%
X45040000Y-81625000D03*
%TD*%
D58*
%TO.P,C7,1*%
%TO.N,+3.3V*%
X61250000Y-49625000D03*
%TO.P,C7,2*%
%TO.N,GND*%
X61250000Y-47725000D03*
%TD*%
D59*
%TO.N,GND*%
X48850000Y-72375000D03*
X48725000Y-75800000D03*
X54600000Y-67200000D03*
X42250000Y-67025000D03*
X47725000Y-64425000D03*
X52500000Y-55000000D03*
X56575000Y-60475000D03*
X56250000Y-56950000D03*
X47375000Y-84650000D03*
X44825000Y-84350000D03*
X53900000Y-81525000D03*
X63575000Y-81525000D03*
X59100000Y-77825000D03*
X76775000Y-72425000D03*
%TO.N,CHIP-PU{slash}RST{slash}EN*%
X73137500Y-81412500D03*
%TO.N,GND*%
X67900000Y-79100000D03*
X68250000Y-73000000D03*
X78275000Y-80800000D03*
X95700000Y-73025000D03*
X101625000Y-72775000D03*
X95400000Y-61625000D03*
X94300000Y-63675000D03*
X95800000Y-52150000D03*
X89025000Y-48050000D03*
X84925000Y-47975000D03*
X59225000Y-63950000D03*
X81525000Y-70550000D03*
X49925000Y-80575000D03*
X82925000Y-52050000D03*
X110525000Y-76975000D03*
X58475000Y-76300000D03*
X86575000Y-81625000D03*
X110350000Y-86000000D03*
X69950000Y-77800000D03*
X62300000Y-50875000D03*
X50900000Y-60875000D03*
X56087500Y-58587500D03*
D60*
%TO.N,SL{slash}IO4*%
X45100000Y-78400000D03*
D61*
%TO.N,+5V*%
X96800000Y-58300000D03*
X92400000Y-88800000D03*
X43655000Y-69450000D03*
%TO.N,+3.3V*%
X54600000Y-74400000D03*
D60*
%TO.N,CHIP-PU{slash}RST{slash}EN*%
X72420000Y-50630000D03*
%TO.N,SL{slash}IO4*%
X75650000Y-61850000D03*
%TO.N,SCL{slash}IO9*%
X54500000Y-54700000D03*
X73400000Y-56100000D03*
%TO.N,SDA{slash}IO8*%
X58000000Y-54650000D03*
X72750000Y-55150000D03*
X69800000Y-70100000D03*
X72850000Y-63600000D03*
%TD*%
D62*
%TO.N,GND*%
X56875000Y-58587500D02*
X56087500Y-58587500D01*
%TO.N,/D-*%
X55450000Y-58525000D02*
X55925000Y-58050000D01*
X55925000Y-58050000D02*
X56950000Y-58050000D01*
X50773198Y-57605000D02*
X51693198Y-58525000D01*
X49370001Y-57605000D02*
X50773198Y-57605000D01*
X51693198Y-58525000D02*
X55450000Y-58525000D01*
X49345001Y-57580000D02*
X49370001Y-57605000D01*
X48370000Y-57580000D02*
X49345001Y-57580000D01*
%TO.N,/D+*%
X50586802Y-58055000D02*
X51656802Y-59125000D01*
X49370001Y-58055000D02*
X50586802Y-58055000D01*
X49345001Y-58080000D02*
X49370001Y-58055000D01*
X48370000Y-58080000D02*
X49345001Y-58080000D01*
X51656802Y-59125000D02*
X56950000Y-59125000D01*
D63*
%TO.N,SW4{slash}IO14*%
X87783750Y-88833750D02*
X88100000Y-89150000D01*
X87783750Y-86620000D02*
X87783750Y-88833750D01*
%TO.N,SW3{slash}IO13*%
X79222500Y-86620000D02*
X79222500Y-88822500D01*
X79222500Y-88822500D02*
X79550000Y-89150000D01*
%TO.N,SW2{slash}IO12*%
X70661250Y-88811250D02*
X71000000Y-89150000D01*
X70661250Y-86620000D02*
X70661250Y-88811250D01*
X77515000Y-67185000D02*
X77515000Y-65860000D01*
X73300000Y-79400000D02*
X73300000Y-71400000D01*
X70661250Y-82038750D02*
X73300000Y-79400000D01*
X73300000Y-71400000D02*
X77515000Y-67185000D01*
X70661250Y-86620000D02*
X70661250Y-82038750D01*
%TO.N,SW1{slash}IO11*%
X67950000Y-83750000D02*
X72600000Y-79100000D01*
X63850000Y-83750000D02*
X67950000Y-83750000D01*
X62100000Y-85500000D02*
X63850000Y-83750000D01*
X76245000Y-67355000D02*
X76245000Y-65860000D01*
X62100000Y-86620000D02*
X62100000Y-85500000D01*
X72600000Y-79100000D02*
X72600000Y-71000000D01*
X72600000Y-71000000D02*
X76245000Y-67355000D01*
%TO.N,SCL{slash}IO9*%
X73705000Y-61655000D02*
X73400000Y-61350000D01*
X73705000Y-65860000D02*
X73705000Y-61655000D01*
X73705000Y-66910000D02*
X73705000Y-65860000D01*
X72915000Y-67700000D02*
X73705000Y-66910000D01*
X64550000Y-67700000D02*
X72915000Y-67700000D01*
%TO.N,EL{slash}IO3*%
X65681480Y-65860000D02*
X71165000Y-65860000D01*
X64291480Y-67250000D02*
X65681480Y-65860000D01*
%TO.N,BOOT*%
X86900000Y-67950000D02*
X86900000Y-64610000D01*
X89400000Y-70450000D02*
X86900000Y-67950000D01*
X90800000Y-70450000D02*
X89400000Y-70450000D01*
%TO.N,Net-(U2-RXD0)*%
X89397000Y-66347000D02*
X90850000Y-67800000D01*
X89397000Y-53467000D02*
X89397000Y-66347000D01*
X89100000Y-53170000D02*
X89397000Y-53467000D01*
X89090000Y-53180000D02*
X89100000Y-53170000D01*
X86900000Y-53180000D02*
X89090000Y-53180000D01*
%TO.N,Net-(U2-TXD0)*%
X90800000Y-61258520D02*
X90800000Y-65150000D01*
X89898000Y-52698000D02*
X89898000Y-60356521D01*
X89100000Y-51900000D02*
X89898000Y-52698000D01*
X89898000Y-60356521D02*
X90800000Y-61258520D01*
X86900000Y-51910000D02*
X89090000Y-51910000D01*
X89090000Y-51910000D02*
X89100000Y-51900000D01*
%TO.N,RELAY{slash}IO2*%
X90399000Y-60149000D02*
X92350000Y-62100000D01*
X90399000Y-51929000D02*
X90399000Y-60149000D01*
X89100000Y-50630000D02*
X90399000Y-51929000D01*
X89090000Y-50640000D02*
X89100000Y-50630000D01*
X92350000Y-62100000D02*
X92350000Y-65200000D01*
X86900000Y-50640000D02*
X89090000Y-50640000D01*
X92350000Y-65200000D02*
X93675000Y-66525000D01*
X93675000Y-66525000D02*
X98550000Y-66525000D01*
%TO.N,BUZZ{slash}IO1*%
X90900000Y-57000000D02*
X91850000Y-57950000D01*
X90900000Y-51050000D02*
X90900000Y-57000000D01*
X89210000Y-49360000D02*
X90900000Y-51050000D01*
X89200000Y-49370000D02*
X89210000Y-49360000D01*
X86900000Y-49370000D02*
X89200000Y-49370000D01*
%TO.N,SDA{slash}IO8*%
X69400000Y-62070000D02*
X71600000Y-62070000D01*
X71600000Y-62070000D02*
X71610000Y-62060000D01*
%TO.N,SL{slash}IO4*%
X74000000Y-53600000D02*
X74000000Y-59200000D01*
X72310000Y-51910000D02*
X74000000Y-53600000D01*
X69400000Y-51910000D02*
X72310000Y-51910000D01*
%TO.N,CHIP-PU{slash}RST{slash}EN*%
X72410000Y-50640000D02*
X72420000Y-50630000D01*
X69400000Y-50640000D02*
X72410000Y-50640000D01*
X68150000Y-51300000D02*
X68810000Y-50640000D01*
X68810000Y-50640000D02*
X69400000Y-50640000D01*
D64*
%TO.N,+3.3V*%
X69170000Y-49600000D02*
X69400000Y-49370000D01*
X66350000Y-49600000D02*
X69170000Y-49600000D01*
X66325000Y-49625000D02*
X66350000Y-49600000D01*
X61250000Y-49625000D02*
X66325000Y-49625000D01*
D63*
%TO.N,SCL2{slash}IO18*%
X65100000Y-60300000D02*
X65600000Y-60800000D01*
X65100000Y-59550000D02*
X65100000Y-60300000D01*
X65600000Y-60800000D02*
X69400000Y-60800000D01*
%TO.N,SDA2{slash}IO17*%
X69380000Y-59550000D02*
X69400000Y-59530000D01*
X66700000Y-59550000D02*
X69380000Y-59550000D01*
%TO.N,Net-(J3-Pin_2)*%
X58300000Y-56500000D02*
X64400000Y-56500000D01*
X56000000Y-52900000D02*
X56000000Y-54200000D01*
X65100000Y-57200000D02*
X65100000Y-57900000D01*
X55250000Y-52150000D02*
X56000000Y-52900000D01*
X64400000Y-56500000D02*
X65100000Y-57200000D01*
X54500000Y-52150000D02*
X55250000Y-52150000D01*
X56000000Y-54200000D02*
X58300000Y-56500000D01*
%TO.N,Net-(J3-Pin_1)*%
X66700000Y-56900000D02*
X66700000Y-57900000D01*
X65799000Y-55999000D02*
X66700000Y-56900000D01*
X58507520Y-55999000D02*
X65799000Y-55999000D01*
X56550000Y-54041480D02*
X58507520Y-55999000D01*
X56550000Y-52150000D02*
X56550000Y-54041480D01*
D62*
%TO.N,USB_D+*%
X62931802Y-60500000D02*
X67041802Y-64610000D01*
X67041802Y-64610000D02*
X69400000Y-64610000D01*
X61650000Y-60500000D02*
X62931802Y-60500000D01*
%TO.N,USB_D-*%
X62150000Y-59081802D02*
X66408198Y-63340000D01*
X66408198Y-63340000D02*
X69400000Y-63340000D01*
X62150000Y-59081802D02*
X62150000Y-57700000D01*
D63*
%TO.N,/P*%
X58650000Y-59950000D02*
X59200000Y-60500000D01*
X59200000Y-60500000D02*
X60000000Y-60500000D01*
X58650000Y-59125000D02*
X58650000Y-59950000D01*
%TO.N,/N*%
X59500000Y-57700000D02*
X60500000Y-57700000D01*
X59150000Y-58050000D02*
X59500000Y-57700000D01*
X58650000Y-58050000D02*
X59150000Y-58050000D01*
%TO.N,Net-(D6-A)*%
X44400000Y-87500000D02*
X45040000Y-88140000D01*
X42700000Y-87500000D02*
X44400000Y-87500000D01*
X45040000Y-88140000D02*
X45040000Y-89250000D01*
X42250000Y-87050000D02*
X42700000Y-87500000D01*
X42250000Y-86100000D02*
X42250000Y-87050000D01*
%TO.N,Net-(D5-A)*%
X42050000Y-79650000D02*
X42050000Y-78400000D01*
X42400000Y-80000000D02*
X42050000Y-79650000D01*
X45040000Y-80340000D02*
X44700000Y-80000000D01*
X45040000Y-81625000D02*
X45040000Y-80340000D01*
X44700000Y-80000000D02*
X42400000Y-80000000D01*
D62*
%TO.N,SL{slash}IO4*%
X43700000Y-78400000D02*
X45100000Y-78400000D01*
D63*
%TO.N,EL{slash}IO3*%
X45300000Y-86100000D02*
X43900000Y-86100000D01*
X46400000Y-85000000D02*
X45300000Y-86100000D01*
X47239589Y-70410411D02*
X46400000Y-71250000D01*
X57271642Y-67250000D02*
X54111231Y-70410411D01*
X64291480Y-67250000D02*
X57271642Y-67250000D01*
X54111231Y-70410411D02*
X47239589Y-70410411D01*
X46400000Y-71250000D02*
X46400000Y-85000000D01*
D64*
%TO.N,+3.3V*%
X50400000Y-47150000D02*
X50400000Y-45400000D01*
X50300000Y-47250000D02*
X50400000Y-47150000D01*
%TO.N,Net-(U4-VBAT)*%
X61200000Y-75695000D02*
X64775000Y-75695000D01*
X64775000Y-75695000D02*
X64820000Y-75650000D01*
D65*
%TO.N,Net-(PS1-AC{slash}L)*%
X134150000Y-59850000D02*
X140900000Y-59850000D01*
X140900000Y-59850000D02*
X142290000Y-58460000D01*
X142290000Y-58460000D02*
X142290000Y-52880000D01*
D64*
%TO.N,+5V*%
X116650000Y-83600000D02*
X116650000Y-64250000D01*
X43655000Y-69395000D02*
X46500000Y-66550000D01*
X95600000Y-58300000D02*
X96800000Y-58300000D01*
X111050000Y-63450000D02*
X111050000Y-64750000D01*
X43655000Y-70800000D02*
X43655000Y-69450000D01*
X95600000Y-56650000D02*
X95600000Y-58300000D01*
X116650000Y-64250000D02*
X116650000Y-63400000D01*
X116600000Y-56300000D02*
X116600000Y-63350000D01*
X46500000Y-66550000D02*
X51200000Y-66550000D01*
D63*
X92400000Y-88800000D02*
X92300000Y-88800000D01*
D64*
X92749998Y-55500000D02*
X94450000Y-55500000D01*
X115250000Y-85000000D02*
X116650000Y-83600000D01*
X116650000Y-64700000D02*
X116650000Y-64250000D01*
X115250000Y-94950000D02*
X115250000Y-85000000D01*
X43655000Y-69450000D02*
X43655000Y-69395000D01*
X112000000Y-65700000D02*
X115650000Y-65700000D01*
X115650000Y-65700000D02*
X116650000Y-64700000D01*
X94450000Y-55500000D02*
X95600000Y-56650000D01*
X94000000Y-88800000D02*
X92400000Y-88800000D01*
X116600000Y-63350000D02*
X116650000Y-63400000D01*
X111050000Y-64750000D02*
X112000000Y-65700000D01*
%TO.N,+3.3V*%
X77572500Y-90522500D02*
X78200000Y-91150000D01*
X50300000Y-47250000D02*
X57050000Y-47250000D01*
X60450000Y-90250000D02*
X61350000Y-91150000D01*
X57200000Y-77050000D02*
X57200000Y-85250000D01*
X96300000Y-95100000D02*
X107800000Y-95100000D01*
X57900000Y-68150000D02*
X59250000Y-68150000D01*
X51850000Y-74475000D02*
X51900000Y-74425000D01*
X49790000Y-49450000D02*
X49790000Y-47760000D01*
X61250000Y-49625000D02*
X61250000Y-52200000D01*
X61250000Y-52200000D02*
X59650000Y-53800000D01*
D63*
X64750000Y-53100000D02*
X64850000Y-53200000D01*
D64*
X51900000Y-74425000D02*
X54575000Y-74425000D01*
X87150000Y-91150000D02*
X86133750Y-90133750D01*
X96300000Y-89600000D02*
X94750000Y-91150000D01*
X70947976Y-91150000D02*
X78200000Y-91150000D01*
X49545000Y-74470000D02*
X49550000Y-74475000D01*
X86133750Y-90133750D02*
X86133750Y-86620000D01*
X107800000Y-95100000D02*
X107950000Y-94950000D01*
X87450000Y-91150000D02*
X87150000Y-91150000D01*
X54575000Y-74425000D02*
X54600000Y-74400000D01*
X59425000Y-49625000D02*
X61250000Y-49625000D01*
X49550000Y-74475000D02*
X51850000Y-74475000D01*
X94750000Y-91150000D02*
X87450000Y-91150000D01*
X49790000Y-49450000D02*
X49790000Y-51390000D01*
X60450000Y-86620000D02*
X60450000Y-90250000D01*
X78200000Y-91150000D02*
X87450000Y-91150000D01*
X49790000Y-51390000D02*
X52200000Y-53800000D01*
X69850000Y-91150000D02*
X70947976Y-91150000D01*
X57050000Y-47250000D02*
X59425000Y-49625000D01*
X77572500Y-86620000D02*
X77572500Y-90522500D01*
X49790000Y-47760000D02*
X50300000Y-47250000D01*
X57200000Y-85250000D02*
X58570000Y-86620000D01*
D63*
X64750000Y-49600000D02*
X64750000Y-53100000D01*
D64*
X61350000Y-91150000D02*
X70947976Y-91150000D01*
X54575000Y-74425000D02*
X57200000Y-77050000D01*
X58570000Y-86620000D02*
X60450000Y-86620000D01*
X52200000Y-53800000D02*
X52900000Y-53800000D01*
X69011250Y-86620000D02*
X69011250Y-90311250D01*
X55950000Y-70100000D02*
X57900000Y-68150000D01*
X47650000Y-74470000D02*
X49545000Y-74470000D01*
X96300000Y-88800000D02*
X96300000Y-89600000D01*
X69011250Y-90311250D02*
X69850000Y-91150000D01*
X59250000Y-68150000D02*
X61250000Y-68150000D01*
X55950000Y-73050000D02*
X55950000Y-70100000D01*
X54600000Y-74400000D02*
X55950000Y-73050000D01*
D63*
%TO.N,CHIP-PU{slash}RST{slash}EN*%
X64800000Y-54800000D02*
X64850000Y-54850000D01*
X53950000Y-89100000D02*
X53900000Y-89150000D01*
X63250000Y-54800000D02*
X64800000Y-54800000D01*
X49350000Y-86250000D02*
X52250000Y-89150000D01*
X52250000Y-89150000D02*
X53900000Y-89150000D01*
X53950000Y-86650000D02*
X53950000Y-89100000D01*
X67100000Y-54850000D02*
X68150000Y-53800000D01*
X64850000Y-54850000D02*
X67100000Y-54850000D01*
X68150000Y-53800000D02*
X68150000Y-51300000D01*
%TO.N,BOOT*%
X86850000Y-73050000D02*
X86950000Y-72950000D01*
X86900000Y-73050000D02*
X87000000Y-72950000D01*
X90800000Y-70450000D02*
X90800000Y-71650000D01*
X83950000Y-73050000D02*
X86900000Y-73050000D01*
X90800000Y-71650000D02*
X89500000Y-72950000D01*
X89500000Y-72950000D02*
X87000000Y-72950000D01*
D64*
%TO.N,VBUS*%
X49130000Y-60730000D02*
X51200000Y-62800000D01*
D63*
X57900000Y-58975000D02*
X57900000Y-60700000D01*
D64*
X48370000Y-55930000D02*
X55720000Y-55930000D01*
X53550000Y-63250000D02*
X53600000Y-63300000D01*
X51200000Y-63250000D02*
X53550000Y-63250000D01*
X53600000Y-63300000D02*
X56850000Y-63300000D01*
D63*
X58725000Y-58587500D02*
X58287500Y-58587500D01*
X58287500Y-58587500D02*
X57900000Y-58200000D01*
D64*
X57900000Y-62250000D02*
X57900000Y-60700000D01*
D63*
X56930000Y-55930000D02*
X55720000Y-55930000D01*
D64*
X56850000Y-63300000D02*
X57900000Y-62250000D01*
X48370000Y-60730000D02*
X49130000Y-60730000D01*
X51200000Y-62800000D02*
X51200000Y-63250000D01*
D63*
X57900000Y-56900000D02*
X56930000Y-55930000D01*
X57900000Y-58200000D02*
X57900000Y-56900000D01*
X58287500Y-58587500D02*
X57900000Y-58975000D01*
%TO.N,Net-(D1-A)*%
X42400000Y-72350000D02*
X44400000Y-72350000D01*
X44400000Y-72350000D02*
X45040000Y-72990000D01*
X42005000Y-71955000D02*
X42400000Y-72350000D01*
X42005000Y-70800000D02*
X42005000Y-71955000D01*
X45040000Y-72990000D02*
X45040000Y-74000000D01*
D64*
%TO.N,Net-(D3-A)*%
X103600000Y-59350000D02*
X104600000Y-58350000D01*
D63*
X112750000Y-61800000D02*
X113350000Y-62400000D01*
X113350000Y-62400000D02*
X113350000Y-63400000D01*
X102075000Y-61250000D02*
X101500000Y-61825000D01*
X105200000Y-61250000D02*
X102075000Y-61250000D01*
D64*
X102500000Y-59350000D02*
X103600000Y-59350000D01*
D63*
X106100000Y-61250000D02*
X106650000Y-61800000D01*
D64*
X102500000Y-59350000D02*
X101500000Y-60350000D01*
X104600000Y-56300000D02*
X104600000Y-58350000D01*
D63*
X105200000Y-61250000D02*
X106100000Y-61250000D01*
D64*
X101500000Y-60350000D02*
X101500000Y-61825000D01*
D63*
X106650000Y-61800000D02*
X112750000Y-61800000D01*
%TO.N,Net-(D4-A)*%
X105200000Y-62825000D02*
X105200000Y-63050000D01*
X105600000Y-63450000D02*
X109400000Y-63450000D01*
X105200000Y-63050000D02*
X105600000Y-63450000D01*
D64*
%TO.N,Net-(D7-A)*%
X98858601Y-58258601D02*
X98900000Y-58300000D01*
X98900000Y-60850000D02*
X98900000Y-58300000D01*
X98250000Y-61500000D02*
X98900000Y-60850000D01*
X97125000Y-61500000D02*
X98250000Y-61500000D01*
X99850000Y-56200000D02*
X98900000Y-57150000D01*
X99850000Y-55500000D02*
X99850000Y-56200000D01*
X98900000Y-57150000D02*
X98900000Y-58300000D01*
D62*
%TO.N,Net-(J2-CC1)*%
X53630000Y-57080000D02*
X53650000Y-57100000D01*
X48370000Y-57080000D02*
X53630000Y-57080000D01*
%TO.N,/D-*%
X47419000Y-58312824D02*
X47686176Y-58580000D01*
X47419000Y-57847176D02*
X47419000Y-58312824D01*
X48370000Y-57580000D02*
X47686176Y-57580000D01*
X47686176Y-57580000D02*
X47419000Y-57847176D01*
X47686176Y-58580000D02*
X48370000Y-58580000D01*
%TO.N,/D+*%
X49321000Y-58347176D02*
X49321000Y-58812824D01*
X49053824Y-58080000D02*
X49321000Y-58347176D01*
X48370000Y-58080000D02*
X49053824Y-58080000D01*
X49053824Y-59080000D02*
X48370000Y-59080000D01*
X49321000Y-58812824D02*
X49053824Y-59080000D01*
%TO.N,Net-(J2-CC2)*%
X48370000Y-60080000D02*
X53705000Y-60080000D01*
X53705000Y-60080000D02*
X53725000Y-60100000D01*
D63*
%TO.N,Net-(J3-Pin_1)*%
X56550000Y-52150000D02*
X58000000Y-52150000D01*
X58000000Y-52150000D02*
X59650000Y-52150000D01*
X54870000Y-49450000D02*
X54870000Y-50470000D01*
X54870000Y-50470000D02*
X56550000Y-52150000D01*
%TO.N,Net-(J3-Pin_2)*%
X52900000Y-52150000D02*
X54500000Y-52150000D01*
X52330000Y-51580000D02*
X52900000Y-52150000D01*
X52330000Y-49450000D02*
X52330000Y-51580000D01*
%TO.N,Net-(Q1-G)*%
X98550000Y-64300000D02*
X99150000Y-63700000D01*
X98550000Y-64875000D02*
X98550000Y-64300000D01*
X100550000Y-63700000D02*
X100550000Y-65850000D01*
X99150000Y-63700000D02*
X100550000Y-63700000D01*
%TO.N,Net-(Q2-G)*%
X93300000Y-58150000D02*
X93500000Y-57950000D01*
X93300000Y-60550000D02*
X95250000Y-60550000D01*
X93300000Y-60550000D02*
X93300000Y-58150000D01*
%TO.N,SL{slash}IO4*%
X74000000Y-60200000D02*
X75650000Y-61850000D01*
X74000000Y-59200000D02*
X74000000Y-60200000D01*
%TO.N,SW1{slash}IO11*%
X62450000Y-86970000D02*
X62100000Y-86620000D01*
X62450000Y-89150000D02*
X62450000Y-86970000D01*
%TO.N,SCL{slash}IO9*%
X54500000Y-53800000D02*
X54500000Y-54700000D01*
X61250000Y-69800000D02*
X61250000Y-70750000D01*
X63100000Y-69150000D02*
X64550000Y-67700000D01*
X61250000Y-69800000D02*
X62350000Y-69800000D01*
X61250000Y-70750000D02*
X60850000Y-71150000D01*
X60005000Y-73155000D02*
X61200000Y-73155000D01*
X60000000Y-71150000D02*
X59700000Y-71450000D01*
X73400000Y-61350000D02*
X73400000Y-56100000D01*
X60850000Y-71150000D02*
X60000000Y-71150000D01*
X59700000Y-72850000D02*
X60005000Y-73155000D01*
X62350000Y-69800000D02*
X63000000Y-69150000D01*
X63000000Y-69150000D02*
X63100000Y-69150000D01*
X59700000Y-71450000D02*
X59700000Y-72850000D01*
X54500000Y-54700000D02*
X54500000Y-54750000D01*
%TO.N,SDA{slash}IO8*%
X71610000Y-62060000D02*
X72850000Y-63300000D01*
X64450000Y-70100000D02*
X69800000Y-70100000D01*
X59199000Y-69851000D02*
X59199000Y-73448999D01*
X72850000Y-63300000D02*
X72850000Y-63600000D01*
X72850000Y-63600000D02*
X72850000Y-63700000D01*
X58000000Y-53800000D02*
X58000000Y-54650000D01*
X71600000Y-62060000D02*
X72750000Y-60910000D01*
X62275000Y-74425000D02*
X63750000Y-72950000D01*
X63750000Y-70800000D02*
X64450000Y-70100000D01*
X63750000Y-72950000D02*
X63750000Y-70800000D01*
X59250000Y-69800000D02*
X59199000Y-69851000D01*
X72750000Y-55600000D02*
X72750000Y-55150000D01*
X61200000Y-74425000D02*
X62275000Y-74425000D01*
X60175001Y-74425000D02*
X61200000Y-74425000D01*
X72750000Y-60910000D02*
X72750000Y-55600000D01*
X71600000Y-62060000D02*
X71610000Y-62060000D01*
X59199000Y-73448999D02*
X60175001Y-74425000D01*
%TO.N,SW3{slash}IO13*%
X79222500Y-85022500D02*
X78100000Y-83900000D01*
X79222500Y-86620000D02*
X79222500Y-85022500D01*
X78100000Y-83900000D02*
X77150000Y-83900000D01*
X74000000Y-71900000D02*
X78785000Y-67115000D01*
X77150000Y-83900000D02*
X74000000Y-80750000D01*
X74000000Y-80750000D02*
X74000000Y-71900000D01*
X78785000Y-67115000D02*
X78785000Y-65860000D01*
%TO.N,SW4{slash}IO14*%
X86850000Y-84550000D02*
X79753726Y-84550000D01*
X87783750Y-86620000D02*
X87783750Y-85483750D01*
X87783750Y-85483750D02*
X86850000Y-84550000D01*
X79753726Y-84550000D02*
X78602726Y-83399000D01*
X74700000Y-80500000D02*
X74700000Y-72400000D01*
X78602726Y-83399000D02*
X77599000Y-83399000D01*
X77599000Y-83399000D02*
X74700000Y-80500000D01*
X74700000Y-72400000D02*
X80055000Y-67045000D01*
X80055000Y-67045000D02*
X80055000Y-65860000D01*
%TD*%
%TA.AperFunction,Conductor*%
%TO.N,+5V*%
G36*
X111462160Y-64819685D02*
G01*
X111482802Y-64836318D01*
X111567607Y-64921123D01*
X111567623Y-64921137D01*
X111567630Y-64921144D01*
X111607848Y-64957271D01*
X111607855Y-64957277D01*
X111607862Y-64957282D01*
X111607868Y-64957288D01*
X111628510Y-64973922D01*
X111672435Y-65005593D01*
X111682678Y-65010270D01*
X111711043Y-65028499D01*
X111774177Y-65052046D01*
X111778197Y-65053882D01*
X111778199Y-65053882D01*
X111803319Y-65065352D01*
X111805915Y-65066114D01*
X111805915Y-65066113D01*
X111829720Y-65073101D01*
X111829743Y-65073107D01*
X111833973Y-65074349D01*
X111845852Y-65078780D01*
X111858197Y-65081465D01*
X111863886Y-65083135D01*
X111864690Y-65083372D01*
X111866554Y-65084017D01*
X111870311Y-65085023D01*
X111870314Y-65085024D01*
X112012730Y-65105500D01*
X112012733Y-65105500D01*
X112643317Y-65105500D01*
X112643326Y-65105500D01*
X112719896Y-65099667D01*
X112757027Y-65093977D01*
X112757039Y-65093974D01*
X112757050Y-65093972D01*
X112826900Y-65077758D01*
X112831820Y-65076616D01*
X112961570Y-65014436D01*
X113019639Y-64975581D01*
X113019647Y-64975575D01*
X113126621Y-64879356D01*
X113139236Y-64858904D01*
X113146822Y-64852080D01*
X113151062Y-64842797D01*
X113172362Y-64829108D01*
X113191184Y-64812179D01*
X113202819Y-64809534D01*
X113209840Y-64805023D01*
X113244775Y-64800000D01*
X113456516Y-64800000D01*
X113523555Y-64819685D01*
X113559004Y-64855134D01*
X113559192Y-64854994D01*
X113560166Y-64856295D01*
X113560830Y-64856959D01*
X113561842Y-64858533D01*
X113561853Y-64858548D01*
X113607597Y-64911340D01*
X113607600Y-64911343D01*
X113607604Y-64911347D01*
X113716338Y-65005567D01*
X113716341Y-65005568D01*
X113716342Y-65005569D01*
X113832975Y-65058835D01*
X113847215Y-65065338D01*
X113914254Y-65085023D01*
X113914258Y-65085024D01*
X114056674Y-65105500D01*
X114056677Y-65105500D01*
X115637272Y-65105500D01*
X115647418Y-65104955D01*
X115691310Y-65102603D01*
X115691318Y-65102602D01*
X115691320Y-65102602D01*
X115691321Y-65102602D01*
X115698314Y-65101849D01*
X115717668Y-65099769D01*
X115717678Y-65099767D01*
X115717681Y-65099767D01*
X115727280Y-65098211D01*
X115771080Y-65091114D01*
X115905889Y-65040832D01*
X115967212Y-65007347D01*
X116082393Y-64921123D01*
X116167198Y-64836317D01*
X116228519Y-64802834D01*
X116254878Y-64800000D01*
X117126000Y-64800000D01*
X117193039Y-64819685D01*
X117238794Y-64872489D01*
X117250000Y-64924000D01*
X117250000Y-80326000D01*
X117230315Y-80393039D01*
X117177511Y-80438794D01*
X117126000Y-80450000D01*
X116073073Y-80450000D01*
X116068536Y-80449215D01*
X116066027Y-80449800D01*
X116052696Y-80446476D01*
X116031434Y-80442800D01*
X116026216Y-80440940D01*
X115986951Y-80422847D01*
X115919981Y-80402936D01*
X115919979Y-80402935D01*
X115919351Y-80402842D01*
X115919350Y-80402842D01*
X115777639Y-80381977D01*
X97627342Y-80320519D01*
X97627329Y-80320520D01*
X97627328Y-80320520D01*
X97627326Y-80320520D01*
X97517319Y-80332253D01*
X97517315Y-80332253D01*
X97517308Y-80332255D01*
X97464625Y-80343809D01*
X97464624Y-80343809D01*
X97359793Y-80379197D01*
X97359790Y-80379199D01*
X97282137Y-80429856D01*
X97215234Y-80449997D01*
X97214388Y-80450000D01*
X95100000Y-80450000D01*
X95100000Y-80815143D01*
X95080315Y-80882182D01*
X95057203Y-80908856D01*
X95038656Y-80924926D01*
X94944433Y-81033664D01*
X94944430Y-81033668D01*
X94884664Y-81164534D01*
X94864976Y-81231582D01*
X94857670Y-81282399D01*
X94848265Y-81347817D01*
X94844500Y-81374001D01*
X94844500Y-89942770D01*
X94835855Y-89972210D01*
X94829332Y-90002197D01*
X94825577Y-90007212D01*
X94824815Y-90009809D01*
X94808181Y-90030451D01*
X94780451Y-90058181D01*
X94719128Y-90091666D01*
X94692770Y-90094500D01*
X93074000Y-90094500D01*
X93006961Y-90074815D01*
X92961206Y-90022011D01*
X92950000Y-89970500D01*
X92950000Y-87563875D01*
X92969685Y-87496836D01*
X93022489Y-87451081D01*
X93032153Y-87447150D01*
X93050911Y-87440430D01*
X93169540Y-87359013D01*
X93217813Y-87314554D01*
X93220412Y-87312321D01*
X93220934Y-87311679D01*
X93220936Y-87311679D01*
X93311820Y-87200137D01*
X93367599Y-87067509D01*
X93385244Y-86999904D01*
X93385244Y-86999903D01*
X93385244Y-86999894D01*
X93385944Y-86994445D01*
X93386028Y-86992963D01*
X93386703Y-86986988D01*
X93401397Y-86856933D01*
X93208911Y-80504931D01*
X93195907Y-80405322D01*
X93195904Y-80405310D01*
X93195904Y-80405307D01*
X93184762Y-80357581D01*
X93184761Y-80357579D01*
X93184759Y-80357569D01*
X93152314Y-80262496D01*
X93152311Y-80262492D01*
X93152311Y-80262490D01*
X93074530Y-80141462D01*
X93074521Y-80141451D01*
X93028777Y-80088659D01*
X93028773Y-80088656D01*
X93028771Y-80088653D01*
X92920037Y-79994433D01*
X92920034Y-79994431D01*
X92920032Y-79994430D01*
X92789166Y-79934664D01*
X92789161Y-79934662D01*
X92789160Y-79934662D01*
X92722121Y-79914977D01*
X92722123Y-79914977D01*
X92722118Y-79914976D01*
X92674645Y-79908150D01*
X92579701Y-79894500D01*
X92579699Y-79894500D01*
X91029500Y-79894500D01*
X90962461Y-79874815D01*
X90916706Y-79822011D01*
X90905500Y-79770500D01*
X90905500Y-77039071D01*
X109874499Y-77039071D01*
X109899497Y-77164738D01*
X109899499Y-77164744D01*
X109948533Y-77283124D01*
X109948538Y-77283133D01*
X110019723Y-77389668D01*
X110019726Y-77389672D01*
X110110327Y-77480273D01*
X110110331Y-77480276D01*
X110216866Y-77551461D01*
X110216872Y-77551464D01*
X110216873Y-77551465D01*
X110335256Y-77600501D01*
X110335260Y-77600501D01*
X110335261Y-77600502D01*
X110460928Y-77625500D01*
X110460931Y-77625500D01*
X110589071Y-77625500D01*
X110673615Y-77608682D01*
X110714744Y-77600501D01*
X110833127Y-77551465D01*
X110939669Y-77480276D01*
X111030276Y-77389669D01*
X111101465Y-77283127D01*
X111150501Y-77164744D01*
X111175500Y-77039069D01*
X111175500Y-76910931D01*
X111175500Y-76910928D01*
X111150502Y-76785261D01*
X111150501Y-76785260D01*
X111150501Y-76785256D01*
X111101465Y-76666873D01*
X111101464Y-76666872D01*
X111101461Y-76666866D01*
X111030276Y-76560331D01*
X111030273Y-76560327D01*
X110939672Y-76469726D01*
X110939668Y-76469723D01*
X110833133Y-76398538D01*
X110833124Y-76398533D01*
X110714744Y-76349499D01*
X110714738Y-76349497D01*
X110589071Y-76324500D01*
X110589069Y-76324500D01*
X110460931Y-76324500D01*
X110460929Y-76324500D01*
X110335261Y-76349497D01*
X110335255Y-76349499D01*
X110216875Y-76398533D01*
X110216866Y-76398538D01*
X110110331Y-76469723D01*
X110110327Y-76469726D01*
X110019726Y-76560327D01*
X110019723Y-76560331D01*
X109948538Y-76666866D01*
X109948533Y-76666875D01*
X109899499Y-76785255D01*
X109899497Y-76785261D01*
X109874500Y-76910928D01*
X109874500Y-76910931D01*
X109874500Y-77039069D01*
X109874500Y-77039071D01*
X109874499Y-77039071D01*
X90905500Y-77039071D01*
X90905500Y-75234637D01*
X90925185Y-75167598D01*
X90977989Y-75121843D01*
X91030506Y-75110641D01*
X102573332Y-75204486D01*
X102677988Y-75194403D01*
X102677993Y-75194402D01*
X102728256Y-75184201D01*
X102728259Y-75184199D01*
X102728264Y-75184199D01*
X102828561Y-75152687D01*
X102951118Y-75077313D01*
X103004818Y-75032613D01*
X103004822Y-75032609D01*
X103101178Y-74925758D01*
X103163527Y-74796089D01*
X103163774Y-74795308D01*
X103184532Y-74729462D01*
X103184532Y-74729460D01*
X103184535Y-74729452D01*
X103207827Y-74587470D01*
X103393182Y-65227044D01*
X103414190Y-65160408D01*
X103467890Y-65115708D01*
X103517158Y-65105500D01*
X108848561Y-65105500D01*
X108848569Y-65105500D01*
X108927374Y-65099320D01*
X108965562Y-65093293D01*
X109042435Y-65074904D01*
X109171623Y-65011563D01*
X109229342Y-64972189D01*
X109335451Y-64875019D01*
X109335453Y-64875016D01*
X109344623Y-64859848D01*
X109396151Y-64812661D01*
X109450738Y-64800000D01*
X111395121Y-64800000D01*
X111462160Y-64819685D01*
G37*
%TD.AperFunction*%
%TD*%
%TA.AperFunction,Conductor*%
%TO.N,GND*%
G36*
X115775922Y-80887474D02*
G01*
X115842892Y-80907385D01*
X115888468Y-80960344D01*
X115899500Y-81011473D01*
X115899500Y-83237769D01*
X115879815Y-83304808D01*
X115863181Y-83325450D01*
X114667050Y-84521580D01*
X114667044Y-84521588D01*
X114617812Y-84595268D01*
X114617813Y-84595269D01*
X114584921Y-84644496D01*
X114584914Y-84644508D01*
X114528342Y-84781086D01*
X114528340Y-84781092D01*
X114499500Y-84926079D01*
X114499500Y-93886385D01*
X114479815Y-93953424D01*
X114448388Y-93986701D01*
X114435356Y-93996169D01*
X114296171Y-94135355D01*
X114180476Y-94294594D01*
X114091117Y-94469970D01*
X114030290Y-94657173D01*
X113999500Y-94851577D01*
X113999500Y-95048422D01*
X114030290Y-95242826D01*
X114091117Y-95430029D01*
X114180476Y-95605405D01*
X114296172Y-95764646D01*
X114435354Y-95903828D01*
X114594595Y-96019524D01*
X114677455Y-96061743D01*
X114769970Y-96108882D01*
X114769972Y-96108882D01*
X114769975Y-96108884D01*
X114870317Y-96141487D01*
X114957173Y-96169709D01*
X115151578Y-96200500D01*
X115151583Y-96200500D01*
X115348422Y-96200500D01*
X115542826Y-96169709D01*
X115592998Y-96153407D01*
X115730025Y-96108884D01*
X115905405Y-96019524D01*
X116064646Y-95903828D01*
X116203828Y-95764646D01*
X116319524Y-95605405D01*
X116408884Y-95430025D01*
X116469709Y-95242826D01*
X116483454Y-95156042D01*
X116500500Y-95048422D01*
X116500500Y-94851577D01*
X116469709Y-94657173D01*
X116409410Y-94471595D01*
X116408884Y-94469975D01*
X116408882Y-94469972D01*
X116408882Y-94469970D01*
X116347499Y-94349500D01*
X116319524Y-94294595D01*
X116203828Y-94135354D01*
X116064646Y-93996172D01*
X116064645Y-93996171D01*
X116064643Y-93996169D01*
X116051612Y-93986701D01*
X116008948Y-93931370D01*
X116000500Y-93886385D01*
X116000500Y-85362230D01*
X116020185Y-85295191D01*
X116036819Y-85274549D01*
X116530282Y-84781086D01*
X117232952Y-84078416D01*
X117282186Y-84004729D01*
X117315084Y-83955495D01*
X117371658Y-83818913D01*
X117400500Y-83673918D01*
X117400500Y-81017395D01*
X117420185Y-80950356D01*
X117472989Y-80904601D01*
X117524915Y-80893396D01*
X119350652Y-80899578D01*
X119417621Y-80919489D01*
X119463197Y-80972448D01*
X119474227Y-81024347D01*
X119425000Y-88950000D01*
X144661168Y-88925258D01*
X144728222Y-88944876D01*
X144774029Y-88997635D01*
X144785285Y-89049257D01*
X144785285Y-95243048D01*
X144765600Y-95310087D01*
X144712796Y-95355842D01*
X144643638Y-95365786D01*
X144580082Y-95336761D01*
X144546724Y-95290500D01*
X144528405Y-95246274D01*
X144416948Y-95053226D01*
X144281247Y-94876376D01*
X144281242Y-94876370D01*
X144123629Y-94718757D01*
X144123622Y-94718751D01*
X143946782Y-94583058D01*
X143946780Y-94583057D01*
X143946774Y-94583052D01*
X143753726Y-94471595D01*
X143753722Y-94471593D01*
X143547790Y-94386293D01*
X143547783Y-94386291D01*
X143547781Y-94386290D01*
X143332463Y-94328596D01*
X143332457Y-94328595D01*
X143332452Y-94328594D01*
X143111466Y-94299501D01*
X143111463Y-94299500D01*
X143111457Y-94299500D01*
X142888543Y-94299500D01*
X142888537Y-94299500D01*
X142888533Y-94299501D01*
X142667547Y-94328594D01*
X142667540Y-94328595D01*
X142667537Y-94328596D01*
X142589522Y-94349500D01*
X142452219Y-94386290D01*
X142452209Y-94386293D01*
X142246277Y-94471593D01*
X142246273Y-94471595D01*
X142053226Y-94583052D01*
X142053217Y-94583058D01*
X141876377Y-94718751D01*
X141876370Y-94718757D01*
X141718757Y-94876370D01*
X141718751Y-94876377D01*
X141583058Y-95053217D01*
X141583052Y-95053226D01*
X141471595Y-95246273D01*
X141471593Y-95246277D01*
X141386293Y-95452209D01*
X141386290Y-95452219D01*
X141328597Y-95667534D01*
X141328594Y-95667547D01*
X141299501Y-95888533D01*
X141299500Y-95888549D01*
X141299500Y-96111450D01*
X141299501Y-96111466D01*
X141328594Y-96332452D01*
X141328595Y-96332457D01*
X141328596Y-96332463D01*
X141360501Y-96451533D01*
X141386290Y-96547780D01*
X141386293Y-96547790D01*
X141440637Y-96678987D01*
X141471595Y-96753726D01*
X141583052Y-96946774D01*
X141583057Y-96946780D01*
X141583058Y-96946782D01*
X141718751Y-97123622D01*
X141718757Y-97123629D01*
X141876370Y-97281242D01*
X141876376Y-97281247D01*
X142053226Y-97416948D01*
X142246274Y-97528405D01*
X142272502Y-97539269D01*
X142290499Y-97546724D01*
X142344902Y-97590565D01*
X142366967Y-97656859D01*
X142349688Y-97724559D01*
X142298550Y-97772169D01*
X142243046Y-97785285D01*
X109774000Y-97785285D01*
X109706961Y-97765600D01*
X109661206Y-97712796D01*
X109650000Y-97661285D01*
X109650000Y-91750000D01*
X97698412Y-91774744D01*
X97631332Y-91755198D01*
X97585468Y-91702489D01*
X97574158Y-91651591D01*
X97550499Y-88181635D01*
X97550499Y-88098878D01*
X97549871Y-88089623D01*
X97501198Y-80950860D01*
X97520425Y-80883689D01*
X97572916Y-80837575D01*
X97625614Y-80826017D01*
X115775922Y-80887474D01*
G37*
%TD.AperFunction*%
%TD*%
%TA.AperFunction,Conductor*%
%TO.N,+3.3V*%
G36*
X96941608Y-81269685D02*
G01*
X96987363Y-81322489D01*
X96998565Y-81373153D01*
X97043629Y-87982503D01*
X97044383Y-88093063D01*
X97044913Y-88107277D01*
X97044999Y-88111897D01*
X97044999Y-88181851D01*
X97045010Y-88185038D01*
X97068669Y-91655026D01*
X97068669Y-91655032D01*
X97080695Y-91761252D01*
X97080696Y-91761255D01*
X97092002Y-91812136D01*
X97092002Y-91812137D01*
X97126084Y-91913430D01*
X97126085Y-91913433D01*
X97204126Y-92034316D01*
X97249983Y-92087016D01*
X97249985Y-92087017D01*
X97249987Y-92087020D01*
X97358917Y-92181015D01*
X97489919Y-92240515D01*
X97555912Y-92259744D01*
X97556937Y-92260053D01*
X97557001Y-92260062D01*
X97699459Y-92280243D01*
X109020243Y-92256804D01*
X109087323Y-92276350D01*
X109133187Y-92329059D01*
X109144500Y-92380804D01*
X109144500Y-97526000D01*
X109124815Y-97593039D01*
X109072011Y-97638794D01*
X109020500Y-97650000D01*
X90829500Y-97650000D01*
X90762461Y-97630315D01*
X90716706Y-97577511D01*
X90705500Y-97526000D01*
X90705500Y-92024510D01*
X90705500Y-92024500D01*
X90693947Y-91917044D01*
X90682741Y-91865533D01*
X90682637Y-91865222D01*
X90648616Y-91763002D01*
X90648613Y-91762996D01*
X90570829Y-91641963D01*
X90568174Y-91638417D01*
X90569862Y-91637152D01*
X90544422Y-91581388D01*
X90543170Y-91562921D01*
X90549103Y-90726368D01*
X90556607Y-90701469D01*
X90560313Y-90675722D01*
X90567942Y-90663854D01*
X90569263Y-90659472D01*
X90579387Y-90646048D01*
X90582218Y-90642781D01*
X90641000Y-90605018D01*
X90675917Y-90600000D01*
X95350000Y-90600000D01*
X95350000Y-81374000D01*
X95369685Y-81306961D01*
X95422489Y-81261206D01*
X95474000Y-81250000D01*
X96874569Y-81250000D01*
X96941608Y-81269685D01*
G37*
%TD.AperFunction*%
%TD*%
%TA.AperFunction,Conductor*%
%TO.N,GND*%
G36*
X54092852Y-40198512D02*
G01*
X54138702Y-40251233D01*
X54150000Y-40302947D01*
X54150000Y-46375500D01*
X54130315Y-46442539D01*
X54077511Y-46488294D01*
X54026000Y-46499500D01*
X51368761Y-46499500D01*
X51301722Y-46479815D01*
X51255967Y-46427011D01*
X51246023Y-46357853D01*
X51263222Y-46310403D01*
X51334814Y-46194334D01*
X51389999Y-46027797D01*
X51400500Y-45925009D01*
X51400499Y-44874992D01*
X51389999Y-44772203D01*
X51334814Y-44605666D01*
X51242712Y-44456344D01*
X51118656Y-44332288D01*
X50969334Y-44240186D01*
X50802797Y-44185001D01*
X50802795Y-44185000D01*
X50700010Y-44174500D01*
X50099998Y-44174500D01*
X50099980Y-44174501D01*
X49997203Y-44185000D01*
X49997200Y-44185001D01*
X49830668Y-44240185D01*
X49830663Y-44240187D01*
X49681342Y-44332289D01*
X49557289Y-44456342D01*
X49465187Y-44605663D01*
X49465186Y-44605666D01*
X49410001Y-44772203D01*
X49410001Y-44772204D01*
X49410000Y-44772204D01*
X49399500Y-44874983D01*
X49399500Y-45925001D01*
X49399501Y-45925019D01*
X49410000Y-46027796D01*
X49410001Y-46027799D01*
X49465185Y-46194331D01*
X49465187Y-46194336D01*
X49557289Y-46343657D01*
X49613181Y-46399549D01*
X49646666Y-46460872D01*
X49649500Y-46487230D01*
X49649500Y-46787770D01*
X49629815Y-46854809D01*
X49613181Y-46875451D01*
X49207047Y-47281584D01*
X49207045Y-47281586D01*
X49178765Y-47323914D01*
X49178763Y-47323917D01*
X49124914Y-47404507D01*
X49068343Y-47541082D01*
X49068340Y-47541092D01*
X49039500Y-47686079D01*
X49039500Y-48262779D01*
X49019815Y-48329818D01*
X48988385Y-48363097D01*
X48910211Y-48419893D01*
X48910205Y-48419898D01*
X48759890Y-48570213D01*
X48634951Y-48742179D01*
X48538444Y-48931585D01*
X48472753Y-49133760D01*
X48439500Y-49343713D01*
X48439500Y-49556287D01*
X48472754Y-49766243D01*
X48525144Y-49927483D01*
X48538444Y-49968414D01*
X48634951Y-50157820D01*
X48759890Y-50329786D01*
X48759896Y-50329792D01*
X48910208Y-50480104D01*
X48988384Y-50536902D01*
X49031051Y-50592231D01*
X49039500Y-50637220D01*
X49039500Y-51463918D01*
X49039500Y-51463920D01*
X49039499Y-51463920D01*
X49068340Y-51608907D01*
X49068343Y-51608917D01*
X49124913Y-51745490D01*
X49124916Y-51745495D01*
X49141119Y-51769746D01*
X49207046Y-51868414D01*
X49207052Y-51868421D01*
X51109944Y-53771311D01*
X51721585Y-54382952D01*
X51762373Y-54410205D01*
X51844505Y-54465084D01*
X51900747Y-54488380D01*
X51981088Y-54521659D01*
X52082712Y-54541873D01*
X52126082Y-54550500D01*
X52126083Y-54550500D01*
X52154705Y-54550500D01*
X52162332Y-54551449D01*
X52183728Y-54560732D01*
X52211171Y-54568382D01*
X52335394Y-54643478D01*
X52497804Y-54694086D01*
X52568384Y-54700500D01*
X52568387Y-54700500D01*
X53231613Y-54700500D01*
X53231616Y-54700500D01*
X53302196Y-54694086D01*
X53464606Y-54643478D01*
X53586352Y-54569879D01*
X53653904Y-54552044D01*
X53720378Y-54573561D01*
X53764666Y-54627602D01*
X53774500Y-54675997D01*
X53774500Y-54771455D01*
X53774500Y-54771457D01*
X53774499Y-54771457D01*
X53802379Y-54911614D01*
X53802382Y-54911624D01*
X53842322Y-55008048D01*
X53849791Y-55077517D01*
X53818516Y-55139996D01*
X53758426Y-55175648D01*
X53727761Y-55179500D01*
X49152328Y-55179500D01*
X49117733Y-55174576D01*
X48972573Y-55132402D01*
X48972567Y-55132401D01*
X48935701Y-55129500D01*
X48935694Y-55129500D01*
X47804306Y-55129500D01*
X47804298Y-55129500D01*
X47767432Y-55132401D01*
X47649338Y-55166711D01*
X47579469Y-55166511D01*
X47527063Y-55135315D01*
X47491265Y-55099517D01*
X47491263Y-55099515D01*
X47394237Y-55043497D01*
X47286018Y-55014500D01*
X47173982Y-55014500D01*
X47065763Y-55043497D01*
X47065760Y-55043498D01*
X46968740Y-55099513D01*
X46968734Y-55099517D01*
X46889517Y-55178734D01*
X46889513Y-55178740D01*
X46833498Y-55275760D01*
X46833497Y-55275763D01*
X46804500Y-55383982D01*
X46804500Y-55496018D01*
X46833497Y-55604237D01*
X46889515Y-55701263D01*
X46968737Y-55780485D01*
X47065763Y-55836503D01*
X47127594Y-55853070D01*
X47187253Y-55889433D01*
X47217783Y-55952279D01*
X47219500Y-55972844D01*
X47219500Y-56145701D01*
X47222401Y-56182567D01*
X47222402Y-56182570D01*
X47244567Y-56258860D01*
X47244368Y-56328730D01*
X47240057Y-56340896D01*
X47235446Y-56352026D01*
X47234312Y-56354766D01*
X47219500Y-56467272D01*
X47219500Y-56692727D01*
X47235374Y-56813292D01*
X47232399Y-56813683D01*
X47232399Y-56846316D01*
X47235374Y-56846708D01*
X47234313Y-56854762D01*
X47234313Y-56854764D01*
X47232462Y-56868826D01*
X47219500Y-56967272D01*
X47219500Y-57146078D01*
X47199815Y-57213117D01*
X47183181Y-57233759D01*
X46938481Y-57478458D01*
X46938479Y-57478460D01*
X46914245Y-57520436D01*
X46897465Y-57549501D01*
X46884011Y-57572804D01*
X46859423Y-57615390D01*
X46858366Y-57619334D01*
X46818499Y-57768119D01*
X46818499Y-57768121D01*
X46818499Y-57936222D01*
X46818500Y-57936235D01*
X46818500Y-58226154D01*
X46818499Y-58226172D01*
X46818499Y-58391878D01*
X46818498Y-58391878D01*
X46856447Y-58533501D01*
X46859423Y-58544609D01*
X46871575Y-58565657D01*
X46879566Y-58579496D01*
X46879567Y-58579500D01*
X46938475Y-58681533D01*
X46938481Y-58681541D01*
X47057349Y-58800409D01*
X47057355Y-58800414D01*
X47183181Y-58926240D01*
X47216666Y-58987563D01*
X47219500Y-59013921D01*
X47219500Y-59192727D01*
X47228054Y-59257695D01*
X47232747Y-59293344D01*
X47235374Y-59313292D01*
X47232399Y-59313683D01*
X47232399Y-59346316D01*
X47235374Y-59346708D01*
X47219500Y-59467272D01*
X47219500Y-59692727D01*
X47228153Y-59758446D01*
X47233527Y-59799269D01*
X47235374Y-59813292D01*
X47232399Y-59813683D01*
X47232399Y-59846316D01*
X47235374Y-59846708D01*
X47219500Y-59967272D01*
X47219500Y-60192727D01*
X47226056Y-60242518D01*
X47233285Y-60297431D01*
X47234313Y-60305235D01*
X47240053Y-60319094D01*
X47247519Y-60388564D01*
X47244567Y-60401137D01*
X47222402Y-60477430D01*
X47222401Y-60477436D01*
X47219500Y-60514298D01*
X47219500Y-60687155D01*
X47199815Y-60754194D01*
X47147011Y-60799949D01*
X47127598Y-60806928D01*
X47099172Y-60814545D01*
X47065761Y-60823497D01*
X47065760Y-60823498D01*
X46968740Y-60879513D01*
X46968734Y-60879517D01*
X46889517Y-60958734D01*
X46889513Y-60958740D01*
X46833498Y-61055760D01*
X46833497Y-61055763D01*
X46804500Y-61163982D01*
X46804500Y-61276018D01*
X46833497Y-61384237D01*
X46889515Y-61481263D01*
X46968737Y-61560485D01*
X47065763Y-61616503D01*
X47173982Y-61645500D01*
X47173984Y-61645500D01*
X47286016Y-61645500D01*
X47286018Y-61645500D01*
X47394237Y-61616503D01*
X47491263Y-61560485D01*
X47527064Y-61524683D01*
X47588384Y-61491199D01*
X47649339Y-61493289D01*
X47767426Y-61527597D01*
X47767429Y-61527597D01*
X47767431Y-61527598D01*
X47804306Y-61530500D01*
X48817770Y-61530500D01*
X48884809Y-61550185D01*
X48905451Y-61566819D01*
X50082018Y-62743386D01*
X50115503Y-62804709D01*
X50112044Y-62870067D01*
X50109651Y-62877288D01*
X50099500Y-62976647D01*
X50099500Y-63523337D01*
X50099501Y-63523355D01*
X50109650Y-63622707D01*
X50109651Y-63622710D01*
X50162996Y-63783694D01*
X50163001Y-63783705D01*
X50252029Y-63928040D01*
X50252032Y-63928044D01*
X50371955Y-64047967D01*
X50371959Y-64047970D01*
X50516294Y-64136998D01*
X50516297Y-64136999D01*
X50516303Y-64137003D01*
X50677292Y-64190349D01*
X50776655Y-64200500D01*
X51623344Y-64200499D01*
X51623352Y-64200498D01*
X51623355Y-64200498D01*
X51677760Y-64194940D01*
X51722708Y-64190349D01*
X51883697Y-64137003D01*
X52028044Y-64047968D01*
X52039193Y-64036819D01*
X52100516Y-64003334D01*
X52126874Y-64000500D01*
X52748126Y-64000500D01*
X52815165Y-64020185D01*
X52835807Y-64036819D01*
X52896955Y-64097967D01*
X52896959Y-64097970D01*
X53041294Y-64186998D01*
X53041297Y-64186999D01*
X53041303Y-64187003D01*
X53202292Y-64240349D01*
X53301655Y-64250500D01*
X53898344Y-64250499D01*
X53898352Y-64250498D01*
X53898355Y-64250498D01*
X53952760Y-64244940D01*
X53997708Y-64240349D01*
X54158697Y-64187003D01*
X54303044Y-64097968D01*
X54314193Y-64086819D01*
X54375516Y-64053334D01*
X54401874Y-64050500D01*
X56923920Y-64050500D01*
X57021462Y-64031096D01*
X57068913Y-64021658D01*
X57205495Y-63965084D01*
X57257567Y-63930291D01*
X57328416Y-63882952D01*
X58482951Y-62728416D01*
X58565084Y-62605495D01*
X58621658Y-62468913D01*
X58639562Y-62378905D01*
X58650500Y-62323920D01*
X58650500Y-61147172D01*
X58653363Y-61137420D01*
X58652097Y-61127338D01*
X58663040Y-61104463D01*
X58670185Y-61080133D01*
X58677864Y-61073478D01*
X58682251Y-61064310D01*
X58703827Y-61050981D01*
X58722989Y-61034378D01*
X58733047Y-61032931D01*
X58741693Y-61027591D01*
X58767045Y-61028043D01*
X58792147Y-61024434D01*
X58803251Y-61028688D01*
X58811552Y-61028837D01*
X58843385Y-61044066D01*
X58884679Y-61071658D01*
X58884680Y-61071658D01*
X58884681Y-61071660D01*
X58884683Y-61071660D01*
X58891873Y-61076465D01*
X59010256Y-61125501D01*
X59010260Y-61125501D01*
X59010261Y-61125502D01*
X59135928Y-61150500D01*
X59135931Y-61150500D01*
X59138511Y-61150500D01*
X59139814Y-61150882D01*
X59141991Y-61151097D01*
X59141950Y-61151509D01*
X59205550Y-61170185D01*
X59239237Y-61204808D01*
X59239906Y-61204285D01*
X59244531Y-61210189D01*
X59364811Y-61330469D01*
X59364813Y-61330470D01*
X59364815Y-61330472D01*
X59510394Y-61418478D01*
X59672804Y-61469086D01*
X59743384Y-61475500D01*
X59743387Y-61475500D01*
X60256613Y-61475500D01*
X60256616Y-61475500D01*
X60327196Y-61469086D01*
X60489606Y-61418478D01*
X60635185Y-61330472D01*
X60679190Y-61286467D01*
X60737319Y-61228339D01*
X60798642Y-61194854D01*
X60868334Y-61199838D01*
X60912681Y-61228339D01*
X61014811Y-61330469D01*
X61014813Y-61330470D01*
X61014815Y-61330472D01*
X61160394Y-61418478D01*
X61322804Y-61469086D01*
X61393384Y-61475500D01*
X61393387Y-61475500D01*
X61906613Y-61475500D01*
X61906616Y-61475500D01*
X61977196Y-61469086D01*
X62139606Y-61418478D01*
X62285185Y-61330472D01*
X62405472Y-61210185D01*
X62435598Y-61160349D01*
X62443532Y-61153083D01*
X62448002Y-61143297D01*
X62468849Y-61129899D01*
X62487126Y-61113162D01*
X62499280Y-61110342D01*
X62506780Y-61105523D01*
X62541715Y-61100500D01*
X62631705Y-61100500D01*
X62698744Y-61120185D01*
X62719386Y-61136819D01*
X66580385Y-64997819D01*
X66613870Y-65059142D01*
X66608886Y-65128834D01*
X66567014Y-65184767D01*
X66501550Y-65209184D01*
X66492704Y-65209500D01*
X65617409Y-65209500D01*
X65491741Y-65234497D01*
X65491735Y-65234499D01*
X65373354Y-65283534D01*
X65266806Y-65354726D01*
X65266805Y-65354727D01*
X64058353Y-66563181D01*
X63997030Y-66596666D01*
X63970672Y-66599500D01*
X57207571Y-66599500D01*
X57084831Y-66623914D01*
X57084832Y-66623915D01*
X57081905Y-66624497D01*
X57081895Y-66624500D01*
X56963516Y-66673534D01*
X56856968Y-66744726D01*
X56856967Y-66744727D01*
X53878104Y-69723592D01*
X53816781Y-69757077D01*
X53790423Y-69759911D01*
X47175518Y-69759911D01*
X47049850Y-69784908D01*
X47049844Y-69784910D01*
X46931464Y-69833944D01*
X46931455Y-69833949D01*
X46824920Y-69905134D01*
X46824916Y-69905137D01*
X45894727Y-70835325D01*
X45894724Y-70835328D01*
X45827503Y-70935933D01*
X45824957Y-70939744D01*
X45823535Y-70941873D01*
X45809173Y-70976544D01*
X45774499Y-71060255D01*
X45774497Y-71060261D01*
X45749500Y-71185928D01*
X45749500Y-72480191D01*
X45729815Y-72547230D01*
X45677011Y-72592985D01*
X45607853Y-72602929D01*
X45544297Y-72573904D01*
X45537819Y-72567872D01*
X44814673Y-71844726D01*
X44807208Y-71839738D01*
X44708127Y-71773535D01*
X44589744Y-71724499D01*
X44589734Y-71724496D01*
X44581570Y-71722872D01*
X44519660Y-71690485D01*
X44485088Y-71629768D01*
X44488831Y-71559998D01*
X44499647Y-71537109D01*
X44543478Y-71464606D01*
X44594086Y-71302196D01*
X44600500Y-71231616D01*
X44600500Y-70568384D01*
X44594086Y-70497804D01*
X44543478Y-70335394D01*
X44455472Y-70189815D01*
X44455470Y-70189813D01*
X44455469Y-70189811D01*
X44441819Y-70176161D01*
X44408334Y-70114838D01*
X44405500Y-70088480D01*
X44405500Y-69757229D01*
X44425185Y-69690190D01*
X44441819Y-69669548D01*
X46774548Y-67336819D01*
X46835871Y-67303334D01*
X46862229Y-67300500D01*
X50273126Y-67300500D01*
X50340165Y-67320185D01*
X50360807Y-67336819D01*
X50371955Y-67347967D01*
X50371959Y-67347970D01*
X50516294Y-67436998D01*
X50516297Y-67436999D01*
X50516303Y-67437003D01*
X50677292Y-67490349D01*
X50776655Y-67500500D01*
X51623344Y-67500499D01*
X51623352Y-67500498D01*
X51623355Y-67500498D01*
X51677760Y-67494940D01*
X51722708Y-67490349D01*
X51883697Y-67437003D01*
X52028044Y-67347968D01*
X52147968Y-67228044D01*
X52237003Y-67083697D01*
X52290349Y-66922708D01*
X52300500Y-66823345D01*
X52300499Y-66276656D01*
X52298000Y-66252196D01*
X52290349Y-66177292D01*
X52290348Y-66177289D01*
X52237003Y-66016303D01*
X52236999Y-66016297D01*
X52236998Y-66016294D01*
X52147970Y-65871959D01*
X52147967Y-65871955D01*
X52028044Y-65752032D01*
X52028040Y-65752029D01*
X51883705Y-65663001D01*
X51883699Y-65662998D01*
X51883697Y-65662997D01*
X51848189Y-65651231D01*
X51722709Y-65609651D01*
X51623346Y-65599500D01*
X50776662Y-65599500D01*
X50776644Y-65599501D01*
X50677292Y-65609650D01*
X50677289Y-65609651D01*
X50516305Y-65662996D01*
X50516294Y-65663001D01*
X50371959Y-65752029D01*
X50371955Y-65752032D01*
X50360807Y-65763181D01*
X50299484Y-65796666D01*
X50273126Y-65799500D01*
X46426076Y-65799500D01*
X46397242Y-65805234D01*
X46397243Y-65805235D01*
X46281093Y-65828339D01*
X46281083Y-65828342D01*
X46201081Y-65861479D01*
X46201082Y-65861480D01*
X46144506Y-65884915D01*
X46144503Y-65884917D01*
X46137173Y-65889815D01*
X46073543Y-65932331D01*
X46073542Y-65932332D01*
X46021586Y-65967046D01*
X46021581Y-65967050D01*
X43200690Y-68787940D01*
X43181902Y-68803360D01*
X43144709Y-68828212D01*
X43144705Y-68828215D01*
X43033213Y-68939707D01*
X43033210Y-68939711D01*
X42945609Y-69070814D01*
X42945602Y-69070827D01*
X42885264Y-69216498D01*
X42885261Y-69216510D01*
X42854500Y-69371153D01*
X42854500Y-69528846D01*
X42885261Y-69683489D01*
X42885263Y-69683497D01*
X42895061Y-69707151D01*
X42896687Y-69715328D01*
X42899477Y-69719669D01*
X42904500Y-69754604D01*
X42904500Y-69989480D01*
X42884815Y-70056519D01*
X42832011Y-70102274D01*
X42762853Y-70112218D01*
X42699297Y-70083193D01*
X42692819Y-70077161D01*
X42685188Y-70069530D01*
X42663665Y-70056519D01*
X42539606Y-69981522D01*
X42377196Y-69930914D01*
X42377194Y-69930913D01*
X42377192Y-69930913D01*
X42327778Y-69926423D01*
X42306616Y-69924500D01*
X41793384Y-69924500D01*
X41774145Y-69926248D01*
X41722807Y-69930913D01*
X41560393Y-69981522D01*
X41414811Y-70069530D01*
X41294530Y-70189811D01*
X41206522Y-70335393D01*
X41155913Y-70497807D01*
X41149500Y-70568386D01*
X41149500Y-71231613D01*
X41155913Y-71302192D01*
X41155913Y-71302194D01*
X41155914Y-71302196D01*
X41206522Y-71464606D01*
X41294528Y-71610185D01*
X41318181Y-71633838D01*
X41351666Y-71695159D01*
X41354500Y-71721519D01*
X41354500Y-72019069D01*
X41354500Y-72019071D01*
X41354499Y-72019071D01*
X41379497Y-72144738D01*
X41379499Y-72144744D01*
X41428535Y-72263127D01*
X41476435Y-72334815D01*
X41499726Y-72369673D01*
X41985327Y-72855274D01*
X42056449Y-72902796D01*
X42060163Y-72905277D01*
X42091873Y-72926465D01*
X42210256Y-72975501D01*
X42210260Y-72975501D01*
X42210261Y-72975502D01*
X42335928Y-73000500D01*
X42335931Y-73000500D01*
X43791702Y-73000500D01*
X43858741Y-73020185D01*
X43904496Y-73072989D01*
X43914440Y-73142147D01*
X43892020Y-73197385D01*
X43842187Y-73265974D01*
X43742104Y-73462393D01*
X43742103Y-73462396D01*
X43673985Y-73672047D01*
X43639500Y-73889778D01*
X43639500Y-74110221D01*
X43673985Y-74327952D01*
X43742103Y-74537603D01*
X43742104Y-74537606D01*
X43796366Y-74644099D01*
X43819142Y-74688799D01*
X43842187Y-74734025D01*
X43971752Y-74912358D01*
X43971756Y-74912363D01*
X44127636Y-75068243D01*
X44127641Y-75068247D01*
X44266971Y-75169475D01*
X44305978Y-75197815D01*
X44392921Y-75242115D01*
X44502393Y-75297895D01*
X44502396Y-75297896D01*
X44607221Y-75331955D01*
X44712049Y-75366015D01*
X44929778Y-75400500D01*
X44929779Y-75400500D01*
X45150221Y-75400500D01*
X45150222Y-75400500D01*
X45367951Y-75366015D01*
X45577606Y-75297895D01*
X45577613Y-75297891D01*
X45578037Y-75297716D01*
X45578217Y-75297696D01*
X45582239Y-75296390D01*
X45582513Y-75297234D01*
X45647505Y-75290241D01*
X45709987Y-75321510D01*
X45745645Y-75381596D01*
X45749500Y-75412273D01*
X45749500Y-77729443D01*
X45729815Y-77796482D01*
X45677011Y-77842237D01*
X45607853Y-77852181D01*
X45556609Y-77832545D01*
X45443659Y-77757074D01*
X45443650Y-77757069D01*
X45311620Y-77702381D01*
X45311614Y-77702379D01*
X45171457Y-77674500D01*
X45171455Y-77674500D01*
X45028545Y-77674500D01*
X45028543Y-77674500D01*
X44888385Y-77702379D01*
X44888379Y-77702381D01*
X44756348Y-77757069D01*
X44724124Y-77778602D01*
X44706077Y-77784252D01*
X44690168Y-77794477D01*
X44659206Y-77798928D01*
X44657446Y-77799480D01*
X44655233Y-77799500D01*
X44591715Y-77799500D01*
X44524676Y-77779815D01*
X44485598Y-77739650D01*
X44479428Y-77729443D01*
X44455472Y-77689815D01*
X44455470Y-77689813D01*
X44455469Y-77689811D01*
X44335188Y-77569530D01*
X44189606Y-77481522D01*
X44027196Y-77430914D01*
X44027194Y-77430913D01*
X44027192Y-77430913D01*
X43977778Y-77426423D01*
X43956616Y-77424500D01*
X43443384Y-77424500D01*
X43424145Y-77426248D01*
X43372807Y-77430913D01*
X43210393Y-77481522D01*
X43064811Y-77569530D01*
X43064810Y-77569531D01*
X42962681Y-77671661D01*
X42901358Y-77705146D01*
X42831666Y-77700162D01*
X42787319Y-77671661D01*
X42685188Y-77569530D01*
X42539606Y-77481522D01*
X42377196Y-77430914D01*
X42377194Y-77430913D01*
X42377192Y-77430913D01*
X42327778Y-77426423D01*
X42306616Y-77424500D01*
X41793384Y-77424500D01*
X41774145Y-77426248D01*
X41722807Y-77430913D01*
X41560393Y-77481522D01*
X41414811Y-77569530D01*
X41294530Y-77689811D01*
X41206522Y-77835393D01*
X41155913Y-77997807D01*
X41149500Y-78068386D01*
X41149500Y-78731613D01*
X41155913Y-78802192D01*
X41155913Y-78802194D01*
X41155914Y-78802196D01*
X41206522Y-78964606D01*
X41294528Y-79110185D01*
X41363182Y-79178839D01*
X41396666Y-79240160D01*
X41399500Y-79266519D01*
X41399500Y-79714071D01*
X41418633Y-79810254D01*
X41418633Y-79810255D01*
X41424497Y-79839737D01*
X41424498Y-79839741D01*
X41424499Y-79839744D01*
X41473535Y-79958127D01*
X41535256Y-80050500D01*
X41544726Y-80064673D01*
X41985328Y-80505275D01*
X41985331Y-80505277D01*
X42062379Y-80556758D01*
X42091873Y-80576465D01*
X42210256Y-80625501D01*
X42210260Y-80625501D01*
X42210261Y-80625502D01*
X42335928Y-80650500D01*
X42335931Y-80650500D01*
X43773538Y-80650500D01*
X43840577Y-80670185D01*
X43886332Y-80722989D01*
X43896276Y-80792147D01*
X43873857Y-80847385D01*
X43842184Y-80890978D01*
X43742104Y-81087393D01*
X43742103Y-81087396D01*
X43673985Y-81297047D01*
X43661718Y-81374500D01*
X43639500Y-81514778D01*
X43639500Y-81735222D01*
X43656742Y-81844086D01*
X43673985Y-81952952D01*
X43742103Y-82162603D01*
X43742104Y-82162606D01*
X43842187Y-82359025D01*
X43971752Y-82537358D01*
X43971756Y-82537363D01*
X44127636Y-82693243D01*
X44127641Y-82693247D01*
X44238097Y-82773497D01*
X44305978Y-82822815D01*
X44434375Y-82888237D01*
X44502393Y-82922895D01*
X44502396Y-82922896D01*
X44607221Y-82956955D01*
X44712049Y-82991015D01*
X44929778Y-83025500D01*
X44929779Y-83025500D01*
X45150221Y-83025500D01*
X45150222Y-83025500D01*
X45367951Y-82991015D01*
X45577606Y-82922895D01*
X45577613Y-82922891D01*
X45578037Y-82922716D01*
X45578217Y-82922696D01*
X45582239Y-82921390D01*
X45582513Y-82922234D01*
X45647505Y-82915241D01*
X45709987Y-82946510D01*
X45745645Y-83006596D01*
X45749500Y-83037273D01*
X45749500Y-84679192D01*
X45729815Y-84746231D01*
X45713181Y-84766873D01*
X45066873Y-85413181D01*
X45039945Y-85427884D01*
X45014127Y-85444477D01*
X45007926Y-85445368D01*
X45005550Y-85446666D01*
X44979192Y-85449500D01*
X44761489Y-85449500D01*
X44694450Y-85429815D01*
X44660762Y-85395191D01*
X44660094Y-85395715D01*
X44655468Y-85389810D01*
X44535188Y-85269530D01*
X44389606Y-85181522D01*
X44370643Y-85175613D01*
X44227196Y-85130914D01*
X44227194Y-85130913D01*
X44227192Y-85130913D01*
X44177778Y-85126423D01*
X44156616Y-85124500D01*
X43643384Y-85124500D01*
X43624145Y-85126248D01*
X43572807Y-85130913D01*
X43410393Y-85181522D01*
X43264811Y-85269530D01*
X43264810Y-85269531D01*
X43162681Y-85371661D01*
X43101358Y-85405146D01*
X43031666Y-85400162D01*
X42987319Y-85371661D01*
X42885188Y-85269530D01*
X42739606Y-85181522D01*
X42720643Y-85175613D01*
X42577196Y-85130914D01*
X42577194Y-85130913D01*
X42577192Y-85130913D01*
X42527778Y-85126423D01*
X42506616Y-85124500D01*
X41993384Y-85124500D01*
X41974145Y-85126248D01*
X41922807Y-85130913D01*
X41760393Y-85181522D01*
X41614811Y-85269530D01*
X41494530Y-85389811D01*
X41406522Y-85535393D01*
X41355913Y-85697807D01*
X41349500Y-85768386D01*
X41349500Y-86431613D01*
X41355913Y-86502192D01*
X41355913Y-86502194D01*
X41355914Y-86502196D01*
X41406522Y-86664606D01*
X41494528Y-86810185D01*
X41563182Y-86878839D01*
X41596666Y-86940160D01*
X41599500Y-86966519D01*
X41599500Y-87114069D01*
X41617355Y-87203828D01*
X41622185Y-87228110D01*
X41624499Y-87239744D01*
X41671429Y-87353044D01*
X41673535Y-87358127D01*
X41744723Y-87464669D01*
X41744726Y-87464673D01*
X42285328Y-88005275D01*
X42285331Y-88005277D01*
X42355535Y-88052185D01*
X42391873Y-88076465D01*
X42510256Y-88125501D01*
X42510260Y-88125501D01*
X42510261Y-88125502D01*
X42635928Y-88150500D01*
X42635931Y-88150500D01*
X43864355Y-88150500D01*
X43931394Y-88170185D01*
X43977149Y-88222989D01*
X43987093Y-88292147D01*
X43964673Y-88347385D01*
X43842187Y-88515974D01*
X43742104Y-88712393D01*
X43742103Y-88712396D01*
X43673985Y-88922047D01*
X43639500Y-89139778D01*
X43639500Y-89360221D01*
X43673985Y-89577952D01*
X43742103Y-89787603D01*
X43742104Y-89787606D01*
X43842187Y-89984025D01*
X43971752Y-90162358D01*
X43971756Y-90162363D01*
X44127636Y-90318243D01*
X44127641Y-90318247D01*
X44283192Y-90431260D01*
X44305978Y-90447815D01*
X44434375Y-90513237D01*
X44502393Y-90547895D01*
X44502396Y-90547896D01*
X44607221Y-90581955D01*
X44712049Y-90616015D01*
X44929778Y-90650500D01*
X44929779Y-90650500D01*
X45150221Y-90650500D01*
X45150222Y-90650500D01*
X45367951Y-90616015D01*
X45577606Y-90547895D01*
X45774022Y-90447815D01*
X45952365Y-90318242D01*
X46108242Y-90162365D01*
X46237815Y-89984022D01*
X46337895Y-89787606D01*
X46406015Y-89577951D01*
X46440500Y-89360222D01*
X46440500Y-89139778D01*
X46406015Y-88922049D01*
X46337895Y-88712394D01*
X46337895Y-88712393D01*
X46267383Y-88574008D01*
X46237815Y-88515978D01*
X46221260Y-88493192D01*
X46108247Y-88337641D01*
X46108243Y-88337636D01*
X45952363Y-88181756D01*
X45952358Y-88181752D01*
X45774023Y-88052185D01*
X45729272Y-88029383D01*
X45678477Y-87981409D01*
X45666906Y-87954890D01*
X45665502Y-87950263D01*
X45665501Y-87950256D01*
X45616465Y-87831873D01*
X45545277Y-87725331D01*
X45545275Y-87725329D01*
X45545273Y-87725326D01*
X44814671Y-86994724D01*
X44789045Y-86977602D01*
X44744240Y-86923990D01*
X44735533Y-86854665D01*
X44765687Y-86791638D01*
X44825130Y-86754918D01*
X44857936Y-86750500D01*
X45364071Y-86750500D01*
X45448615Y-86733682D01*
X45489744Y-86725501D01*
X45608127Y-86676465D01*
X45625780Y-86664670D01*
X45625781Y-86664670D01*
X45692295Y-86620226D01*
X45714669Y-86605277D01*
X45971529Y-86348417D01*
X46168370Y-86151577D01*
X48099500Y-86151577D01*
X48099500Y-86348422D01*
X48130290Y-86542826D01*
X48191117Y-86730029D01*
X48266939Y-86878837D01*
X48280476Y-86905405D01*
X48396172Y-87064646D01*
X48535354Y-87203828D01*
X48694595Y-87319524D01*
X48760374Y-87353040D01*
X48869970Y-87408882D01*
X48869972Y-87408882D01*
X48869975Y-87408884D01*
X48939275Y-87431401D01*
X49057173Y-87469709D01*
X49251578Y-87500500D01*
X49251583Y-87500500D01*
X49448421Y-87500500D01*
X49547323Y-87484835D01*
X49586411Y-87478644D01*
X49655704Y-87487598D01*
X49693490Y-87513436D01*
X51835324Y-89655271D01*
X51835327Y-89655274D01*
X51902612Y-89700232D01*
X51941866Y-89726461D01*
X51941872Y-89726464D01*
X51941873Y-89726465D01*
X52060256Y-89775501D01*
X52060260Y-89775501D01*
X52060261Y-89775502D01*
X52185928Y-89800500D01*
X52185931Y-89800500D01*
X52471408Y-89800500D01*
X52538447Y-89820185D01*
X52581893Y-89868205D01*
X52616657Y-89936433D01*
X52755483Y-90127510D01*
X52922490Y-90294517D01*
X53113567Y-90433343D01*
X53183377Y-90468913D01*
X53324003Y-90540566D01*
X53324005Y-90540566D01*
X53324008Y-90540568D01*
X53444412Y-90579689D01*
X53548631Y-90613553D01*
X53781903Y-90650500D01*
X53781908Y-90650500D01*
X54018097Y-90650500D01*
X54251368Y-90613553D01*
X54276180Y-90605491D01*
X54475992Y-90540568D01*
X54686433Y-90433343D01*
X54877510Y-90294517D01*
X55044517Y-90127510D01*
X55183343Y-89936433D01*
X55289192Y-89728693D01*
X55290566Y-89725996D01*
X55290566Y-89725995D01*
X55290568Y-89725992D01*
X55363553Y-89501368D01*
X55376157Y-89421789D01*
X55400500Y-89268097D01*
X55400500Y-89031902D01*
X55363553Y-88798631D01*
X55290566Y-88574003D01*
X55212515Y-88420821D01*
X55183343Y-88363567D01*
X55044517Y-88172490D01*
X54877510Y-88005483D01*
X54686433Y-87866657D01*
X54686432Y-87866656D01*
X54686430Y-87866655D01*
X54668201Y-87857366D01*
X54657138Y-87846917D01*
X54643297Y-87840596D01*
X54632255Y-87823414D01*
X54617407Y-87809390D01*
X54613166Y-87793711D01*
X54605523Y-87781818D01*
X54600500Y-87746883D01*
X54600500Y-87551874D01*
X54620185Y-87484835D01*
X54636819Y-87464193D01*
X54692130Y-87408882D01*
X54747968Y-87353044D01*
X54837003Y-87208697D01*
X54890349Y-87047708D01*
X54900500Y-86948345D01*
X54900499Y-86351656D01*
X54890349Y-86252292D01*
X54837003Y-86091303D01*
X54836999Y-86091297D01*
X54836998Y-86091294D01*
X54747970Y-85946959D01*
X54747967Y-85946955D01*
X54628044Y-85827032D01*
X54628040Y-85827029D01*
X54483705Y-85738001D01*
X54483699Y-85737998D01*
X54483697Y-85737997D01*
X54373622Y-85701522D01*
X54322709Y-85684651D01*
X54223346Y-85674500D01*
X53676662Y-85674500D01*
X53676644Y-85674501D01*
X53577292Y-85684650D01*
X53577289Y-85684651D01*
X53416305Y-85737996D01*
X53416294Y-85738001D01*
X53271959Y-85827029D01*
X53271955Y-85827032D01*
X53152032Y-85946955D01*
X53152029Y-85946959D01*
X53063001Y-86091294D01*
X53062996Y-86091305D01*
X53009651Y-86252290D01*
X52999500Y-86351647D01*
X52999500Y-86948337D01*
X52999501Y-86948355D01*
X53009650Y-87047707D01*
X53009651Y-87047710D01*
X53062996Y-87208694D01*
X53063001Y-87208705D01*
X53152029Y-87353040D01*
X53152032Y-87353044D01*
X53263181Y-87464193D01*
X53277884Y-87491120D01*
X53294477Y-87516939D01*
X53295368Y-87523139D01*
X53296666Y-87525516D01*
X53299500Y-87551874D01*
X53299500Y-87695931D01*
X53279815Y-87762970D01*
X53231796Y-87806415D01*
X53113568Y-87866655D01*
X52998503Y-87950256D01*
X52922490Y-88005483D01*
X52922488Y-88005485D01*
X52922487Y-88005485D01*
X52755485Y-88172487D01*
X52755485Y-88172488D01*
X52755483Y-88172490D01*
X52718793Y-88222989D01*
X52616653Y-88363571D01*
X52615437Y-88365959D01*
X52614735Y-88366701D01*
X52614112Y-88367719D01*
X52613898Y-88367587D01*
X52567457Y-88416749D01*
X52499634Y-88433537D01*
X52433502Y-88410991D01*
X52417278Y-88397332D01*
X50613436Y-86593490D01*
X50579951Y-86532167D01*
X50578644Y-86486410D01*
X50600500Y-86348421D01*
X50600500Y-86151577D01*
X50569709Y-85957173D01*
X50524463Y-85817922D01*
X50508884Y-85769975D01*
X50508882Y-85769972D01*
X50508882Y-85769970D01*
X50444952Y-85644500D01*
X50419524Y-85594595D01*
X50303828Y-85435354D01*
X50164646Y-85296172D01*
X50005405Y-85180476D01*
X49995882Y-85175624D01*
X49830029Y-85091117D01*
X49642826Y-85030290D01*
X49448422Y-84999500D01*
X49448417Y-84999500D01*
X49251583Y-84999500D01*
X49251578Y-84999500D01*
X49057173Y-85030290D01*
X48869970Y-85091117D01*
X48694594Y-85180476D01*
X48617046Y-85236819D01*
X48535354Y-85296172D01*
X48535352Y-85296174D01*
X48535351Y-85296174D01*
X48396174Y-85435351D01*
X48396174Y-85435352D01*
X48396172Y-85435354D01*
X48371794Y-85468907D01*
X48280476Y-85594594D01*
X48191117Y-85769970D01*
X48130290Y-85957173D01*
X48099500Y-86151577D01*
X46168370Y-86151577D01*
X46260917Y-86059030D01*
X46905272Y-85414674D01*
X46905273Y-85414673D01*
X46905277Y-85414669D01*
X46976465Y-85308127D01*
X47025501Y-85189744D01*
X47046271Y-85085331D01*
X47050500Y-85064071D01*
X47050500Y-75594499D01*
X47070185Y-75527460D01*
X47122989Y-75481705D01*
X47174495Y-75470499D01*
X48175008Y-75470499D01*
X48175016Y-75470498D01*
X48175019Y-75470498D01*
X48231302Y-75464748D01*
X48277797Y-75459999D01*
X48444334Y-75404814D01*
X48593656Y-75312712D01*
X48649549Y-75256819D01*
X48676476Y-75242115D01*
X48702295Y-75225523D01*
X48708495Y-75224631D01*
X48710872Y-75223334D01*
X48737230Y-75220500D01*
X48743126Y-75220500D01*
X48810165Y-75240185D01*
X48830807Y-75256819D01*
X48846955Y-75272967D01*
X48846959Y-75272970D01*
X48991294Y-75361998D01*
X48991297Y-75361999D01*
X48991303Y-75362003D01*
X49152292Y-75415349D01*
X49251655Y-75425500D01*
X49848344Y-75425499D01*
X49848352Y-75425498D01*
X49848355Y-75425498D01*
X49919651Y-75418215D01*
X49947708Y-75415349D01*
X50108697Y-75362003D01*
X50190931Y-75311279D01*
X50258322Y-75292839D01*
X50324986Y-75313761D01*
X50369756Y-75367402D01*
X50378418Y-75436733D01*
X50378011Y-75439091D01*
X50377402Y-75442424D01*
X50374500Y-75479298D01*
X50374500Y-75910701D01*
X50377401Y-75947567D01*
X50377402Y-75947573D01*
X50423254Y-76105393D01*
X50423255Y-76105396D01*
X50423256Y-76105398D01*
X50460681Y-76168681D01*
X50506917Y-76246862D01*
X50511702Y-76253031D01*
X50509256Y-76254927D01*
X50535857Y-76303642D01*
X50530873Y-76373334D01*
X50510069Y-76405703D01*
X50511702Y-76406969D01*
X50506917Y-76413137D01*
X50423255Y-76554603D01*
X50423254Y-76554606D01*
X50377402Y-76712426D01*
X50377401Y-76712432D01*
X50374500Y-76749298D01*
X50374500Y-77180701D01*
X50377401Y-77217567D01*
X50377402Y-77217573D01*
X50423254Y-77375393D01*
X50423255Y-77375396D01*
X50506917Y-77516862D01*
X50506923Y-77516870D01*
X50623129Y-77633076D01*
X50623133Y-77633079D01*
X50623135Y-77633081D01*
X50764602Y-77716744D01*
X50806224Y-77728836D01*
X50922426Y-77762597D01*
X50922429Y-77762597D01*
X50922431Y-77762598D01*
X50959306Y-77765500D01*
X50959314Y-77765500D01*
X52840686Y-77765500D01*
X52840694Y-77765500D01*
X52877569Y-77762598D01*
X52877571Y-77762597D01*
X52877573Y-77762597D01*
X52919191Y-77750505D01*
X53035398Y-77716744D01*
X53176865Y-77633081D01*
X53293081Y-77516865D01*
X53376744Y-77375398D01*
X53422598Y-77217569D01*
X53425500Y-77180694D01*
X53425500Y-76749306D01*
X53422598Y-76712431D01*
X53417685Y-76695522D01*
X53376745Y-76554606D01*
X53376744Y-76554603D01*
X53376744Y-76554602D01*
X53293081Y-76413135D01*
X53293078Y-76413132D01*
X53288298Y-76406969D01*
X53290750Y-76405066D01*
X53264155Y-76356421D01*
X53269104Y-76286726D01*
X53289940Y-76254304D01*
X53288298Y-76253031D01*
X53293075Y-76246870D01*
X53293081Y-76246865D01*
X53376744Y-76105398D01*
X53422598Y-75947569D01*
X53425500Y-75910694D01*
X53425500Y-75479306D01*
X53422598Y-75442431D01*
X53419304Y-75431092D01*
X53391124Y-75334095D01*
X53391323Y-75264225D01*
X53429265Y-75205555D01*
X53492904Y-75176712D01*
X53510200Y-75175500D01*
X54212770Y-75175500D01*
X54279809Y-75195185D01*
X54300451Y-75211819D01*
X56413181Y-77324548D01*
X56446666Y-77385871D01*
X56449500Y-77412229D01*
X56449500Y-85323918D01*
X56449500Y-85323920D01*
X56449499Y-85323920D01*
X56478340Y-85468907D01*
X56478343Y-85468917D01*
X56534913Y-85605489D01*
X56534914Y-85605491D01*
X56534916Y-85605495D01*
X56547613Y-85624498D01*
X56547614Y-85624501D01*
X56617046Y-85728414D01*
X56617052Y-85728421D01*
X57736488Y-86847855D01*
X58091585Y-87202952D01*
X58109874Y-87215172D01*
X58129237Y-87228110D01*
X58129241Y-87228112D01*
X58132373Y-87230205D01*
X58214505Y-87285084D01*
X58249311Y-87299501D01*
X58351088Y-87341659D01*
X58467241Y-87364763D01*
X58486468Y-87368587D01*
X58496081Y-87370500D01*
X58496082Y-87370500D01*
X58496083Y-87370500D01*
X58643918Y-87370500D01*
X59575500Y-87370500D01*
X59642539Y-87390185D01*
X59688294Y-87442989D01*
X59699500Y-87494500D01*
X59699500Y-90323918D01*
X59699500Y-90323920D01*
X59699499Y-90323920D01*
X59728340Y-90468907D01*
X59728343Y-90468917D01*
X59784914Y-90605491D01*
X59784916Y-90605495D01*
X59805052Y-90635631D01*
X59814986Y-90650499D01*
X59867049Y-90728418D01*
X59867052Y-90728421D01*
X60767049Y-91628416D01*
X60871584Y-91732951D01*
X60871585Y-91732952D01*
X60994498Y-91815080D01*
X60994511Y-91815087D01*
X61131082Y-91871656D01*
X61131087Y-91871658D01*
X61131091Y-91871658D01*
X61131092Y-91871659D01*
X61276079Y-91900500D01*
X90076000Y-91900500D01*
X90143039Y-91920185D01*
X90188794Y-91972989D01*
X90200000Y-92024500D01*
X90200000Y-97661285D01*
X90180315Y-97728324D01*
X90127511Y-97774079D01*
X90076000Y-97785285D01*
X42756954Y-97785285D01*
X42689915Y-97765600D01*
X42644160Y-97712796D01*
X42634216Y-97643638D01*
X42663241Y-97580082D01*
X42709501Y-97546724D01*
X42722598Y-97541298D01*
X42753726Y-97528405D01*
X42946774Y-97416948D01*
X43123624Y-97281247D01*
X43281247Y-97123624D01*
X43416948Y-96946774D01*
X43528405Y-96753726D01*
X43613710Y-96547781D01*
X43671404Y-96332463D01*
X43700500Y-96111457D01*
X43700500Y-95888543D01*
X43671404Y-95667537D01*
X43635061Y-95531902D01*
X52399500Y-95531902D01*
X52399500Y-95768097D01*
X52436446Y-96001368D01*
X52509433Y-96225996D01*
X52589514Y-96383162D01*
X52616657Y-96436433D01*
X52755483Y-96627510D01*
X52922490Y-96794517D01*
X53113567Y-96933343D01*
X53139943Y-96946782D01*
X53324003Y-97040566D01*
X53324005Y-97040566D01*
X53324008Y-97040568D01*
X53444412Y-97079689D01*
X53548631Y-97113553D01*
X53781903Y-97150500D01*
X53781908Y-97150500D01*
X54018097Y-97150500D01*
X54251368Y-97113553D01*
X54268440Y-97108006D01*
X54475992Y-97040568D01*
X54686433Y-96933343D01*
X54877510Y-96794517D01*
X55044517Y-96627510D01*
X55183343Y-96436433D01*
X55290568Y-96225992D01*
X55363553Y-96001368D01*
X55368038Y-95973049D01*
X55400500Y-95768097D01*
X55400500Y-95531902D01*
X60949500Y-95531902D01*
X60949500Y-95768097D01*
X60986446Y-96001368D01*
X61059433Y-96225996D01*
X61139514Y-96383162D01*
X61166657Y-96436433D01*
X61305483Y-96627510D01*
X61472490Y-96794517D01*
X61663567Y-96933343D01*
X61689943Y-96946782D01*
X61874003Y-97040566D01*
X61874005Y-97040566D01*
X61874008Y-97040568D01*
X61994412Y-97079689D01*
X62098631Y-97113553D01*
X62331903Y-97150500D01*
X62331908Y-97150500D01*
X62568097Y-97150500D01*
X62801368Y-97113553D01*
X62818440Y-97108006D01*
X63025992Y-97040568D01*
X63236433Y-96933343D01*
X63427510Y-96794517D01*
X63594517Y-96627510D01*
X63733343Y-96436433D01*
X63840568Y-96225992D01*
X63913553Y-96001368D01*
X63918038Y-95973049D01*
X63950500Y-95768097D01*
X63950500Y-95531902D01*
X69499500Y-95531902D01*
X69499500Y-95768097D01*
X69536446Y-96001368D01*
X69609433Y-96225996D01*
X69689514Y-96383162D01*
X69716657Y-96436433D01*
X69855483Y-96627510D01*
X70022490Y-96794517D01*
X70213567Y-96933343D01*
X70239943Y-96946782D01*
X70424003Y-97040566D01*
X70424005Y-97040566D01*
X70424008Y-97040568D01*
X70544412Y-97079689D01*
X70648631Y-97113553D01*
X70881903Y-97150500D01*
X70881908Y-97150500D01*
X71118097Y-97150500D01*
X71351368Y-97113553D01*
X71368440Y-97108006D01*
X71575992Y-97040568D01*
X71786433Y-96933343D01*
X71977510Y-96794517D01*
X72144517Y-96627510D01*
X72283343Y-96436433D01*
X72390568Y-96225992D01*
X72463553Y-96001368D01*
X72468038Y-95973049D01*
X72500500Y-95768097D01*
X72500500Y-95531902D01*
X78049500Y-95531902D01*
X78049500Y-95768097D01*
X78086446Y-96001368D01*
X78159433Y-96225996D01*
X78239514Y-96383162D01*
X78266657Y-96436433D01*
X78405483Y-96627510D01*
X78572490Y-96794517D01*
X78763567Y-96933343D01*
X78789943Y-96946782D01*
X78974003Y-97040566D01*
X78974005Y-97040566D01*
X78974008Y-97040568D01*
X79094412Y-97079689D01*
X79198631Y-97113553D01*
X79431903Y-97150500D01*
X79431908Y-97150500D01*
X79668097Y-97150500D01*
X79901368Y-97113553D01*
X79918440Y-97108006D01*
X80125992Y-97040568D01*
X80336433Y-96933343D01*
X80527510Y-96794517D01*
X80694517Y-96627510D01*
X80833343Y-96436433D01*
X80940568Y-96225992D01*
X81013553Y-96001368D01*
X81018038Y-95973049D01*
X81050500Y-95768097D01*
X81050500Y-95531902D01*
X86599500Y-95531902D01*
X86599500Y-95768097D01*
X86636446Y-96001368D01*
X86709433Y-96225996D01*
X86789514Y-96383162D01*
X86816657Y-96436433D01*
X86955483Y-96627510D01*
X87122490Y-96794517D01*
X87313567Y-96933343D01*
X87339943Y-96946782D01*
X87524003Y-97040566D01*
X87524005Y-97040566D01*
X87524008Y-97040568D01*
X87644412Y-97079689D01*
X87748631Y-97113553D01*
X87981903Y-97150500D01*
X87981908Y-97150500D01*
X88218097Y-97150500D01*
X88451368Y-97113553D01*
X88468440Y-97108006D01*
X88675992Y-97040568D01*
X88886433Y-96933343D01*
X89077510Y-96794517D01*
X89244517Y-96627510D01*
X89383343Y-96436433D01*
X89490568Y-96225992D01*
X89563553Y-96001368D01*
X89568038Y-95973049D01*
X89600500Y-95768097D01*
X89600500Y-95531902D01*
X89563553Y-95298631D01*
X89529689Y-95194412D01*
X89490568Y-95074008D01*
X89490566Y-95074005D01*
X89490566Y-95074003D01*
X89389870Y-94876377D01*
X89383343Y-94863567D01*
X89244517Y-94672490D01*
X89077510Y-94505483D01*
X88886433Y-94366657D01*
X88675996Y-94259433D01*
X88451368Y-94186446D01*
X88218097Y-94149500D01*
X88218092Y-94149500D01*
X87981908Y-94149500D01*
X87981903Y-94149500D01*
X87748631Y-94186446D01*
X87524003Y-94259433D01*
X87313566Y-94366657D01*
X87236593Y-94422582D01*
X87122490Y-94505483D01*
X87122488Y-94505485D01*
X87122487Y-94505485D01*
X86955485Y-94672487D01*
X86955485Y-94672488D01*
X86955483Y-94672490D01*
X86921871Y-94718753D01*
X86816657Y-94863566D01*
X86709433Y-95074003D01*
X86636446Y-95298631D01*
X86599500Y-95531902D01*
X81050500Y-95531902D01*
X81013553Y-95298631D01*
X80979689Y-95194412D01*
X80940568Y-95074008D01*
X80940566Y-95074005D01*
X80940566Y-95074003D01*
X80839870Y-94876377D01*
X80833343Y-94863567D01*
X80694517Y-94672490D01*
X80527510Y-94505483D01*
X80336433Y-94366657D01*
X80125996Y-94259433D01*
X79901368Y-94186446D01*
X79668097Y-94149500D01*
X79668092Y-94149500D01*
X79431908Y-94149500D01*
X79431903Y-94149500D01*
X79198631Y-94186446D01*
X78974003Y-94259433D01*
X78763566Y-94366657D01*
X78686593Y-94422582D01*
X78572490Y-94505483D01*
X78572488Y-94505485D01*
X78572487Y-94505485D01*
X78405485Y-94672487D01*
X78405485Y-94672488D01*
X78405483Y-94672490D01*
X78371871Y-94718753D01*
X78266657Y-94863566D01*
X78159433Y-95074003D01*
X78086446Y-95298631D01*
X78049500Y-95531902D01*
X72500500Y-95531902D01*
X72463553Y-95298631D01*
X72429689Y-95194412D01*
X72390568Y-95074008D01*
X72390566Y-95074005D01*
X72390566Y-95074003D01*
X72289870Y-94876377D01*
X72283343Y-94863567D01*
X72144517Y-94672490D01*
X71977510Y-94505483D01*
X71786433Y-94366657D01*
X71575996Y-94259433D01*
X71351368Y-94186446D01*
X71118097Y-94149500D01*
X71118092Y-94149500D01*
X70881908Y-94149500D01*
X70881903Y-94149500D01*
X70648631Y-94186446D01*
X70424003Y-94259433D01*
X70213566Y-94366657D01*
X70136593Y-94422582D01*
X70022490Y-94505483D01*
X70022488Y-94505485D01*
X70022487Y-94505485D01*
X69855485Y-94672487D01*
X69855485Y-94672488D01*
X69855483Y-94672490D01*
X69821871Y-94718753D01*
X69716657Y-94863566D01*
X69609433Y-95074003D01*
X69536446Y-95298631D01*
X69499500Y-95531902D01*
X63950500Y-95531902D01*
X63913553Y-95298631D01*
X63879689Y-95194412D01*
X63840568Y-95074008D01*
X63840566Y-95074005D01*
X63840566Y-95074003D01*
X63739870Y-94876377D01*
X63733343Y-94863567D01*
X63594517Y-94672490D01*
X63427510Y-94505483D01*
X63236433Y-94366657D01*
X63025996Y-94259433D01*
X62801368Y-94186446D01*
X62568097Y-94149500D01*
X62568092Y-94149500D01*
X62331908Y-94149500D01*
X62331903Y-94149500D01*
X62098631Y-94186446D01*
X61874003Y-94259433D01*
X61663566Y-94366657D01*
X61586593Y-94422582D01*
X61472490Y-94505483D01*
X61472488Y-94505485D01*
X61472487Y-94505485D01*
X61305485Y-94672487D01*
X61305485Y-94672488D01*
X61305483Y-94672490D01*
X61271871Y-94718753D01*
X61166657Y-94863566D01*
X61059433Y-95074003D01*
X60986446Y-95298631D01*
X60949500Y-95531902D01*
X55400500Y-95531902D01*
X55363553Y-95298631D01*
X55329689Y-95194412D01*
X55290568Y-95074008D01*
X55290566Y-95074005D01*
X55290566Y-95074003D01*
X55189870Y-94876377D01*
X55183343Y-94863567D01*
X55044517Y-94672490D01*
X54877510Y-94505483D01*
X54686433Y-94366657D01*
X54475996Y-94259433D01*
X54251368Y-94186446D01*
X54018097Y-94149500D01*
X54018092Y-94149500D01*
X53781908Y-94149500D01*
X53781903Y-94149500D01*
X53548631Y-94186446D01*
X53324003Y-94259433D01*
X53113566Y-94366657D01*
X53036593Y-94422582D01*
X52922490Y-94505483D01*
X52922488Y-94505485D01*
X52922487Y-94505485D01*
X52755485Y-94672487D01*
X52755485Y-94672488D01*
X52755483Y-94672490D01*
X52721871Y-94718753D01*
X52616657Y-94863566D01*
X52509433Y-95074003D01*
X52436446Y-95298631D01*
X52399500Y-95531902D01*
X43635061Y-95531902D01*
X43613710Y-95452219D01*
X43528405Y-95246274D01*
X43416948Y-95053226D01*
X43281247Y-94876376D01*
X43281242Y-94876370D01*
X43123629Y-94718757D01*
X43123622Y-94718751D01*
X42946782Y-94583058D01*
X42946780Y-94583057D01*
X42946774Y-94583052D01*
X42753726Y-94471595D01*
X42753722Y-94471593D01*
X42547790Y-94386293D01*
X42547783Y-94386291D01*
X42547781Y-94386290D01*
X42332463Y-94328596D01*
X42332457Y-94328595D01*
X42332452Y-94328594D01*
X42111466Y-94299501D01*
X42111463Y-94299500D01*
X42111457Y-94299500D01*
X41888543Y-94299500D01*
X41888537Y-94299500D01*
X41888533Y-94299501D01*
X41667547Y-94328594D01*
X41667540Y-94328595D01*
X41667537Y-94328596D01*
X41589522Y-94349500D01*
X41452219Y-94386290D01*
X41452209Y-94386293D01*
X41246277Y-94471593D01*
X41246273Y-94471595D01*
X41053226Y-94583052D01*
X41053217Y-94583058D01*
X40876377Y-94718751D01*
X40876370Y-94718757D01*
X40718757Y-94876370D01*
X40718751Y-94876377D01*
X40583058Y-95053217D01*
X40583052Y-95053226D01*
X40471595Y-95246273D01*
X40471592Y-95246278D01*
X40453079Y-95290974D01*
X40409237Y-95345378D01*
X40342943Y-95367442D01*
X40275244Y-95350162D01*
X40227634Y-95299025D01*
X40214518Y-95243554D01*
X40214425Y-94891994D01*
X40214168Y-93916228D01*
X44149500Y-93916228D01*
X44149500Y-94083771D01*
X44182182Y-94248074D01*
X44182184Y-94248082D01*
X44246295Y-94402860D01*
X44339373Y-94542162D01*
X44457837Y-94660626D01*
X44544828Y-94718751D01*
X44597137Y-94753703D01*
X44751918Y-94817816D01*
X44916228Y-94850499D01*
X44916232Y-94850500D01*
X44916233Y-94850500D01*
X45083768Y-94850500D01*
X45083769Y-94850499D01*
X45248082Y-94817816D01*
X45402863Y-94753703D01*
X45542162Y-94660626D01*
X45660626Y-94542162D01*
X45753703Y-94402863D01*
X45817816Y-94248082D01*
X45850500Y-94083767D01*
X45850500Y-93916233D01*
X45817816Y-93751918D01*
X45753703Y-93597137D01*
X45722537Y-93550494D01*
X45660626Y-93457837D01*
X45542162Y-93339373D01*
X45402860Y-93246295D01*
X45248082Y-93182184D01*
X45248074Y-93182182D01*
X45083771Y-93149500D01*
X45083767Y-93149500D01*
X44916233Y-93149500D01*
X44916228Y-93149500D01*
X44751925Y-93182182D01*
X44751917Y-93182184D01*
X44597139Y-93246295D01*
X44457837Y-93339373D01*
X44339373Y-93457837D01*
X44246295Y-93597139D01*
X44182184Y-93751917D01*
X44182182Y-93751925D01*
X44149500Y-93916228D01*
X40214168Y-93916228D01*
X40200690Y-42723126D01*
X40220357Y-42656083D01*
X40273149Y-42610314D01*
X40342305Y-42600352D01*
X40405868Y-42629361D01*
X40439251Y-42675642D01*
X40440637Y-42678987D01*
X40471595Y-42753726D01*
X40583052Y-42946774D01*
X40583057Y-42946780D01*
X40583058Y-42946782D01*
X40718751Y-43123622D01*
X40718757Y-43123629D01*
X40876370Y-43281242D01*
X40876377Y-43281248D01*
X40924034Y-43317816D01*
X41053226Y-43416948D01*
X41246274Y-43528405D01*
X41452219Y-43613710D01*
X41667537Y-43671404D01*
X41888543Y-43700500D01*
X41888550Y-43700500D01*
X42111450Y-43700500D01*
X42111457Y-43700500D01*
X42332463Y-43671404D01*
X42547781Y-43613710D01*
X42753726Y-43528405D01*
X42946774Y-43416948D01*
X43123624Y-43281247D01*
X43281247Y-43123624D01*
X43416948Y-42946774D01*
X43528405Y-42753726D01*
X43613710Y-42547781D01*
X43648959Y-42416228D01*
X44149500Y-42416228D01*
X44149500Y-42583771D01*
X44182182Y-42748074D01*
X44182184Y-42748082D01*
X44246295Y-42902860D01*
X44339373Y-43042162D01*
X44457837Y-43160626D01*
X44550494Y-43222537D01*
X44597137Y-43253703D01*
X44751918Y-43317816D01*
X44916228Y-43350499D01*
X44916232Y-43350500D01*
X44916233Y-43350500D01*
X45083768Y-43350500D01*
X45083769Y-43350499D01*
X45248082Y-43317816D01*
X45402863Y-43253703D01*
X45542162Y-43160626D01*
X45660626Y-43042162D01*
X45753703Y-42902863D01*
X45817816Y-42748082D01*
X45850500Y-42583767D01*
X45850500Y-42416233D01*
X45817816Y-42251918D01*
X45753703Y-42097137D01*
X45688798Y-42000000D01*
X45660626Y-41957837D01*
X45542162Y-41839373D01*
X45402860Y-41746295D01*
X45248082Y-41682184D01*
X45248074Y-41682182D01*
X45083771Y-41649500D01*
X45083767Y-41649500D01*
X44916233Y-41649500D01*
X44916228Y-41649500D01*
X44751925Y-41682182D01*
X44751917Y-41682184D01*
X44597139Y-41746295D01*
X44457837Y-41839373D01*
X44339373Y-41957837D01*
X44246295Y-42097139D01*
X44182184Y-42251917D01*
X44182182Y-42251925D01*
X44149500Y-42416228D01*
X43648959Y-42416228D01*
X43671404Y-42332463D01*
X43700500Y-42111457D01*
X43700500Y-41888543D01*
X43671404Y-41667537D01*
X43613710Y-41452219D01*
X43528405Y-41246274D01*
X43416948Y-41053226D01*
X43281247Y-40876376D01*
X43281242Y-40876370D01*
X43123629Y-40718757D01*
X43123622Y-40718751D01*
X42946782Y-40583058D01*
X42946780Y-40583057D01*
X42946774Y-40583052D01*
X42753726Y-40471595D01*
X42745643Y-40468246D01*
X42672069Y-40437771D01*
X42617666Y-40393930D01*
X42595601Y-40327636D01*
X42612880Y-40259936D01*
X42664018Y-40212326D01*
X42719297Y-40199210D01*
X54025780Y-40178947D01*
X54092852Y-40198512D01*
G37*
%TD.AperFunction*%
%TA.AperFunction,Conductor*%
G36*
X69930084Y-82792376D02*
G01*
X69986017Y-82834248D01*
X70010434Y-82899712D01*
X70010750Y-82908558D01*
X70010750Y-85753480D01*
X70002105Y-85782920D01*
X69995582Y-85812907D01*
X69991827Y-85817922D01*
X69991065Y-85820519D01*
X69974431Y-85841161D01*
X69923931Y-85891661D01*
X69862608Y-85925146D01*
X69792916Y-85920162D01*
X69748569Y-85891661D01*
X69646438Y-85789530D01*
X69614090Y-85769975D01*
X69500856Y-85701522D01*
X69338446Y-85650914D01*
X69338444Y-85650913D01*
X69338442Y-85650913D01*
X69289028Y-85646423D01*
X69267866Y-85644500D01*
X68754634Y-85644500D01*
X68735395Y-85646248D01*
X68684057Y-85650913D01*
X68521643Y-85701522D01*
X68376061Y-85789530D01*
X68255780Y-85909811D01*
X68167772Y-86055393D01*
X68117163Y-86217807D01*
X68110750Y-86288386D01*
X68110750Y-86951613D01*
X68117163Y-87022192D01*
X68117163Y-87022194D01*
X68117164Y-87022196D01*
X68167772Y-87184606D01*
X68242867Y-87308829D01*
X68260750Y-87372976D01*
X68260750Y-90275500D01*
X68241065Y-90342539D01*
X68188261Y-90388294D01*
X68136750Y-90399500D01*
X63621889Y-90399500D01*
X63554850Y-90379815D01*
X63509095Y-90327011D01*
X63499151Y-90257853D01*
X63528176Y-90194297D01*
X63534208Y-90187819D01*
X63559669Y-90162358D01*
X63594517Y-90127510D01*
X63733343Y-89936433D01*
X63839192Y-89728693D01*
X63840566Y-89725996D01*
X63840566Y-89725995D01*
X63840568Y-89725992D01*
X63913553Y-89501368D01*
X63926157Y-89421789D01*
X63950500Y-89268097D01*
X63950500Y-89031902D01*
X63913553Y-88798631D01*
X63840566Y-88574003D01*
X63762515Y-88420821D01*
X63733343Y-88363567D01*
X63594517Y-88172490D01*
X63427510Y-88005483D01*
X63236433Y-87866657D01*
X63236432Y-87866656D01*
X63236430Y-87866655D01*
X63168204Y-87831891D01*
X63117408Y-87783916D01*
X63100500Y-87721407D01*
X63100500Y-86905928D01*
X63075502Y-86780261D01*
X63075501Y-86780260D01*
X63075501Y-86780256D01*
X63032510Y-86676466D01*
X63026465Y-86661872D01*
X63021396Y-86654286D01*
X63000520Y-86587608D01*
X63000500Y-86585398D01*
X63000500Y-86288386D01*
X62994086Y-86217807D01*
X62994086Y-86217804D01*
X62943478Y-86055394D01*
X62855472Y-85909815D01*
X62855470Y-85909813D01*
X62855469Y-85909811D01*
X62820483Y-85874826D01*
X62786997Y-85813504D01*
X62791981Y-85743812D01*
X62820480Y-85699465D01*
X64083127Y-84436819D01*
X64144450Y-84403334D01*
X64170808Y-84400500D01*
X68014071Y-84400500D01*
X68098615Y-84383682D01*
X68139744Y-84375501D01*
X68258127Y-84326465D01*
X68265312Y-84321663D01*
X68265322Y-84321660D01*
X68265321Y-84321659D01*
X68339663Y-84271985D01*
X68364669Y-84255277D01*
X69799069Y-82820877D01*
X69860392Y-82787392D01*
X69930084Y-82792376D01*
G37*
%TD.AperFunction*%
%TA.AperFunction,Conductor*%
G36*
X72392898Y-81315165D02*
G01*
X72406334Y-81316126D01*
X72424060Y-81329396D01*
X72444203Y-81338595D01*
X72451485Y-81349926D01*
X72462267Y-81357998D01*
X72470004Y-81378743D01*
X72481977Y-81397373D01*
X72485128Y-81419291D01*
X72486684Y-81423462D01*
X72487000Y-81432308D01*
X72487000Y-81476569D01*
X72487000Y-81476571D01*
X72486999Y-81476571D01*
X72511997Y-81602238D01*
X72511999Y-81602244D01*
X72561033Y-81720624D01*
X72561038Y-81720633D01*
X72632223Y-81827168D01*
X72632226Y-81827172D01*
X72722827Y-81917773D01*
X72722831Y-81917776D01*
X72829366Y-81988961D01*
X72829372Y-81988964D01*
X72829373Y-81988965D01*
X72947756Y-82038001D01*
X72947760Y-82038001D01*
X72947761Y-82038002D01*
X73073428Y-82063000D01*
X73073431Y-82063000D01*
X73201571Y-82063000D01*
X73286115Y-82046182D01*
X73327244Y-82038001D01*
X73445627Y-81988965D01*
X73552169Y-81917776D01*
X73642776Y-81827169D01*
X73713965Y-81720627D01*
X73741569Y-81653986D01*
X73785410Y-81599582D01*
X73851704Y-81577517D01*
X73919403Y-81594796D01*
X73943811Y-81613757D01*
X76735325Y-84405272D01*
X76735332Y-84405278D01*
X76796326Y-84446032D01*
X76796328Y-84446033D01*
X76796331Y-84446035D01*
X76841873Y-84476465D01*
X76960256Y-84525501D01*
X76960260Y-84525501D01*
X76960261Y-84525502D01*
X77085928Y-84550500D01*
X77085931Y-84550500D01*
X77214069Y-84550500D01*
X77779192Y-84550500D01*
X77846231Y-84570185D01*
X77866873Y-84586819D01*
X78535681Y-85255627D01*
X78569166Y-85316950D01*
X78572000Y-85343308D01*
X78572000Y-85753480D01*
X78563355Y-85782920D01*
X78556832Y-85812907D01*
X78553077Y-85817922D01*
X78552315Y-85820519D01*
X78535681Y-85841161D01*
X78485181Y-85891661D01*
X78423858Y-85925146D01*
X78354166Y-85920162D01*
X78309819Y-85891661D01*
X78207688Y-85789530D01*
X78175340Y-85769975D01*
X78062106Y-85701522D01*
X77899696Y-85650914D01*
X77899694Y-85650913D01*
X77899692Y-85650913D01*
X77850278Y-85646423D01*
X77829116Y-85644500D01*
X77315884Y-85644500D01*
X77296645Y-85646248D01*
X77245307Y-85650913D01*
X77082893Y-85701522D01*
X76937311Y-85789530D01*
X76817030Y-85909811D01*
X76729022Y-86055393D01*
X76678413Y-86217807D01*
X76672000Y-86288386D01*
X76672000Y-86951613D01*
X76678413Y-87022192D01*
X76678413Y-87022194D01*
X76678414Y-87022196D01*
X76729022Y-87184606D01*
X76804117Y-87308829D01*
X76822000Y-87372976D01*
X76822000Y-90275500D01*
X76802315Y-90342539D01*
X76749511Y-90388294D01*
X76698000Y-90399500D01*
X72171889Y-90399500D01*
X72104850Y-90379815D01*
X72059095Y-90327011D01*
X72049151Y-90257853D01*
X72078176Y-90194297D01*
X72084208Y-90187819D01*
X72109669Y-90162358D01*
X72144517Y-90127510D01*
X72283343Y-89936433D01*
X72389192Y-89728693D01*
X72390566Y-89725996D01*
X72390566Y-89725995D01*
X72390568Y-89725992D01*
X72463553Y-89501368D01*
X72476157Y-89421789D01*
X72500500Y-89268097D01*
X72500500Y-89031902D01*
X72463553Y-88798631D01*
X72390566Y-88574003D01*
X72312515Y-88420821D01*
X72283343Y-88363567D01*
X72144517Y-88172490D01*
X71977510Y-88005483D01*
X71786433Y-87866657D01*
X71718201Y-87831891D01*
X71575994Y-87759433D01*
X71575993Y-87759432D01*
X71575992Y-87759432D01*
X71450915Y-87718791D01*
X71397432Y-87701414D01*
X71377030Y-87687464D01*
X71354547Y-87677196D01*
X71348693Y-87668087D01*
X71339756Y-87661976D01*
X71330134Y-87639209D01*
X71316773Y-87618418D01*
X71314413Y-87602009D01*
X71312558Y-87597618D01*
X71311750Y-87583483D01*
X71311750Y-87486519D01*
X71331435Y-87419480D01*
X71348064Y-87398842D01*
X71416722Y-87330185D01*
X71504728Y-87184606D01*
X71555336Y-87022196D01*
X71561750Y-86951616D01*
X71561750Y-86288384D01*
X71555336Y-86217804D01*
X71504728Y-86055394D01*
X71416722Y-85909815D01*
X71416720Y-85909813D01*
X71416719Y-85909811D01*
X71348069Y-85841161D01*
X71314584Y-85779838D01*
X71311750Y-85753480D01*
X71311750Y-82359558D01*
X71331435Y-82292519D01*
X71348069Y-82271877D01*
X72275319Y-81344627D01*
X72294755Y-81334014D01*
X72311489Y-81319514D01*
X72324820Y-81317597D01*
X72336642Y-81311142D01*
X72358728Y-81312721D01*
X72380647Y-81309570D01*
X72392898Y-81315165D01*
G37*
%TD.AperFunction*%
%TA.AperFunction,Conductor*%
G36*
X86596231Y-85220185D02*
G01*
X86616873Y-85236819D01*
X87071392Y-85691338D01*
X87104877Y-85752661D01*
X87099893Y-85822353D01*
X87071392Y-85866700D01*
X87046431Y-85891661D01*
X86985108Y-85925146D01*
X86915416Y-85920162D01*
X86871069Y-85891661D01*
X86768938Y-85789530D01*
X86736590Y-85769975D01*
X86623356Y-85701522D01*
X86460946Y-85650914D01*
X86460944Y-85650913D01*
X86460942Y-85650913D01*
X86411528Y-85646423D01*
X86390366Y-85644500D01*
X85877134Y-85644500D01*
X85857895Y-85646248D01*
X85806557Y-85650913D01*
X85644143Y-85701522D01*
X85498561Y-85789530D01*
X85378280Y-85909811D01*
X85290272Y-86055393D01*
X85239663Y-86217807D01*
X85233250Y-86288386D01*
X85233250Y-86951613D01*
X85239663Y-87022192D01*
X85239663Y-87022194D01*
X85239664Y-87022196D01*
X85290272Y-87184606D01*
X85365367Y-87308829D01*
X85383250Y-87372976D01*
X85383250Y-90207672D01*
X85391930Y-90251309D01*
X85385703Y-90320900D01*
X85342840Y-90376078D01*
X85276950Y-90399322D01*
X85270313Y-90399500D01*
X80721889Y-90399500D01*
X80654850Y-90379815D01*
X80609095Y-90327011D01*
X80599151Y-90257853D01*
X80628176Y-90194297D01*
X80634208Y-90187819D01*
X80659669Y-90162358D01*
X80694517Y-90127510D01*
X80833343Y-89936433D01*
X80939192Y-89728693D01*
X80940566Y-89725996D01*
X80940566Y-89725995D01*
X80940568Y-89725992D01*
X81013553Y-89501368D01*
X81026157Y-89421789D01*
X81050500Y-89268097D01*
X81050500Y-89031902D01*
X81013553Y-88798631D01*
X80940566Y-88574003D01*
X80862515Y-88420821D01*
X80833343Y-88363567D01*
X80694517Y-88172490D01*
X80527510Y-88005483D01*
X80336433Y-87866657D01*
X80336429Y-87866655D01*
X80125996Y-87759433D01*
X79958681Y-87705069D01*
X79938278Y-87691118D01*
X79915797Y-87680851D01*
X79909943Y-87671742D01*
X79901006Y-87665631D01*
X79891385Y-87642865D01*
X79878023Y-87622073D01*
X79875663Y-87605662D01*
X79873808Y-87601272D01*
X79873000Y-87587138D01*
X79873000Y-87486519D01*
X79892685Y-87419480D01*
X79909314Y-87398842D01*
X79977972Y-87330185D01*
X80065978Y-87184606D01*
X80116586Y-87022196D01*
X80123000Y-86951616D01*
X80123000Y-86288384D01*
X80116586Y-86217804D01*
X80065978Y-86055394D01*
X79977972Y-85909815D01*
X79977970Y-85909813D01*
X79977969Y-85909811D01*
X79909319Y-85841161D01*
X79875834Y-85779838D01*
X79873000Y-85753480D01*
X79873000Y-85324500D01*
X79892685Y-85257461D01*
X79945489Y-85211706D01*
X79997000Y-85200500D01*
X86529192Y-85200500D01*
X86596231Y-85220185D01*
G37*
%TD.AperFunction*%
%TA.AperFunction,Conductor*%
G36*
X104374005Y-61920185D02*
G01*
X104394647Y-61936819D01*
X104407647Y-61949819D01*
X104441132Y-62011142D01*
X104436148Y-62080834D01*
X104407647Y-62125181D01*
X104375719Y-62157108D01*
X104375716Y-62157112D01*
X104287455Y-62300204D01*
X104287450Y-62300215D01*
X104270214Y-62352231D01*
X104234564Y-62459815D01*
X104234564Y-62459816D01*
X104234563Y-62459816D01*
X104224500Y-62558318D01*
X104224500Y-63091681D01*
X104234563Y-63190183D01*
X104287450Y-63349784D01*
X104287455Y-63349795D01*
X104375716Y-63492887D01*
X104375719Y-63492891D01*
X104494608Y-63611780D01*
X104494612Y-63611783D01*
X104637704Y-63700044D01*
X104637707Y-63700045D01*
X104637713Y-63700049D01*
X104797315Y-63752936D01*
X104895826Y-63763000D01*
X104941692Y-63763000D01*
X105008731Y-63782685D01*
X105029368Y-63799314D01*
X105185330Y-63955276D01*
X105264428Y-64008127D01*
X105291873Y-64026465D01*
X105410256Y-64075501D01*
X105410260Y-64075501D01*
X105410261Y-64075502D01*
X105535928Y-64100500D01*
X105535931Y-64100500D01*
X108538511Y-64100500D01*
X108605550Y-64120185D01*
X108639237Y-64154808D01*
X108639906Y-64154285D01*
X108644531Y-64160189D01*
X108764811Y-64280469D01*
X108764813Y-64280470D01*
X108764815Y-64280472D01*
X108910394Y-64368478D01*
X108910395Y-64368478D01*
X108912719Y-64369883D01*
X108959907Y-64421411D01*
X108971745Y-64490271D01*
X108944476Y-64554599D01*
X108886757Y-64593973D01*
X108848569Y-64600000D01*
X102900000Y-64600000D01*
X102702426Y-74577462D01*
X102681418Y-74644099D01*
X102627718Y-74688799D01*
X102577442Y-74699003D01*
X90400000Y-74599999D01*
X90400000Y-74600000D01*
X90400000Y-80400000D01*
X92579701Y-80400000D01*
X92646740Y-80419685D01*
X92692495Y-80472489D01*
X92703643Y-80520242D01*
X92893341Y-86780261D01*
X92896129Y-86872244D01*
X92878484Y-86939849D01*
X92827090Y-86987182D01*
X92772186Y-87000000D01*
X90200000Y-87000000D01*
X90200000Y-90275500D01*
X90180315Y-90342539D01*
X90127511Y-90388294D01*
X90076000Y-90399500D01*
X89271889Y-90399500D01*
X89204850Y-90379815D01*
X89159095Y-90327011D01*
X89149151Y-90257853D01*
X89178176Y-90194297D01*
X89184208Y-90187819D01*
X89209669Y-90162358D01*
X89244517Y-90127510D01*
X89383343Y-89936433D01*
X89489192Y-89728693D01*
X89490566Y-89725996D01*
X89490566Y-89725995D01*
X89490568Y-89725992D01*
X89563553Y-89501368D01*
X89576157Y-89421789D01*
X89600500Y-89268097D01*
X89600500Y-89031902D01*
X89563553Y-88798631D01*
X89490566Y-88574003D01*
X89412515Y-88420821D01*
X89383343Y-88363567D01*
X89244517Y-88172490D01*
X89077510Y-88005483D01*
X88886433Y-87866657D01*
X88886429Y-87866655D01*
X88675996Y-87759433D01*
X88519931Y-87708724D01*
X88499528Y-87694773D01*
X88477047Y-87684506D01*
X88471193Y-87675397D01*
X88462256Y-87669286D01*
X88452635Y-87646520D01*
X88439273Y-87625728D01*
X88436913Y-87609317D01*
X88435058Y-87604927D01*
X88434250Y-87590793D01*
X88434250Y-87486519D01*
X88453935Y-87419480D01*
X88470564Y-87398842D01*
X88539222Y-87330185D01*
X88627228Y-87184606D01*
X88677836Y-87022196D01*
X88684250Y-86951616D01*
X88684250Y-86288384D01*
X88677836Y-86217804D01*
X88627228Y-86055394D01*
X88539222Y-85909815D01*
X88539220Y-85909813D01*
X88539219Y-85909811D01*
X88470569Y-85841161D01*
X88437084Y-85779838D01*
X88434250Y-85753480D01*
X88434250Y-85419678D01*
X88409252Y-85294011D01*
X88409251Y-85294010D01*
X88409251Y-85294006D01*
X88360215Y-85175623D01*
X88360212Y-85175618D01*
X88360209Y-85175613D01*
X88360043Y-85175366D01*
X88343376Y-85150422D01*
X88289027Y-85069081D01*
X88289025Y-85069079D01*
X88289023Y-85069076D01*
X87264673Y-84044726D01*
X87264669Y-84044723D01*
X87158127Y-83973535D01*
X87039744Y-83924499D01*
X87039738Y-83924497D01*
X86914071Y-83899500D01*
X86914069Y-83899500D01*
X80074534Y-83899500D01*
X80007495Y-83879815D01*
X79986853Y-83863181D01*
X79017400Y-82893727D01*
X79017399Y-82893726D01*
X79017395Y-82893723D01*
X78910853Y-82822535D01*
X78906850Y-82820877D01*
X78792470Y-82773499D01*
X78792464Y-82773497D01*
X78666797Y-82748500D01*
X78666795Y-82748500D01*
X77919808Y-82748500D01*
X77852769Y-82728815D01*
X77832127Y-82712181D01*
X75386819Y-80266873D01*
X75353334Y-80205550D01*
X75350500Y-80179192D01*
X75350500Y-75925948D01*
X75370185Y-75858909D01*
X75422989Y-75813154D01*
X75492147Y-75803210D01*
X75555703Y-75832235D01*
X75586357Y-75874747D01*
X75586359Y-75874746D01*
X75586368Y-75874763D01*
X75589062Y-75878498D01*
X75590424Y-75881788D01*
X75669475Y-76018709D01*
X75669479Y-76018714D01*
X75669480Y-76018716D01*
X75781284Y-76130520D01*
X75781286Y-76130521D01*
X75781290Y-76130524D01*
X75868140Y-76180666D01*
X75918216Y-76209577D01*
X76070943Y-76250500D01*
X76070945Y-76250500D01*
X76229055Y-76250500D01*
X76229057Y-76250500D01*
X76381784Y-76209577D01*
X76518716Y-76130520D01*
X76630520Y-76018716D01*
X76709577Y-75881784D01*
X76750500Y-75729057D01*
X76750500Y-75570943D01*
X76709577Y-75418216D01*
X76706146Y-75412273D01*
X76630524Y-75281290D01*
X76630518Y-75281282D01*
X76518717Y-75169481D01*
X76518709Y-75169475D01*
X76381790Y-75090426D01*
X76381786Y-75090424D01*
X76381784Y-75090423D01*
X76229057Y-75049500D01*
X76070943Y-75049500D01*
X75918216Y-75090423D01*
X75918209Y-75090426D01*
X75781290Y-75169475D01*
X75781282Y-75169481D01*
X75669481Y-75281282D01*
X75669475Y-75281290D01*
X75590422Y-75418215D01*
X75589060Y-75421505D01*
X75587167Y-75423852D01*
X75586359Y-75425254D01*
X75586140Y-75425127D01*
X75545219Y-75475908D01*
X75478924Y-75497972D01*
X75411225Y-75480692D01*
X75363615Y-75429554D01*
X75350500Y-75374051D01*
X75350500Y-72720808D01*
X75370185Y-72653769D01*
X75386819Y-72633127D01*
X80560272Y-67459674D01*
X80560277Y-67459669D01*
X80631466Y-67353126D01*
X80633603Y-67347968D01*
X80653264Y-67300500D01*
X80680501Y-67234743D01*
X80685644Y-67208886D01*
X80718027Y-67146977D01*
X80778742Y-67112402D01*
X80820516Y-67109789D01*
X80827127Y-67110500D01*
X81822872Y-67110499D01*
X81882483Y-67104091D01*
X81916667Y-67091340D01*
X81986358Y-67086357D01*
X82003327Y-67091338D01*
X82037517Y-67104091D01*
X82097127Y-67110500D01*
X83092872Y-67110499D01*
X83152483Y-67104091D01*
X83186667Y-67091340D01*
X83256358Y-67086357D01*
X83273327Y-67091338D01*
X83307517Y-67104091D01*
X83367127Y-67110500D01*
X84362872Y-67110499D01*
X84422483Y-67104091D01*
X84456667Y-67091340D01*
X84526358Y-67086357D01*
X84543327Y-67091338D01*
X84577517Y-67104091D01*
X84637127Y-67110500D01*
X85632872Y-67110499D01*
X85692483Y-67104091D01*
X85827331Y-67053796D01*
X85942546Y-66967546D01*
X86026234Y-66855753D01*
X86082167Y-66813883D01*
X86151859Y-66808899D01*
X86213182Y-66842384D01*
X86246666Y-66903708D01*
X86249500Y-66930065D01*
X86249500Y-68014069D01*
X86268210Y-68108127D01*
X86274499Y-68139744D01*
X86323535Y-68258127D01*
X86394723Y-68364669D01*
X86394726Y-68364673D01*
X88985325Y-70955272D01*
X88985328Y-70955274D01*
X88985331Y-70955277D01*
X89088931Y-71024499D01*
X89091873Y-71026465D01*
X89210256Y-71075501D01*
X89210260Y-71075501D01*
X89210261Y-71075502D01*
X89335928Y-71100500D01*
X89335931Y-71100500D01*
X89663732Y-71100500D01*
X89730771Y-71120185D01*
X89764049Y-71151614D01*
X89788980Y-71185928D01*
X89846169Y-71264642D01*
X89846174Y-71264648D01*
X89968108Y-71386582D01*
X90001593Y-71447905D01*
X89996609Y-71517597D01*
X89968108Y-71561944D01*
X89266873Y-72263181D01*
X89205550Y-72296666D01*
X89179192Y-72299500D01*
X88391519Y-72299500D01*
X88324480Y-72279815D01*
X88303842Y-72263185D01*
X88235185Y-72194528D01*
X88089606Y-72106522D01*
X87927196Y-72055914D01*
X87927194Y-72055913D01*
X87927192Y-72055913D01*
X87877778Y-72051423D01*
X87856616Y-72049500D01*
X86143384Y-72049500D01*
X86124145Y-72051248D01*
X86072807Y-72055913D01*
X85910393Y-72106522D01*
X85764811Y-72194530D01*
X85644531Y-72314810D01*
X85644528Y-72314814D01*
X85629514Y-72339651D01*
X85577986Y-72386838D01*
X85523398Y-72399500D01*
X84851874Y-72399500D01*
X84784835Y-72379815D01*
X84764193Y-72363181D01*
X84653044Y-72252032D01*
X84653040Y-72252029D01*
X84508705Y-72163001D01*
X84508699Y-72162998D01*
X84508697Y-72162997D01*
X84453613Y-72144744D01*
X84347709Y-72109651D01*
X84248346Y-72099500D01*
X83651662Y-72099500D01*
X83651644Y-72099501D01*
X83552292Y-72109650D01*
X83552289Y-72109651D01*
X83391305Y-72162996D01*
X83391294Y-72163001D01*
X83246959Y-72252029D01*
X83246955Y-72252032D01*
X83127032Y-72371955D01*
X83127029Y-72371959D01*
X83038001Y-72516294D01*
X83037996Y-72516305D01*
X82984651Y-72677290D01*
X82974500Y-72776647D01*
X82974500Y-73323337D01*
X82974501Y-73323355D01*
X82984650Y-73422707D01*
X82984651Y-73422710D01*
X83037996Y-73583694D01*
X83038001Y-73583705D01*
X83127029Y-73728040D01*
X83127032Y-73728044D01*
X83246955Y-73847967D01*
X83246959Y-73847970D01*
X83391294Y-73936998D01*
X83391297Y-73936999D01*
X83391303Y-73937003D01*
X83552292Y-73990349D01*
X83651655Y-74000500D01*
X84248344Y-74000499D01*
X84248352Y-74000498D01*
X84248355Y-74000498D01*
X84302760Y-73994940D01*
X84347708Y-73990349D01*
X84508697Y-73937003D01*
X84653044Y-73847968D01*
X84764193Y-73736819D01*
X84825516Y-73703334D01*
X84851874Y-73700500D01*
X85722023Y-73700500D01*
X85786171Y-73718382D01*
X85910394Y-73793478D01*
X86072804Y-73844086D01*
X86143384Y-73850500D01*
X86143387Y-73850500D01*
X87856613Y-73850500D01*
X87856616Y-73850500D01*
X87927196Y-73844086D01*
X88089606Y-73793478D01*
X88235185Y-73705472D01*
X88303839Y-73636817D01*
X88365160Y-73603334D01*
X88391519Y-73600500D01*
X89564071Y-73600500D01*
X89648615Y-73583682D01*
X89689744Y-73575501D01*
X89808127Y-73526465D01*
X89828176Y-73513069D01*
X89828177Y-73513069D01*
X89904019Y-73462393D01*
X89914669Y-73455277D01*
X91305277Y-72064669D01*
X91376466Y-71958126D01*
X91413347Y-71869086D01*
X91425501Y-71839744D01*
X91438671Y-71773534D01*
X91450500Y-71714071D01*
X91450500Y-71586268D01*
X91470185Y-71519229D01*
X91501615Y-71485950D01*
X91530991Y-71464607D01*
X91614646Y-71403828D01*
X91753828Y-71264646D01*
X91869524Y-71105405D01*
X91958884Y-70930025D01*
X92019709Y-70742826D01*
X92032268Y-70663531D01*
X92050500Y-70548422D01*
X92050500Y-70351577D01*
X92019709Y-70157173D01*
X91991231Y-70069528D01*
X91958884Y-69969975D01*
X91958882Y-69969972D01*
X91958882Y-69969970D01*
X91911743Y-69877455D01*
X91869524Y-69794595D01*
X91753828Y-69635354D01*
X91614646Y-69496172D01*
X91455405Y-69380476D01*
X91280029Y-69291117D01*
X91156728Y-69251054D01*
X91099053Y-69211616D01*
X91071855Y-69147257D01*
X91083770Y-69078411D01*
X91131014Y-69026935D01*
X91156728Y-69015192D01*
X91199304Y-69001358D01*
X91330025Y-68958884D01*
X91505405Y-68869524D01*
X91664646Y-68753828D01*
X91803828Y-68614646D01*
X91919524Y-68455405D01*
X92008884Y-68280025D01*
X92069709Y-68092826D01*
X92082183Y-68014069D01*
X92100500Y-67898422D01*
X92100500Y-67701577D01*
X92069709Y-67507173D01*
X92041087Y-67419086D01*
X92008884Y-67319975D01*
X92008882Y-67319972D01*
X92008882Y-67319970D01*
X91945301Y-67195185D01*
X91919524Y-67144595D01*
X91803828Y-66985354D01*
X91664646Y-66846172D01*
X91505405Y-66730476D01*
X91479905Y-66717483D01*
X91330029Y-66641117D01*
X91156728Y-66584807D01*
X91099053Y-66545369D01*
X91071855Y-66481010D01*
X91083770Y-66412163D01*
X91131015Y-66360688D01*
X91156724Y-66348946D01*
X91280025Y-66308884D01*
X91455405Y-66219524D01*
X91614646Y-66103828D01*
X91753828Y-65964646D01*
X91854014Y-65826751D01*
X91909343Y-65784088D01*
X91978957Y-65778109D01*
X92040751Y-65810715D01*
X92042012Y-65811958D01*
X93260325Y-67030272D01*
X93260328Y-67030275D01*
X93260331Y-67030277D01*
X93326515Y-67074499D01*
X93366873Y-67101465D01*
X93485256Y-67150501D01*
X93485260Y-67150501D01*
X93485261Y-67150502D01*
X93610928Y-67175500D01*
X93610931Y-67175500D01*
X97683481Y-67175500D01*
X97750520Y-67195185D01*
X97771157Y-67211814D01*
X97839815Y-67280472D01*
X97985394Y-67368478D01*
X98147804Y-67419086D01*
X98218384Y-67425500D01*
X98218387Y-67425500D01*
X98881613Y-67425500D01*
X98881616Y-67425500D01*
X98952196Y-67419086D01*
X99114606Y-67368478D01*
X99260185Y-67280472D01*
X99380472Y-67160185D01*
X99468478Y-67014606D01*
X99519086Y-66852196D01*
X99525500Y-66781616D01*
X99525500Y-66559967D01*
X99545185Y-66492928D01*
X99597989Y-66447173D01*
X99667147Y-66437229D01*
X99730703Y-66466254D01*
X99755613Y-66495812D01*
X99786448Y-66546819D01*
X99794530Y-66560188D01*
X99914811Y-66680469D01*
X99914813Y-66680470D01*
X99914815Y-66680472D01*
X100060394Y-66768478D01*
X100222804Y-66819086D01*
X100293384Y-66825500D01*
X100293387Y-66825500D01*
X100806613Y-66825500D01*
X100806616Y-66825500D01*
X100877196Y-66819086D01*
X101039606Y-66768478D01*
X101185185Y-66680472D01*
X101305472Y-66560185D01*
X101393478Y-66414606D01*
X101444086Y-66252196D01*
X101450500Y-66181616D01*
X101450500Y-65518384D01*
X101444086Y-65447804D01*
X101393478Y-65285394D01*
X101305472Y-65139815D01*
X101305470Y-65139813D01*
X101305469Y-65139811D01*
X101236819Y-65071161D01*
X101222115Y-65044233D01*
X101205523Y-65018415D01*
X101204631Y-65012214D01*
X101203334Y-65009838D01*
X101200500Y-64983480D01*
X101200500Y-64753015D01*
X101217768Y-64689894D01*
X101218081Y-64689365D01*
X101301744Y-64547898D01*
X101337304Y-64425500D01*
X101347597Y-64390073D01*
X101347598Y-64390067D01*
X101349163Y-64370185D01*
X101350500Y-64353194D01*
X101350500Y-63187000D01*
X101370185Y-63119961D01*
X101422989Y-63074206D01*
X101474500Y-63063000D01*
X101715686Y-63063000D01*
X101715694Y-63063000D01*
X101752569Y-63060098D01*
X101752571Y-63060097D01*
X101752573Y-63060097D01*
X101798320Y-63046806D01*
X101910398Y-63014244D01*
X102051865Y-62930581D01*
X102168081Y-62814365D01*
X102251744Y-62672898D01*
X102291104Y-62537420D01*
X102297597Y-62515073D01*
X102297598Y-62515067D01*
X102300500Y-62478194D01*
X102300500Y-62024500D01*
X102320185Y-61957461D01*
X102372989Y-61911706D01*
X102424500Y-61900500D01*
X104306966Y-61900500D01*
X104374005Y-61920185D01*
G37*
%TD.AperFunction*%
%TA.AperFunction,Conductor*%
G36*
X74424780Y-67104872D02*
G01*
X74431225Y-67105564D01*
X74477127Y-67110500D01*
X75270192Y-67110499D01*
X75337231Y-67130183D01*
X75382986Y-67182987D01*
X75392930Y-67252146D01*
X75363905Y-67315702D01*
X75357873Y-67322180D01*
X72094724Y-70585329D01*
X72042473Y-70663531D01*
X72042472Y-70663531D01*
X72023536Y-70691870D01*
X72023534Y-70691874D01*
X71974499Y-70810255D01*
X71974497Y-70810261D01*
X71949500Y-70935928D01*
X71949500Y-78779192D01*
X71929815Y-78846231D01*
X71913181Y-78866873D01*
X67716873Y-83063181D01*
X67655550Y-83096666D01*
X67629192Y-83099500D01*
X63785929Y-83099500D01*
X63660261Y-83124497D01*
X63660255Y-83124499D01*
X63541874Y-83173534D01*
X63435326Y-83244726D01*
X61594724Y-85085328D01*
X61531149Y-85180477D01*
X61523539Y-85191866D01*
X61523533Y-85191877D01*
X61474499Y-85310255D01*
X61474497Y-85310261D01*
X61449500Y-85435928D01*
X61449500Y-85753480D01*
X61440855Y-85782920D01*
X61434332Y-85812907D01*
X61430577Y-85817922D01*
X61429815Y-85820519D01*
X61413181Y-85841161D01*
X61362681Y-85891661D01*
X61301358Y-85925146D01*
X61231666Y-85920162D01*
X61187319Y-85891661D01*
X61085188Y-85789530D01*
X61052840Y-85769975D01*
X60939606Y-85701522D01*
X60777196Y-85650914D01*
X60777194Y-85650913D01*
X60777192Y-85650913D01*
X60727778Y-85646423D01*
X60706616Y-85644500D01*
X60193384Y-85644500D01*
X60174145Y-85646248D01*
X60122807Y-85650913D01*
X59960393Y-85701522D01*
X59814811Y-85789530D01*
X59814811Y-85789531D01*
X59771163Y-85833180D01*
X59709840Y-85866666D01*
X59683481Y-85869500D01*
X58932229Y-85869500D01*
X58865190Y-85849815D01*
X58844548Y-85833181D01*
X57986819Y-84975451D01*
X57953334Y-84914128D01*
X57950500Y-84887770D01*
X57950500Y-76976081D01*
X57944763Y-76947242D01*
X57944763Y-76947240D01*
X57936855Y-76907482D01*
X57921659Y-76831088D01*
X57867408Y-76700117D01*
X57865764Y-76695522D01*
X57782954Y-76571588D01*
X57782953Y-76571587D01*
X57782951Y-76571584D01*
X57678416Y-76467049D01*
X56709339Y-75497972D01*
X55724048Y-74512680D01*
X55690563Y-74451357D01*
X55695547Y-74381665D01*
X55724048Y-74337318D01*
X56124364Y-73937003D01*
X56532951Y-73528416D01*
X56615084Y-73405495D01*
X56671658Y-73268913D01*
X56700500Y-73123918D01*
X56700500Y-72976083D01*
X56700500Y-70462229D01*
X56720185Y-70395190D01*
X56736819Y-70374548D01*
X58174548Y-68936819D01*
X58201475Y-68922115D01*
X58227294Y-68905523D01*
X58233494Y-68904631D01*
X58235871Y-68903334D01*
X58262229Y-68900500D01*
X58384480Y-68900500D01*
X58451519Y-68920185D01*
X58497274Y-68972989D01*
X58507218Y-69042147D01*
X58478193Y-69105703D01*
X58472161Y-69112181D01*
X58419531Y-69164810D01*
X58419530Y-69164811D01*
X58331522Y-69310393D01*
X58280913Y-69472807D01*
X58278790Y-69496172D01*
X58275129Y-69536468D01*
X58274500Y-69543386D01*
X58274500Y-70056613D01*
X58280913Y-70127192D01*
X58280913Y-70127194D01*
X58280914Y-70127196D01*
X58331522Y-70289606D01*
X58419528Y-70435185D01*
X58512182Y-70527839D01*
X58545666Y-70589160D01*
X58548500Y-70615519D01*
X58548500Y-73513069D01*
X58552900Y-73535186D01*
X58563405Y-73587997D01*
X58566193Y-73602011D01*
X58573499Y-73638744D01*
X58622534Y-73757124D01*
X58622535Y-73757126D01*
X58680639Y-73844086D01*
X58693726Y-73863672D01*
X58693727Y-73863673D01*
X59760332Y-74930277D01*
X59760334Y-74930279D01*
X59768328Y-74935620D01*
X59772592Y-74939746D01*
X59775787Y-74941014D01*
X59786474Y-74953179D01*
X59800222Y-74966482D01*
X59803402Y-74970918D01*
X59806919Y-74976865D01*
X59809552Y-74979498D01*
X59815473Y-74987758D01*
X59823786Y-75011536D01*
X59835857Y-75033642D01*
X59835119Y-75043952D01*
X59838532Y-75053713D01*
X59832669Y-75078210D01*
X59830873Y-75103334D01*
X59824156Y-75113784D01*
X59822271Y-75121664D01*
X59813980Y-75129618D01*
X59810069Y-75135703D01*
X59811702Y-75136969D01*
X59806917Y-75143137D01*
X59723255Y-75284603D01*
X59723254Y-75284606D01*
X59677402Y-75442426D01*
X59677401Y-75442432D01*
X59674500Y-75479298D01*
X59674500Y-75910701D01*
X59677401Y-75947567D01*
X59677402Y-75947573D01*
X59723254Y-76105393D01*
X59723255Y-76105396D01*
X59723256Y-76105398D01*
X59760681Y-76168681D01*
X59806917Y-76246862D01*
X59806923Y-76246870D01*
X59923129Y-76363076D01*
X59923133Y-76363079D01*
X59923135Y-76363081D01*
X60064602Y-76446744D01*
X60075782Y-76449992D01*
X60222426Y-76492597D01*
X60222429Y-76492597D01*
X60222431Y-76492598D01*
X60259306Y-76495500D01*
X60259314Y-76495500D01*
X62140686Y-76495500D01*
X62140694Y-76495500D01*
X62177569Y-76492598D01*
X62177571Y-76492597D01*
X62177573Y-76492597D01*
X62322733Y-76450424D01*
X62357328Y-76445500D01*
X62365501Y-76445500D01*
X62432540Y-76465185D01*
X62478295Y-76517989D01*
X62489501Y-76569500D01*
X62489501Y-76847876D01*
X62495908Y-76907483D01*
X62546202Y-77042328D01*
X62546206Y-77042335D01*
X62632452Y-77157544D01*
X62632455Y-77157547D01*
X62747664Y-77243793D01*
X62747671Y-77243797D01*
X62882517Y-77294091D01*
X62882516Y-77294091D01*
X62889444Y-77294835D01*
X62942127Y-77300500D01*
X66697872Y-77300499D01*
X66757483Y-77294091D01*
X66892331Y-77243796D01*
X67007546Y-77157546D01*
X67093796Y-77042331D01*
X67144091Y-76907483D01*
X67150500Y-76847873D01*
X67150500Y-75723920D01*
X67899499Y-75723920D01*
X67928340Y-75868907D01*
X67928343Y-75868917D01*
X67984912Y-76005488D01*
X67984919Y-76005501D01*
X68067048Y-76128415D01*
X68067051Y-76128419D01*
X68171580Y-76232948D01*
X68171584Y-76232951D01*
X68294498Y-76315080D01*
X68294511Y-76315087D01*
X68431082Y-76371656D01*
X68431087Y-76371658D01*
X68431091Y-76371658D01*
X68431092Y-76371659D01*
X68576079Y-76400500D01*
X68576082Y-76400500D01*
X68723920Y-76400500D01*
X68860487Y-76373334D01*
X68868913Y-76371658D01*
X69005495Y-76315084D01*
X69128416Y-76232951D01*
X69232951Y-76128416D01*
X69315084Y-76005495D01*
X69371658Y-75868913D01*
X69382749Y-75813154D01*
X69400500Y-75723920D01*
X69400500Y-75576079D01*
X69371659Y-75431092D01*
X69371658Y-75431091D01*
X69371658Y-75431087D01*
X69363865Y-75412273D01*
X69315087Y-75294511D01*
X69315080Y-75294498D01*
X69232951Y-75171584D01*
X69232948Y-75171580D01*
X69128419Y-75067051D01*
X69128415Y-75067048D01*
X69005501Y-74984919D01*
X69005488Y-74984912D01*
X68868917Y-74928343D01*
X68868907Y-74928340D01*
X68723920Y-74899500D01*
X68723918Y-74899500D01*
X68576082Y-74899500D01*
X68576080Y-74899500D01*
X68431092Y-74928340D01*
X68431082Y-74928343D01*
X68294511Y-74984912D01*
X68294498Y-74984919D01*
X68171584Y-75067048D01*
X68171580Y-75067051D01*
X68067051Y-75171580D01*
X68067048Y-75171584D01*
X67984919Y-75294498D01*
X67984912Y-75294511D01*
X67928343Y-75431082D01*
X67928340Y-75431092D01*
X67899500Y-75576079D01*
X67899500Y-75576082D01*
X67899500Y-75723918D01*
X67899500Y-75723920D01*
X67899499Y-75723920D01*
X67150500Y-75723920D01*
X67150499Y-74452128D01*
X67144091Y-74392517D01*
X67140043Y-74381665D01*
X67093797Y-74257671D01*
X67093793Y-74257664D01*
X67007547Y-74142455D01*
X67007544Y-74142452D01*
X66892335Y-74056206D01*
X66892328Y-74056202D01*
X66757482Y-74005908D01*
X66757483Y-74005908D01*
X66697883Y-73999501D01*
X66697881Y-73999500D01*
X66697873Y-73999500D01*
X66697865Y-73999500D01*
X63919808Y-73999500D01*
X63852769Y-73979815D01*
X63807014Y-73927011D01*
X63797070Y-73857853D01*
X63826095Y-73794297D01*
X63832127Y-73787819D01*
X64255273Y-73364673D01*
X64255273Y-73364672D01*
X64255277Y-73364669D01*
X64326465Y-73258127D01*
X64375501Y-73139744D01*
X64380608Y-73114069D01*
X64392447Y-73054554D01*
X64400500Y-73014070D01*
X64400500Y-71120808D01*
X64420185Y-71053769D01*
X64436819Y-71033127D01*
X64683127Y-70786819D01*
X64744450Y-70753334D01*
X64770808Y-70750500D01*
X69449960Y-70750500D01*
X69497412Y-70759938D01*
X69588380Y-70797619D01*
X69588384Y-70797619D01*
X69588385Y-70797620D01*
X69728542Y-70825500D01*
X69728545Y-70825500D01*
X69871457Y-70825500D01*
X69965751Y-70806742D01*
X70011620Y-70797619D01*
X70143653Y-70742929D01*
X70154131Y-70735928D01*
X70262481Y-70663531D01*
X70262482Y-70663529D01*
X70363529Y-70562482D01*
X70363532Y-70562479D01*
X70442929Y-70443653D01*
X70497619Y-70311620D01*
X70525500Y-70171455D01*
X70525500Y-70028545D01*
X70525500Y-70028542D01*
X70497620Y-69888385D01*
X70497619Y-69888384D01*
X70497619Y-69888380D01*
X70446087Y-69763971D01*
X70442930Y-69756349D01*
X70442925Y-69756340D01*
X70363532Y-69637521D01*
X70363529Y-69637517D01*
X70262482Y-69536470D01*
X70262478Y-69536467D01*
X70143659Y-69457074D01*
X70143650Y-69457069D01*
X70011620Y-69402381D01*
X70011614Y-69402379D01*
X69871457Y-69374500D01*
X69871455Y-69374500D01*
X69728545Y-69374500D01*
X69728543Y-69374500D01*
X69588385Y-69402379D01*
X69588379Y-69402381D01*
X69497413Y-69440061D01*
X69449960Y-69449500D01*
X64385929Y-69449500D01*
X64268777Y-69472804D01*
X64267042Y-69473149D01*
X64260257Y-69474498D01*
X64141870Y-69523535D01*
X64035331Y-69594722D01*
X64035324Y-69594728D01*
X63244724Y-70385328D01*
X63183806Y-70476499D01*
X63183807Y-70476500D01*
X63173533Y-70491875D01*
X63124499Y-70610255D01*
X63124497Y-70610261D01*
X63099500Y-70735928D01*
X63099500Y-72629192D01*
X63090855Y-72658632D01*
X63084332Y-72688619D01*
X63080577Y-72693634D01*
X63079815Y-72696231D01*
X63063185Y-72716868D01*
X62958845Y-72821209D01*
X62905758Y-72874296D01*
X62844435Y-72907780D01*
X62774743Y-72902796D01*
X62718810Y-72860924D01*
X62699001Y-72821209D01*
X62676745Y-72744606D01*
X62676744Y-72744603D01*
X62676744Y-72744602D01*
X62593081Y-72603135D01*
X62593079Y-72603133D01*
X62593076Y-72603129D01*
X62476870Y-72486923D01*
X62476862Y-72486917D01*
X62335396Y-72403255D01*
X62335393Y-72403254D01*
X62177573Y-72357402D01*
X62177567Y-72357401D01*
X62140701Y-72354500D01*
X62140694Y-72354500D01*
X60474500Y-72354500D01*
X60407461Y-72334815D01*
X60361706Y-72282011D01*
X60350500Y-72230500D01*
X60350500Y-71924500D01*
X60370185Y-71857461D01*
X60422989Y-71811706D01*
X60474500Y-71800500D01*
X60914071Y-71800500D01*
X60998615Y-71783682D01*
X61039744Y-71775501D01*
X61158127Y-71726465D01*
X61185572Y-71708127D01*
X61264669Y-71655277D01*
X61755276Y-71164670D01*
X61798153Y-71100500D01*
X61826464Y-71058129D01*
X61835666Y-71035913D01*
X61875501Y-70939744D01*
X61884456Y-70894724D01*
X61900500Y-70814069D01*
X61900500Y-70661488D01*
X61920185Y-70594449D01*
X61939317Y-70571378D01*
X61948973Y-70562249D01*
X61960185Y-70555472D01*
X62030073Y-70485583D01*
X62031336Y-70484390D01*
X62060962Y-70469277D01*
X62090160Y-70453334D01*
X62092765Y-70453053D01*
X62093575Y-70452641D01*
X62095146Y-70452797D01*
X62116519Y-70450500D01*
X62414071Y-70450500D01*
X62498615Y-70433682D01*
X62539744Y-70425501D01*
X62658127Y-70376465D01*
X62695405Y-70351557D01*
X62764669Y-70305277D01*
X63280330Y-69789614D01*
X63320552Y-69762738D01*
X63408127Y-69726465D01*
X63514669Y-69655277D01*
X64783127Y-68386819D01*
X64844450Y-68353334D01*
X64870808Y-68350500D01*
X72979071Y-68350500D01*
X73063615Y-68333682D01*
X73104744Y-68325501D01*
X73223127Y-68276465D01*
X73250572Y-68258127D01*
X73329669Y-68205277D01*
X74210277Y-67324669D01*
X74281465Y-67218127D01*
X74296964Y-67180709D01*
X74340805Y-67126305D01*
X74407099Y-67104240D01*
X74424780Y-67104872D01*
G37*
%TD.AperFunction*%
%TA.AperFunction,Conductor*%
G36*
X55118833Y-70425268D02*
G01*
X55174767Y-70467139D01*
X55199184Y-70532604D01*
X55199500Y-70541450D01*
X55199500Y-72687769D01*
X55179815Y-72754808D01*
X55163181Y-72775450D01*
X54300450Y-73638181D01*
X54239127Y-73671666D01*
X54212769Y-73674500D01*
X53510200Y-73674500D01*
X53443161Y-73654815D01*
X53397406Y-73602011D01*
X53387462Y-73532853D01*
X53391124Y-73515905D01*
X53422597Y-73407573D01*
X53422598Y-73407567D01*
X53425499Y-73370701D01*
X53425500Y-73370694D01*
X53425500Y-72939306D01*
X53422598Y-72902431D01*
X53408897Y-72855274D01*
X53376745Y-72744606D01*
X53376744Y-72744603D01*
X53376744Y-72744602D01*
X53293081Y-72603135D01*
X53293079Y-72603133D01*
X53293076Y-72603129D01*
X53176870Y-72486923D01*
X53176862Y-72486917D01*
X53035396Y-72403255D01*
X53035393Y-72403254D01*
X52877573Y-72357402D01*
X52877567Y-72357401D01*
X52840701Y-72354500D01*
X52840694Y-72354500D01*
X50959306Y-72354500D01*
X50959298Y-72354500D01*
X50922432Y-72357401D01*
X50922426Y-72357402D01*
X50764606Y-72403254D01*
X50764603Y-72403255D01*
X50623137Y-72486917D01*
X50623129Y-72486923D01*
X50506923Y-72603129D01*
X50506917Y-72603137D01*
X50423255Y-72744603D01*
X50423254Y-72744606D01*
X50377402Y-72902426D01*
X50377401Y-72902432D01*
X50374500Y-72939298D01*
X50374500Y-73370701D01*
X50377401Y-73407567D01*
X50377402Y-73407573D01*
X50410119Y-73520184D01*
X50409920Y-73590054D01*
X50371978Y-73648724D01*
X50308339Y-73677567D01*
X50239209Y-73667426D01*
X50225946Y-73660317D01*
X50108705Y-73588001D01*
X50108699Y-73587998D01*
X50108697Y-73587997D01*
X50108694Y-73587996D01*
X49947709Y-73534651D01*
X49848346Y-73524500D01*
X49251662Y-73524500D01*
X49251644Y-73524501D01*
X49152292Y-73534650D01*
X49152289Y-73534651D01*
X48991305Y-73587996D01*
X48991294Y-73588001D01*
X48846959Y-73677029D01*
X48846955Y-73677032D01*
X48840807Y-73683181D01*
X48813879Y-73697884D01*
X48788061Y-73714477D01*
X48781860Y-73715368D01*
X48779484Y-73716666D01*
X48753126Y-73719500D01*
X48737230Y-73719500D01*
X48670191Y-73699815D01*
X48649549Y-73683181D01*
X48593657Y-73627289D01*
X48593656Y-73627288D01*
X48444334Y-73535186D01*
X48277797Y-73480001D01*
X48277795Y-73480000D01*
X48175016Y-73469500D01*
X47174500Y-73469500D01*
X47107461Y-73449815D01*
X47061706Y-73397011D01*
X47050500Y-73345500D01*
X47050500Y-71570807D01*
X47070185Y-71503768D01*
X47086819Y-71483126D01*
X47472715Y-71097230D01*
X47534038Y-71063745D01*
X47560396Y-71060911D01*
X54175302Y-71060911D01*
X54259846Y-71044093D01*
X54300975Y-71035912D01*
X54419358Y-70986876D01*
X54459198Y-70960256D01*
X54525900Y-70915688D01*
X54987819Y-70453769D01*
X55049142Y-70420284D01*
X55118833Y-70425268D01*
G37*
%TD.AperFunction*%
%TA.AperFunction,Conductor*%
G36*
X102376035Y-40204090D02*
G01*
X102443066Y-40223791D01*
X102488807Y-40276606D01*
X102500000Y-40328089D01*
X102500000Y-58483033D01*
X102492329Y-58509157D01*
X102488094Y-58536050D01*
X102482630Y-58542187D01*
X102480315Y-58550072D01*
X102459740Y-58567899D01*
X102441636Y-58588237D01*
X102431753Y-58592150D01*
X102427511Y-58595827D01*
X102409338Y-58602467D01*
X102404804Y-58603732D01*
X102403173Y-58604057D01*
X102281088Y-58628341D01*
X102214522Y-58655914D01*
X102207616Y-58658774D01*
X102207614Y-58658775D01*
X102144507Y-58684914D01*
X102144498Y-58684919D01*
X102076285Y-58730499D01*
X102021582Y-58767049D01*
X100917048Y-59871583D01*
X100907757Y-59885489D01*
X100868215Y-59944670D01*
X100834914Y-59994507D01*
X100834913Y-59994509D01*
X100778343Y-60131082D01*
X100778340Y-60131092D01*
X100749500Y-60276079D01*
X100749500Y-60955170D01*
X100744576Y-60989765D01*
X100702402Y-61134926D01*
X100702401Y-61134932D01*
X100699500Y-61171798D01*
X100699500Y-62338000D01*
X100679815Y-62405039D01*
X100627011Y-62450794D01*
X100575500Y-62462000D01*
X100334298Y-62462000D01*
X100297432Y-62464901D01*
X100297426Y-62464902D01*
X100139606Y-62510754D01*
X100139603Y-62510755D01*
X99998137Y-62594417D01*
X99998129Y-62594423D01*
X99881923Y-62710629D01*
X99881917Y-62710637D01*
X99798255Y-62852103D01*
X99798253Y-62852106D01*
X99766880Y-62960095D01*
X99729274Y-63018981D01*
X99665801Y-63048187D01*
X99647804Y-63049500D01*
X99085929Y-63049500D01*
X98960261Y-63074497D01*
X98960255Y-63074499D01*
X98841875Y-63123533D01*
X98841866Y-63123538D01*
X98735331Y-63194723D01*
X98735327Y-63194726D01*
X98044727Y-63885325D01*
X98044726Y-63885326D01*
X97983767Y-63976559D01*
X97983765Y-63976562D01*
X97979496Y-63982952D01*
X97973535Y-63991873D01*
X97961518Y-64020881D01*
X97959502Y-64024900D01*
X97938609Y-64047289D01*
X97919398Y-64071129D01*
X97912831Y-64075387D01*
X97839814Y-64119528D01*
X97839810Y-64119531D01*
X97719530Y-64239811D01*
X97631522Y-64385393D01*
X97580913Y-64547807D01*
X97577890Y-64581077D01*
X97574500Y-64618384D01*
X97574500Y-65131616D01*
X97574758Y-65134455D01*
X97580913Y-65202192D01*
X97580913Y-65202194D01*
X97580914Y-65202196D01*
X97606260Y-65283535D01*
X97631522Y-65364606D01*
X97719530Y-65510188D01*
X97821661Y-65612319D01*
X97825999Y-65620264D01*
X97833246Y-65625689D01*
X97842481Y-65650448D01*
X97855146Y-65673642D01*
X97854500Y-65682671D01*
X97857664Y-65691153D01*
X97852047Y-65716975D01*
X97850162Y-65743334D01*
X97844344Y-65752386D01*
X97842813Y-65759426D01*
X97821662Y-65787680D01*
X97771163Y-65838180D01*
X97709840Y-65871666D01*
X97683481Y-65874500D01*
X93995808Y-65874500D01*
X93928769Y-65854815D01*
X93908127Y-65838181D01*
X93036819Y-64966873D01*
X93003334Y-64905550D01*
X93000500Y-64879192D01*
X93000500Y-62035928D01*
X92975502Y-61910261D01*
X92975501Y-61910260D01*
X92975501Y-61910256D01*
X92952818Y-61855494D01*
X92926466Y-61791874D01*
X92921288Y-61784125D01*
X92855278Y-61685332D01*
X92855272Y-61685325D01*
X92827834Y-61657887D01*
X92794349Y-61596564D01*
X92799333Y-61526872D01*
X92841205Y-61470939D01*
X92906669Y-61446522D01*
X92926733Y-61446714D01*
X92968384Y-61450500D01*
X92968387Y-61450500D01*
X93631613Y-61450500D01*
X93631616Y-61450500D01*
X93702196Y-61444086D01*
X93864606Y-61393478D01*
X94010185Y-61305472D01*
X94078839Y-61236817D01*
X94105770Y-61222111D01*
X94131584Y-61205523D01*
X94137783Y-61204631D01*
X94140160Y-61203334D01*
X94166519Y-61200500D01*
X94196984Y-61200500D01*
X94260105Y-61217768D01*
X94277980Y-61228339D01*
X94402102Y-61301744D01*
X94414927Y-61305470D01*
X94559926Y-61347597D01*
X94559929Y-61347597D01*
X94559931Y-61347598D01*
X94596806Y-61350500D01*
X95763000Y-61350500D01*
X95830039Y-61370185D01*
X95875794Y-61422989D01*
X95887000Y-61474500D01*
X95887000Y-61715701D01*
X95889901Y-61752567D01*
X95889902Y-61752573D01*
X95935754Y-61910393D01*
X95935755Y-61910396D01*
X95935756Y-61910398D01*
X95963589Y-61957461D01*
X96019417Y-62051862D01*
X96019423Y-62051870D01*
X96135629Y-62168076D01*
X96135633Y-62168079D01*
X96135635Y-62168081D01*
X96277102Y-62251744D01*
X96289769Y-62255424D01*
X96434926Y-62297597D01*
X96434929Y-62297597D01*
X96434931Y-62297598D01*
X96471806Y-62300500D01*
X96471814Y-62300500D01*
X97778186Y-62300500D01*
X97778194Y-62300500D01*
X97815069Y-62297598D01*
X97815071Y-62297597D01*
X97815073Y-62297597D01*
X97960233Y-62255424D01*
X97994828Y-62250500D01*
X98323920Y-62250500D01*
X98421462Y-62231096D01*
X98468913Y-62221658D01*
X98578941Y-62176083D01*
X98605493Y-62165085D01*
X98605493Y-62165084D01*
X98605495Y-62165084D01*
X98665412Y-62125049D01*
X98665412Y-62125048D01*
X98665414Y-62125048D01*
X98715075Y-62091866D01*
X98728416Y-62082952D01*
X99482952Y-61328416D01*
X99517964Y-61276016D01*
X99553026Y-61223542D01*
X99553030Y-61223535D01*
X99565084Y-61205495D01*
X99621658Y-61068913D01*
X99631691Y-61018477D01*
X99650500Y-60923920D01*
X99650500Y-59226874D01*
X99670185Y-59159835D01*
X99686819Y-59139193D01*
X99690081Y-59135931D01*
X99697968Y-59128044D01*
X99787003Y-58983697D01*
X99840349Y-58822708D01*
X99850500Y-58723345D01*
X99850499Y-57876656D01*
X99840349Y-57777292D01*
X99787003Y-57616303D01*
X99786999Y-57616297D01*
X99786998Y-57616294D01*
X99727101Y-57519187D01*
X99719293Y-57490653D01*
X99708955Y-57462936D01*
X99710174Y-57457329D01*
X99708660Y-57451795D01*
X99717519Y-57423565D01*
X99723807Y-57394663D01*
X99728599Y-57388260D01*
X99729582Y-57385131D01*
X99744954Y-57366413D01*
X99918849Y-57192517D01*
X99980172Y-57159033D01*
X100006530Y-57156199D01*
X101053571Y-57156199D01*
X101053572Y-57156199D01*
X101113183Y-57149791D01*
X101248031Y-57099496D01*
X101363246Y-57013246D01*
X101449496Y-56898031D01*
X101499791Y-56763183D01*
X101506200Y-56703573D01*
X101506199Y-54296428D01*
X101499791Y-54236817D01*
X101482648Y-54190855D01*
X101449497Y-54101971D01*
X101449493Y-54101964D01*
X101363247Y-53986755D01*
X101363244Y-53986752D01*
X101248035Y-53900506D01*
X101248028Y-53900502D01*
X101113182Y-53850208D01*
X101113183Y-53850208D01*
X101053583Y-53843801D01*
X101053581Y-53843800D01*
X101053573Y-53843800D01*
X101053564Y-53843800D01*
X98646429Y-53843800D01*
X98646423Y-53843801D01*
X98586816Y-53850208D01*
X98451971Y-53900502D01*
X98451964Y-53900506D01*
X98336755Y-53986752D01*
X98336752Y-53986755D01*
X98250506Y-54101964D01*
X98250502Y-54101971D01*
X98200208Y-54236817D01*
X98194533Y-54289606D01*
X98193801Y-54296423D01*
X98193800Y-54296435D01*
X98193800Y-56703570D01*
X98193801Y-56703576D01*
X98200208Y-56763183D01*
X98205751Y-56778043D01*
X98210735Y-56847735D01*
X98204131Y-56868824D01*
X98181051Y-56924548D01*
X98178341Y-56931090D01*
X98178340Y-56931093D01*
X98149500Y-57076079D01*
X98149500Y-57373126D01*
X98129815Y-57440165D01*
X98113181Y-57460807D01*
X98102032Y-57471955D01*
X98102029Y-57471959D01*
X98013001Y-57616294D01*
X98012996Y-57616305D01*
X97959651Y-57777290D01*
X97949500Y-57876647D01*
X97949500Y-58723337D01*
X97949501Y-58723355D01*
X97959650Y-58822707D01*
X97959651Y-58822710D01*
X98012996Y-58983694D01*
X98013001Y-58983705D01*
X98102029Y-59128040D01*
X98102032Y-59128044D01*
X98113181Y-59139193D01*
X98146666Y-59200516D01*
X98149500Y-59226874D01*
X98149500Y-60487769D01*
X98140855Y-60517209D01*
X98134332Y-60547196D01*
X98130577Y-60552211D01*
X98129815Y-60554808D01*
X98113181Y-60575451D01*
X97999551Y-60689080D01*
X97938228Y-60722564D01*
X97877275Y-60720474D01*
X97815073Y-60702402D01*
X97815067Y-60702401D01*
X97778201Y-60699500D01*
X97778194Y-60699500D01*
X96612000Y-60699500D01*
X96544961Y-60679815D01*
X96499206Y-60627011D01*
X96488000Y-60575500D01*
X96488000Y-60334313D01*
X96487999Y-60334298D01*
X96487036Y-60322064D01*
X96485098Y-60297431D01*
X96483922Y-60293384D01*
X96439245Y-60139606D01*
X96439244Y-60139603D01*
X96439244Y-60139602D01*
X96355581Y-59998135D01*
X96355579Y-59998133D01*
X96355576Y-59998129D01*
X96239370Y-59881923D01*
X96239362Y-59881917D01*
X96161181Y-59835681D01*
X96097898Y-59798256D01*
X96097897Y-59798255D01*
X96097896Y-59798255D01*
X96097893Y-59798254D01*
X95940073Y-59752402D01*
X95940067Y-59752401D01*
X95903201Y-59749500D01*
X95903194Y-59749500D01*
X94596806Y-59749500D01*
X94596798Y-59749500D01*
X94559932Y-59752401D01*
X94559926Y-59752402D01*
X94402106Y-59798254D01*
X94402103Y-59798255D01*
X94260105Y-59882232D01*
X94244203Y-59886582D01*
X94231919Y-59894477D01*
X94196984Y-59899500D01*
X94166519Y-59899500D01*
X94099480Y-59879815D01*
X94078842Y-59863185D01*
X94010185Y-59794528D01*
X94010184Y-59794527D01*
X94010183Y-59794526D01*
X94004282Y-59789903D01*
X94005083Y-59788879D01*
X93963158Y-59743090D01*
X93950500Y-59688510D01*
X93950500Y-58962054D01*
X93970185Y-58895015D01*
X94010347Y-58855938D01*
X94135185Y-58780472D01*
X94255472Y-58660185D01*
X94343478Y-58514606D01*
X94394086Y-58352196D01*
X94400500Y-58281616D01*
X94400500Y-57618384D01*
X94394086Y-57547804D01*
X94343478Y-57385394D01*
X94255472Y-57239815D01*
X94230415Y-57214758D01*
X94196931Y-57153438D01*
X94201915Y-57083746D01*
X94243783Y-57027814D01*
X94263244Y-57013246D01*
X94349494Y-56898031D01*
X94399789Y-56763183D01*
X94399789Y-56763182D01*
X94400825Y-56760405D01*
X94442696Y-56704471D01*
X94508160Y-56680053D01*
X94576433Y-56694904D01*
X94604688Y-56716056D01*
X94813181Y-56924548D01*
X94846666Y-56985871D01*
X94849500Y-57012229D01*
X94849500Y-57373126D01*
X94829815Y-57440165D01*
X94813181Y-57460807D01*
X94802032Y-57471955D01*
X94802029Y-57471959D01*
X94713001Y-57616294D01*
X94712996Y-57616305D01*
X94659651Y-57777290D01*
X94649500Y-57876647D01*
X94649500Y-58723337D01*
X94649501Y-58723355D01*
X94659650Y-58822707D01*
X94659651Y-58822710D01*
X94712996Y-58983694D01*
X94713001Y-58983705D01*
X94802029Y-59128040D01*
X94802032Y-59128044D01*
X94921955Y-59247967D01*
X94921959Y-59247970D01*
X95066294Y-59336998D01*
X95066297Y-59336999D01*
X95066303Y-59337003D01*
X95227292Y-59390349D01*
X95326655Y-59400500D01*
X95873344Y-59400499D01*
X95873352Y-59400498D01*
X95873355Y-59400498D01*
X95927760Y-59394940D01*
X95972708Y-59390349D01*
X96133697Y-59337003D01*
X96278044Y-59247968D01*
X96397968Y-59128044D01*
X96405475Y-59115872D01*
X96457422Y-59069148D01*
X96526385Y-59057925D01*
X96558460Y-59066405D01*
X96566503Y-59069737D01*
X96566508Y-59069738D01*
X96566511Y-59069739D01*
X96721153Y-59100499D01*
X96721156Y-59100500D01*
X96721158Y-59100500D01*
X96878844Y-59100500D01*
X96878845Y-59100499D01*
X97033497Y-59069737D01*
X97179179Y-59009394D01*
X97310289Y-58921789D01*
X97421789Y-58810289D01*
X97509394Y-58679179D01*
X97514561Y-58666706D01*
X97556794Y-58564744D01*
X97569737Y-58533497D01*
X97600500Y-58378842D01*
X97600500Y-58221158D01*
X97600500Y-58221155D01*
X97600499Y-58221153D01*
X97569737Y-58066503D01*
X97569735Y-58066498D01*
X97509397Y-57920827D01*
X97509390Y-57920814D01*
X97421789Y-57789711D01*
X97421786Y-57789707D01*
X97310292Y-57678213D01*
X97310288Y-57678210D01*
X97179185Y-57590609D01*
X97179172Y-57590602D01*
X97033501Y-57530264D01*
X97033489Y-57530261D01*
X96878845Y-57499500D01*
X96878842Y-57499500D01*
X96721158Y-57499500D01*
X96721155Y-57499500D01*
X96566511Y-57530260D01*
X96566503Y-57530263D01*
X96558458Y-57533595D01*
X96531808Y-57536457D01*
X96505802Y-57542920D01*
X96497601Y-57540132D01*
X96488988Y-57541058D01*
X96465026Y-57529061D01*
X96439649Y-57520436D01*
X96432386Y-57512719D01*
X96426511Y-57509778D01*
X96413971Y-57496222D01*
X96409360Y-57490425D01*
X96397968Y-57471956D01*
X96381839Y-57455827D01*
X96377457Y-57450318D01*
X96366838Y-57424214D01*
X96353334Y-57399484D01*
X96352096Y-57387978D01*
X96351129Y-57385599D01*
X96351581Y-57383180D01*
X96350500Y-57373126D01*
X96350500Y-56576081D01*
X96349447Y-56570788D01*
X96344763Y-56547241D01*
X96321659Y-56431088D01*
X96284093Y-56340398D01*
X96265084Y-56294505D01*
X96190214Y-56182454D01*
X96190213Y-56182452D01*
X96182954Y-56171587D01*
X96182950Y-56171583D01*
X94928421Y-54917052D01*
X94928414Y-54917046D01*
X94828818Y-54850499D01*
X94828817Y-54850499D01*
X94805495Y-54834916D01*
X94805488Y-54834912D01*
X94668917Y-54778343D01*
X94668907Y-54778340D01*
X94523921Y-54749500D01*
X94518041Y-54748921D01*
X94453254Y-54722759D01*
X94412896Y-54665724D01*
X94406197Y-54625518D01*
X94406197Y-54296429D01*
X94406196Y-54296423D01*
X94406195Y-54296416D01*
X94399789Y-54236817D01*
X94382646Y-54190855D01*
X94349495Y-54101971D01*
X94349491Y-54101964D01*
X94263245Y-53986755D01*
X94263242Y-53986752D01*
X94148033Y-53900506D01*
X94148026Y-53900502D01*
X94013180Y-53850208D01*
X94013181Y-53850208D01*
X93953581Y-53843801D01*
X93953579Y-53843800D01*
X93953571Y-53843800D01*
X93953563Y-53843800D01*
X91674500Y-53843800D01*
X91607461Y-53824115D01*
X91561706Y-53771311D01*
X91550500Y-53719800D01*
X91550500Y-50985928D01*
X91525502Y-50860261D01*
X91525501Y-50860260D01*
X91525501Y-50860256D01*
X91476465Y-50741873D01*
X91464212Y-50723535D01*
X91464211Y-50723532D01*
X91405278Y-50635332D01*
X91405272Y-50635325D01*
X89624673Y-48854726D01*
X89616379Y-48849184D01*
X89518127Y-48783535D01*
X89515116Y-48782288D01*
X89399744Y-48734499D01*
X89399736Y-48734497D01*
X89274073Y-48709501D01*
X89274069Y-48709501D01*
X89145931Y-48709501D01*
X89145930Y-48709501D01*
X89128360Y-48712996D01*
X89107641Y-48717117D01*
X89083451Y-48719500D01*
X88187180Y-48719500D01*
X88120141Y-48699815D01*
X88087913Y-48669811D01*
X88007546Y-48562454D01*
X87968775Y-48533430D01*
X87892335Y-48476206D01*
X87892328Y-48476202D01*
X87757482Y-48425908D01*
X87757483Y-48425908D01*
X87697883Y-48419501D01*
X87697881Y-48419500D01*
X87697873Y-48419500D01*
X87697864Y-48419500D01*
X86102129Y-48419500D01*
X86102123Y-48419501D01*
X86042516Y-48425908D01*
X85907671Y-48476202D01*
X85907664Y-48476206D01*
X85792455Y-48562452D01*
X85792452Y-48562455D01*
X85706206Y-48677664D01*
X85706202Y-48677671D01*
X85655908Y-48812517D01*
X85649501Y-48872116D01*
X85649501Y-48872123D01*
X85649500Y-48872135D01*
X85649500Y-49867870D01*
X85649501Y-49867876D01*
X85655908Y-49927481D01*
X85668659Y-49961669D01*
X85673642Y-50031361D01*
X85668659Y-50048331D01*
X85655908Y-50082518D01*
X85649501Y-50142116D01*
X85649500Y-50142135D01*
X85649500Y-51137870D01*
X85649501Y-51137876D01*
X85655908Y-51197481D01*
X85668659Y-51231669D01*
X85673642Y-51301361D01*
X85668659Y-51318331D01*
X85655908Y-51352518D01*
X85649501Y-51412116D01*
X85649500Y-51412135D01*
X85649500Y-52407870D01*
X85649501Y-52407876D01*
X85655908Y-52467481D01*
X85668659Y-52501669D01*
X85673642Y-52571361D01*
X85668659Y-52588331D01*
X85655908Y-52622518D01*
X85649501Y-52682116D01*
X85649500Y-52682135D01*
X85649500Y-53677870D01*
X85649501Y-53677876D01*
X85655908Y-53737481D01*
X85668659Y-53771669D01*
X85673642Y-53841361D01*
X85668659Y-53858331D01*
X85655908Y-53892518D01*
X85651092Y-53937318D01*
X85649501Y-53952123D01*
X85649500Y-53952135D01*
X85649500Y-54947870D01*
X85649501Y-54947876D01*
X85655908Y-55007481D01*
X85668659Y-55041669D01*
X85673642Y-55111361D01*
X85668659Y-55128331D01*
X85655908Y-55162518D01*
X85652096Y-55197977D01*
X85649501Y-55222123D01*
X85649500Y-55222135D01*
X85649500Y-56217870D01*
X85649501Y-56217876D01*
X85655908Y-56277481D01*
X85668659Y-56311669D01*
X85673642Y-56381361D01*
X85668659Y-56398331D01*
X85655908Y-56432518D01*
X85652172Y-56467272D01*
X85649501Y-56492123D01*
X85649500Y-56492135D01*
X85649500Y-57487870D01*
X85649501Y-57487876D01*
X85655908Y-57547481D01*
X85668659Y-57581669D01*
X85673642Y-57651361D01*
X85668659Y-57668331D01*
X85655908Y-57702518D01*
X85652271Y-57736350D01*
X85649501Y-57762123D01*
X85649500Y-57762135D01*
X85649500Y-58757870D01*
X85649501Y-58757876D01*
X85655908Y-58817481D01*
X85668659Y-58851669D01*
X85673642Y-58921361D01*
X85668659Y-58938331D01*
X85655908Y-58972518D01*
X85649501Y-59032116D01*
X85649501Y-59032123D01*
X85649500Y-59032135D01*
X85649500Y-60027870D01*
X85649501Y-60027876D01*
X85655908Y-60087481D01*
X85668659Y-60121669D01*
X85673642Y-60191361D01*
X85668659Y-60208331D01*
X85655908Y-60242518D01*
X85650440Y-60293384D01*
X85649501Y-60302123D01*
X85649500Y-60302135D01*
X85649500Y-61297870D01*
X85649501Y-61297876D01*
X85655908Y-61357481D01*
X85668659Y-61391669D01*
X85673642Y-61461361D01*
X85668659Y-61478331D01*
X85655908Y-61512518D01*
X85649501Y-61572116D01*
X85649501Y-61572123D01*
X85649500Y-61572135D01*
X85649500Y-62567870D01*
X85649501Y-62567876D01*
X85655908Y-62627481D01*
X85668659Y-62661669D01*
X85673642Y-62731361D01*
X85668659Y-62748331D01*
X85655908Y-62782518D01*
X85652484Y-62814370D01*
X85649501Y-62842123D01*
X85649500Y-62842135D01*
X85649500Y-63837870D01*
X85649501Y-63837876D01*
X85655908Y-63897481D01*
X85668659Y-63931669D01*
X85673642Y-64001361D01*
X85668659Y-64018331D01*
X85655908Y-64052518D01*
X85649501Y-64112116D01*
X85649501Y-64112123D01*
X85649500Y-64112135D01*
X85649500Y-64485500D01*
X85629815Y-64552539D01*
X85577011Y-64598294D01*
X85525500Y-64609500D01*
X84637129Y-64609500D01*
X84637123Y-64609501D01*
X84577518Y-64615908D01*
X84543331Y-64628659D01*
X84473639Y-64633642D01*
X84456669Y-64628659D01*
X84422480Y-64615908D01*
X84422482Y-64615908D01*
X84362883Y-64609501D01*
X84362881Y-64609500D01*
X84362873Y-64609500D01*
X84362864Y-64609500D01*
X83367129Y-64609500D01*
X83367123Y-64609501D01*
X83307518Y-64615908D01*
X83273331Y-64628659D01*
X83203639Y-64633642D01*
X83186669Y-64628659D01*
X83152480Y-64615908D01*
X83152482Y-64615908D01*
X83092883Y-64609501D01*
X83092881Y-64609500D01*
X83092873Y-64609500D01*
X83092864Y-64609500D01*
X82097129Y-64609500D01*
X82097123Y-64609501D01*
X82037518Y-64615908D01*
X82003331Y-64628659D01*
X81933639Y-64633642D01*
X81916669Y-64628659D01*
X81882480Y-64615908D01*
X81882482Y-64615908D01*
X81822883Y-64609501D01*
X81822881Y-64609500D01*
X81822873Y-64609500D01*
X81822864Y-64609500D01*
X80827129Y-64609500D01*
X80827123Y-64609501D01*
X80767518Y-64615908D01*
X80733331Y-64628659D01*
X80663639Y-64633642D01*
X80646669Y-64628659D01*
X80612480Y-64615908D01*
X80612482Y-64615908D01*
X80552883Y-64609501D01*
X80552881Y-64609500D01*
X80552873Y-64609500D01*
X80552864Y-64609500D01*
X79557129Y-64609500D01*
X79557123Y-64609501D01*
X79497518Y-64615908D01*
X79463331Y-64628659D01*
X79393639Y-64633642D01*
X79376669Y-64628659D01*
X79342480Y-64615908D01*
X79342482Y-64615908D01*
X79282883Y-64609501D01*
X79282881Y-64609500D01*
X79282873Y-64609500D01*
X79282864Y-64609500D01*
X78287129Y-64609500D01*
X78287123Y-64609501D01*
X78227518Y-64615908D01*
X78193331Y-64628659D01*
X78123639Y-64633642D01*
X78106669Y-64628659D01*
X78072480Y-64615908D01*
X78072482Y-64615908D01*
X78012883Y-64609501D01*
X78012881Y-64609500D01*
X78012873Y-64609500D01*
X78012864Y-64609500D01*
X77017129Y-64609500D01*
X77017123Y-64609501D01*
X76957518Y-64615908D01*
X76923331Y-64628659D01*
X76853639Y-64633642D01*
X76836669Y-64628659D01*
X76802480Y-64615908D01*
X76802482Y-64615908D01*
X76742883Y-64609501D01*
X76742881Y-64609500D01*
X76742873Y-64609500D01*
X76742864Y-64609500D01*
X75747129Y-64609500D01*
X75747123Y-64609501D01*
X75687518Y-64615908D01*
X75653331Y-64628659D01*
X75583639Y-64633642D01*
X75566669Y-64628659D01*
X75532480Y-64615908D01*
X75532482Y-64615908D01*
X75472883Y-64609501D01*
X75472881Y-64609500D01*
X75472873Y-64609500D01*
X75472865Y-64609500D01*
X74479500Y-64609500D01*
X74412461Y-64589815D01*
X74366706Y-64537011D01*
X74355500Y-64485500D01*
X74355500Y-61774808D01*
X74375185Y-61707769D01*
X74427989Y-61662014D01*
X74497147Y-61652070D01*
X74560703Y-61681095D01*
X74567181Y-61687127D01*
X74942510Y-62062456D01*
X74969390Y-62102684D01*
X75007069Y-62193649D01*
X75007074Y-62193659D01*
X75086467Y-62312478D01*
X75086470Y-62312482D01*
X75187517Y-62413529D01*
X75187521Y-62413532D01*
X75306340Y-62492925D01*
X75306349Y-62492930D01*
X75330977Y-62503131D01*
X75438380Y-62547619D01*
X75438384Y-62547619D01*
X75438385Y-62547620D01*
X75578542Y-62575500D01*
X75578545Y-62575500D01*
X75721457Y-62575500D01*
X75815751Y-62556742D01*
X75861620Y-62547619D01*
X75993653Y-62492929D01*
X76112479Y-62413532D01*
X76213532Y-62312479D01*
X76292929Y-62193653D01*
X76347619Y-62061620D01*
X76362794Y-61985331D01*
X76375500Y-61921457D01*
X76375500Y-61778542D01*
X76347620Y-61638385D01*
X76347619Y-61638384D01*
X76347619Y-61638380D01*
X76301884Y-61527966D01*
X76292930Y-61506349D01*
X76292925Y-61506340D01*
X76213532Y-61387521D01*
X76213529Y-61387517D01*
X76112482Y-61286470D01*
X76112478Y-61286467D01*
X75993659Y-61207074D01*
X75993649Y-61207069D01*
X75902684Y-61169390D01*
X75862456Y-61142510D01*
X74686819Y-59966873D01*
X74653334Y-59905550D01*
X74650500Y-59879192D01*
X74650500Y-53535928D01*
X74625502Y-53410261D01*
X74625501Y-53410260D01*
X74625501Y-53410256D01*
X74576465Y-53291873D01*
X74566700Y-53277259D01*
X74566699Y-53277255D01*
X74566698Y-53277256D01*
X74505277Y-53185331D01*
X74505275Y-53185329D01*
X74505273Y-53185326D01*
X72768119Y-51448172D01*
X72734634Y-51386849D01*
X72739618Y-51317157D01*
X72781490Y-51261224D01*
X72786880Y-51257408D01*
X72882479Y-51193532D01*
X72983532Y-51092479D01*
X73062929Y-50973653D01*
X73117619Y-50841620D01*
X73137078Y-50743796D01*
X73145500Y-50701457D01*
X73145500Y-50558542D01*
X73117620Y-50418385D01*
X73117619Y-50418384D01*
X73117619Y-50418380D01*
X73062929Y-50286347D01*
X73062928Y-50286346D01*
X73062925Y-50286340D01*
X72983532Y-50167521D01*
X72983529Y-50167517D01*
X72882482Y-50066470D01*
X72882478Y-50066467D01*
X72763659Y-49987074D01*
X72763650Y-49987069D01*
X72631620Y-49932381D01*
X72631614Y-49932379D01*
X72491457Y-49904500D01*
X72491455Y-49904500D01*
X72348545Y-49904500D01*
X72348543Y-49904500D01*
X72208385Y-49932379D01*
X72208379Y-49932381D01*
X72093271Y-49980061D01*
X72045818Y-49989500D01*
X70774500Y-49989500D01*
X70707461Y-49969815D01*
X70661706Y-49917011D01*
X70650500Y-49865500D01*
X70650499Y-48872129D01*
X70650498Y-48872123D01*
X70650497Y-48872116D01*
X70644091Y-48812517D01*
X70643075Y-48809794D01*
X70593797Y-48677671D01*
X70593793Y-48677664D01*
X70507547Y-48562455D01*
X70507544Y-48562452D01*
X70392335Y-48476206D01*
X70392328Y-48476202D01*
X70257482Y-48425908D01*
X70257483Y-48425908D01*
X70197883Y-48419501D01*
X70197881Y-48419500D01*
X70197873Y-48419500D01*
X70197864Y-48419500D01*
X68602129Y-48419500D01*
X68602123Y-48419501D01*
X68542516Y-48425908D01*
X68407671Y-48476202D01*
X68407664Y-48476206D01*
X68292455Y-48562452D01*
X68292452Y-48562455D01*
X68206206Y-48677664D01*
X68206202Y-48677671D01*
X68172202Y-48768833D01*
X68130331Y-48824767D01*
X68064867Y-48849184D01*
X68056020Y-48849500D01*
X67151874Y-48849500D01*
X67084835Y-48829815D01*
X67064193Y-48813181D01*
X67053044Y-48802032D01*
X67053040Y-48802029D01*
X66908705Y-48713001D01*
X66908699Y-48712998D01*
X66908697Y-48712997D01*
X66868916Y-48699815D01*
X66747709Y-48659651D01*
X66648346Y-48649500D01*
X66051662Y-48649500D01*
X66051644Y-48649501D01*
X65952292Y-48659650D01*
X65952289Y-48659651D01*
X65791305Y-48712996D01*
X65791294Y-48713001D01*
X65646959Y-48802029D01*
X65646955Y-48802032D01*
X65637681Y-48811307D01*
X65576358Y-48844792D01*
X65506666Y-48839808D01*
X65462319Y-48811307D01*
X65453044Y-48802032D01*
X65453040Y-48802029D01*
X65308705Y-48713001D01*
X65308699Y-48712998D01*
X65308697Y-48712997D01*
X65268916Y-48699815D01*
X65147709Y-48659651D01*
X65048346Y-48649500D01*
X64451662Y-48649500D01*
X64451644Y-48649501D01*
X64352292Y-48659650D01*
X64352289Y-48659651D01*
X64191305Y-48712996D01*
X64191294Y-48713001D01*
X64046959Y-48802029D01*
X64046955Y-48802032D01*
X64037681Y-48811307D01*
X63976358Y-48844792D01*
X63906666Y-48839808D01*
X63862319Y-48811307D01*
X63853044Y-48802032D01*
X63853040Y-48802029D01*
X63708705Y-48713001D01*
X63708699Y-48712998D01*
X63708697Y-48712997D01*
X63668916Y-48699815D01*
X63547709Y-48659651D01*
X63448346Y-48649500D01*
X62851662Y-48649500D01*
X62851644Y-48649501D01*
X62752292Y-48659650D01*
X62752289Y-48659651D01*
X62591305Y-48712996D01*
X62591294Y-48713001D01*
X62446959Y-48802029D01*
X62446955Y-48802032D01*
X62417859Y-48831129D01*
X62356536Y-48864614D01*
X62286844Y-48859630D01*
X62242497Y-48831129D01*
X62193657Y-48782289D01*
X62193656Y-48782288D01*
X62044334Y-48690186D01*
X61877797Y-48635001D01*
X61877795Y-48635000D01*
X61775010Y-48624500D01*
X60724998Y-48624500D01*
X60724980Y-48624501D01*
X60622203Y-48635000D01*
X60622200Y-48635001D01*
X60455668Y-48690185D01*
X60455663Y-48690187D01*
X60306342Y-48782289D01*
X60250451Y-48838181D01*
X60189128Y-48871666D01*
X60162770Y-48874500D01*
X59787229Y-48874500D01*
X59720190Y-48854815D01*
X59699548Y-48838181D01*
X57683050Y-46821681D01*
X57649565Y-46760358D01*
X57654549Y-46690666D01*
X57696421Y-46634733D01*
X57761885Y-46610316D01*
X57770731Y-46610000D01*
X69575500Y-46610000D01*
X69642539Y-46629685D01*
X69688294Y-46682489D01*
X69699500Y-46734000D01*
X69699500Y-46789882D01*
X69730024Y-46863574D01*
X69786426Y-46919976D01*
X69860118Y-46950500D01*
X69860120Y-46950500D01*
X88689880Y-46950500D01*
X88689882Y-46950500D01*
X88763574Y-46919976D01*
X88819976Y-46863574D01*
X88850500Y-46789882D01*
X88850500Y-46734000D01*
X88870185Y-46666961D01*
X88922989Y-46621206D01*
X88974500Y-46610000D01*
X91233888Y-46610000D01*
X91300927Y-46629685D01*
X91346682Y-46682489D01*
X91356626Y-46751647D01*
X91327601Y-46815203D01*
X91308199Y-46833266D01*
X91236753Y-46886750D01*
X91236750Y-46886753D01*
X91150504Y-47001962D01*
X91150500Y-47001969D01*
X91100206Y-47136815D01*
X91093799Y-47196414D01*
X91093799Y-47196421D01*
X91093798Y-47196433D01*
X91093798Y-49603568D01*
X91093799Y-49603574D01*
X91100206Y-49663181D01*
X91150500Y-49798026D01*
X91150504Y-49798033D01*
X91236750Y-49913242D01*
X91236753Y-49913245D01*
X91351962Y-49999491D01*
X91351969Y-49999495D01*
X91486815Y-50049789D01*
X91486814Y-50049789D01*
X91493742Y-50050533D01*
X91546425Y-50056198D01*
X93953570Y-50056197D01*
X94013181Y-50049789D01*
X94148029Y-49999494D01*
X94263244Y-49913244D01*
X94349494Y-49798029D01*
X94399789Y-49663181D01*
X94406198Y-49603571D01*
X94406197Y-47196426D01*
X94399789Y-47136815D01*
X94349494Y-47001967D01*
X94349493Y-47001966D01*
X94349491Y-47001962D01*
X94263245Y-46886753D01*
X94263242Y-46886750D01*
X94191797Y-46833266D01*
X94149926Y-46777332D01*
X94144942Y-46707641D01*
X94178428Y-46646318D01*
X94239751Y-46612834D01*
X94266108Y-46610000D01*
X98333890Y-46610000D01*
X98400929Y-46629685D01*
X98446684Y-46682489D01*
X98456628Y-46751647D01*
X98427603Y-46815203D01*
X98408201Y-46833266D01*
X98336755Y-46886750D01*
X98336752Y-46886753D01*
X98250506Y-47001962D01*
X98250502Y-47001969D01*
X98200208Y-47136815D01*
X98193801Y-47196414D01*
X98193801Y-47196421D01*
X98193800Y-47196433D01*
X98193800Y-49603568D01*
X98193801Y-49603574D01*
X98200208Y-49663181D01*
X98250502Y-49798026D01*
X98250506Y-49798033D01*
X98336752Y-49913242D01*
X98336755Y-49913245D01*
X98451964Y-49999491D01*
X98451971Y-49999495D01*
X98586817Y-50049789D01*
X98586816Y-50049789D01*
X98593744Y-50050533D01*
X98646427Y-50056198D01*
X101053572Y-50056197D01*
X101113183Y-50049789D01*
X101248031Y-49999494D01*
X101363246Y-49913244D01*
X101449496Y-49798029D01*
X101499791Y-49663181D01*
X101506200Y-49603571D01*
X101506199Y-47196426D01*
X101499791Y-47136815D01*
X101449496Y-47001967D01*
X101449495Y-47001966D01*
X101449493Y-47001962D01*
X101363247Y-46886753D01*
X101363244Y-46886750D01*
X101291799Y-46833266D01*
X101249928Y-46777332D01*
X101244944Y-46707641D01*
X101278430Y-46646318D01*
X101339753Y-46612834D01*
X101366110Y-46610000D01*
X102150000Y-46610000D01*
X102150000Y-40328063D01*
X102169685Y-40261024D01*
X102222489Y-40215269D01*
X102274029Y-40204063D01*
X102376035Y-40204090D01*
G37*
%TD.AperFunction*%
%TA.AperFunction,Conductor*%
G36*
X56487088Y-59734939D02*
G01*
X56506767Y-59743090D01*
X56638620Y-59797705D01*
X56754798Y-59813000D01*
X56754805Y-59813000D01*
X57125500Y-59813000D01*
X57192539Y-59832685D01*
X57238294Y-59885489D01*
X57249500Y-59937000D01*
X57249500Y-60286160D01*
X57236385Y-60338520D01*
X57237247Y-60338878D01*
X57178342Y-60481086D01*
X57178340Y-60481092D01*
X57149500Y-60626079D01*
X57149500Y-61887770D01*
X57129815Y-61954809D01*
X57113181Y-61975451D01*
X56575451Y-62513181D01*
X56514128Y-62546666D01*
X56487770Y-62549500D01*
X54401874Y-62549500D01*
X54334835Y-62529815D01*
X54314193Y-62513181D01*
X54303044Y-62502032D01*
X54303040Y-62502029D01*
X54158705Y-62413001D01*
X54158699Y-62412998D01*
X54158697Y-62412997D01*
X54117914Y-62399483D01*
X53997709Y-62359651D01*
X53898346Y-62349500D01*
X53301662Y-62349500D01*
X53301644Y-62349501D01*
X53202292Y-62359650D01*
X53202289Y-62359651D01*
X53041305Y-62412996D01*
X53041298Y-62412999D01*
X52978018Y-62452032D01*
X52930991Y-62481038D01*
X52865895Y-62499500D01*
X52126874Y-62499500D01*
X52059835Y-62479815D01*
X52039193Y-62463181D01*
X52028044Y-62452032D01*
X52028040Y-62452029D01*
X51883705Y-62363001D01*
X51883699Y-62362998D01*
X51883697Y-62362997D01*
X51822856Y-62342836D01*
X51774180Y-62312812D01*
X50353549Y-60892181D01*
X50320064Y-60830858D01*
X50325048Y-60761166D01*
X50366920Y-60705233D01*
X50432384Y-60680816D01*
X50441230Y-60680500D01*
X52821194Y-60680500D01*
X52888233Y-60700185D01*
X52927310Y-60740349D01*
X52969528Y-60810185D01*
X52969531Y-60810189D01*
X53089811Y-60930469D01*
X53089813Y-60930470D01*
X53089815Y-60930472D01*
X53235394Y-61018478D01*
X53397804Y-61069086D01*
X53468384Y-61075500D01*
X53468387Y-61075500D01*
X53981613Y-61075500D01*
X53981616Y-61075500D01*
X54052196Y-61069086D01*
X54214606Y-61018478D01*
X54360185Y-60930472D01*
X54480472Y-60810185D01*
X54568478Y-60664606D01*
X54619086Y-60502196D01*
X54625500Y-60431616D01*
X54625500Y-59849500D01*
X54645185Y-59782461D01*
X54697989Y-59736706D01*
X54749500Y-59725500D01*
X56439636Y-59725500D01*
X56487088Y-59734939D01*
G37*
%TD.AperFunction*%
%TA.AperFunction,Conductor*%
G36*
X56676231Y-56600185D02*
G01*
X56696873Y-56616819D01*
X57213181Y-57133126D01*
X57246666Y-57194449D01*
X57249500Y-57220807D01*
X57249500Y-57238000D01*
X57229815Y-57305039D01*
X57177011Y-57350794D01*
X57125500Y-57362000D01*
X56754798Y-57362000D01*
X56754792Y-57362000D01*
X56754788Y-57362001D01*
X56638621Y-57377294D01*
X56638616Y-57377296D01*
X56487088Y-57440061D01*
X56439636Y-57449500D01*
X55845940Y-57449500D01*
X55805019Y-57460464D01*
X55805019Y-57460465D01*
X55767751Y-57470451D01*
X55693214Y-57490423D01*
X55693209Y-57490426D01*
X55556290Y-57569475D01*
X55556282Y-57569481D01*
X55482380Y-57643384D01*
X55444480Y-57681284D01*
X55444478Y-57681286D01*
X55336054Y-57789711D01*
X55237584Y-57888181D01*
X55176261Y-57921666D01*
X55149903Y-57924500D01*
X54556224Y-57924500D01*
X54489185Y-57904815D01*
X54443430Y-57852011D01*
X54433486Y-57782853D01*
X54450107Y-57736350D01*
X54470559Y-57702518D01*
X54493478Y-57664606D01*
X54544086Y-57502196D01*
X54550500Y-57431616D01*
X54550500Y-56804500D01*
X54570185Y-56737461D01*
X54622989Y-56691706D01*
X54674500Y-56680500D01*
X55793920Y-56680500D01*
X55891462Y-56661096D01*
X55938913Y-56651658D01*
X56075495Y-56595084D01*
X56075496Y-56595083D01*
X56081122Y-56592753D01*
X56081479Y-56593614D01*
X56133840Y-56580500D01*
X56609192Y-56580500D01*
X56676231Y-56600185D01*
G37*
%TD.AperFunction*%
%TA.AperFunction,Conductor*%
G36*
X62398200Y-50382183D02*
G01*
X62421812Y-50384497D01*
X62437906Y-50393842D01*
X62440538Y-50394615D01*
X62440809Y-50394177D01*
X62442410Y-50395164D01*
X62442479Y-50395185D01*
X62442706Y-50395347D01*
X62591294Y-50486998D01*
X62591297Y-50486999D01*
X62591303Y-50487003D01*
X62752292Y-50540349D01*
X62851655Y-50550500D01*
X63448344Y-50550499D01*
X63448352Y-50550498D01*
X63448355Y-50550498D01*
X63502760Y-50544940D01*
X63547708Y-50540349D01*
X63708697Y-50487003D01*
X63771948Y-50447989D01*
X63859191Y-50394177D01*
X63860868Y-50396896D01*
X63869668Y-50393347D01*
X63889625Y-50380523D01*
X63908041Y-50377875D01*
X63912466Y-50376091D01*
X63924560Y-50375500D01*
X63975441Y-50375500D01*
X64042480Y-50395185D01*
X64051684Y-50401710D01*
X64051743Y-50401756D01*
X64069058Y-50425857D01*
X64088235Y-50447989D01*
X64089055Y-50453692D01*
X64092509Y-50458500D01*
X64099500Y-50499546D01*
X64099500Y-52433480D01*
X64079815Y-52500519D01*
X64063181Y-52521161D01*
X64019531Y-52564810D01*
X64019530Y-52564811D01*
X63931522Y-52710393D01*
X63880913Y-52872807D01*
X63874500Y-52943386D01*
X63874500Y-53456613D01*
X63880913Y-53527192D01*
X63880913Y-53527194D01*
X63880914Y-53527196D01*
X63893278Y-53566873D01*
X63931522Y-53689606D01*
X63957336Y-53732307D01*
X63975172Y-53799862D01*
X63953654Y-53866336D01*
X63899614Y-53910623D01*
X63830208Y-53918664D01*
X63812215Y-53914163D01*
X63808697Y-53912997D01*
X63728510Y-53886426D01*
X63647709Y-53859651D01*
X63548346Y-53849500D01*
X62951662Y-53849500D01*
X62951644Y-53849501D01*
X62852292Y-53859650D01*
X62852289Y-53859651D01*
X62691305Y-53912996D01*
X62691294Y-53913001D01*
X62546959Y-54002029D01*
X62546955Y-54002032D01*
X62427032Y-54121955D01*
X62427029Y-54121959D01*
X62338001Y-54266294D01*
X62337996Y-54266305D01*
X62284651Y-54427290D01*
X62274500Y-54526647D01*
X62274500Y-55073337D01*
X62274501Y-55073355D01*
X62284650Y-55172707D01*
X62284652Y-55172714D01*
X62288888Y-55185497D01*
X62291289Y-55255326D01*
X62255557Y-55315367D01*
X62193036Y-55346559D01*
X62171182Y-55348500D01*
X58828328Y-55348500D01*
X58798887Y-55339855D01*
X58768901Y-55333332D01*
X58763885Y-55329577D01*
X58761289Y-55328815D01*
X58740647Y-55312181D01*
X58626443Y-55197977D01*
X58592958Y-55136654D01*
X58597942Y-55066962D01*
X58611019Y-55041409D01*
X58642929Y-54993653D01*
X58697619Y-54861620D01*
X58715554Y-54771455D01*
X58725500Y-54721457D01*
X58725500Y-54640519D01*
X58745185Y-54573480D01*
X58797989Y-54527725D01*
X58867147Y-54517781D01*
X58930703Y-54546806D01*
X58937172Y-54552829D01*
X58939815Y-54555472D01*
X59085394Y-54643478D01*
X59247804Y-54694086D01*
X59318384Y-54700500D01*
X59318387Y-54700500D01*
X59981613Y-54700500D01*
X59981616Y-54700500D01*
X60052196Y-54694086D01*
X60214606Y-54643478D01*
X60360185Y-54555472D01*
X60480472Y-54435185D01*
X60568478Y-54289606D01*
X60619086Y-54127196D01*
X60625500Y-54056616D01*
X60625500Y-53937230D01*
X60645185Y-53870191D01*
X60661819Y-53849549D01*
X61832950Y-52678418D01*
X61832952Y-52678416D01*
X61888873Y-52594723D01*
X61915084Y-52555495D01*
X61944147Y-52485331D01*
X61971659Y-52418912D01*
X61998056Y-52286204D01*
X62000500Y-52273918D01*
X62000500Y-50656057D01*
X62020185Y-50589018D01*
X62059401Y-50550520D01*
X62193656Y-50467712D01*
X62249549Y-50411819D01*
X62310872Y-50378334D01*
X62337230Y-50375500D01*
X62375440Y-50375500D01*
X62398200Y-50382183D01*
G37*
%TD.AperFunction*%
%TD*%
M02*
