%TF.GenerationSoftware,KiCad,Pcbnew,9.0.4*%
%TF.CreationDate,2026-06-11T12:07:45+05:30*%
%TF.ProjectId,ZAP-010A,5a41502d-3031-4304-912e-6b696361645f,rev?*%
%TF.SameCoordinates,Original*%
%TF.FileFunction,Profile,NP*%
%FSLAX46Y46*%
G04 Gerber Fmt 4.6, Leading zero omitted, Abs format (unit mm)*
G04 Created by KiCad (PCBNEW 9.0.4) date 2026-06-11 12:07:45*
%MOMM*%
%LPD*%
G01*
G04 APERTURE LIST*
%TA.AperFunction,Profile*%
%ADD10C,0.050000*%
%TD*%
G04 APERTURE END LIST*
D10*
X113500000Y-60000000D02*
X108000000Y-60000000D01*
X106500000Y-54000000D02*
X106500000Y-61000000D01*
X40000000Y-42000000D02*
X40014214Y-95985786D01*
X43500000Y-96000000D02*
G75*
G02*
X40500000Y-96000000I-1500000J0D01*
G01*
X40500000Y-96000000D02*
G75*
G02*
X43500000Y-96000000I1500000J0D01*
G01*
X106500000Y-61000000D02*
X114500000Y-61000000D01*
X115000000Y-54000000D02*
X114500000Y-54000000D01*
X115000000Y-61000000D02*
X114500000Y-61000000D01*
X42014214Y-97985785D02*
X142985800Y-97985786D01*
X42000000Y-40000000D02*
X69900000Y-39950000D01*
X88650000Y-46750000D02*
X88650000Y-40000000D01*
X142985786Y-40014214D02*
G75*
G02*
X144985786Y-42014214I14J-1999986D01*
G01*
X144500000Y-96000000D02*
G75*
G02*
X141500000Y-96000000I-1500000J0D01*
G01*
X141500000Y-96000000D02*
G75*
G02*
X144500000Y-96000000I1500000J0D01*
G01*
X113500000Y-59500000D02*
X113500000Y-60000000D01*
X108000000Y-60000000D02*
X108000000Y-54000000D01*
X108000000Y-54000000D02*
X106500000Y-54000000D01*
X144985786Y-95985786D02*
G75*
G02*
X142985786Y-97985786I-1999986J-14D01*
G01*
X40000000Y-42000000D02*
G75*
G02*
X42000000Y-40000000I2000000J0D01*
G01*
X69900000Y-39950000D02*
X69900000Y-46750000D01*
X113500000Y-54000000D02*
X113500000Y-59500000D01*
X114500000Y-54000000D02*
X113500000Y-54000000D01*
X88650000Y-40000000D02*
X142985786Y-40014214D01*
X69900000Y-46750000D02*
X88650000Y-46750000D01*
X43500000Y-42000000D02*
G75*
G02*
X40500000Y-42000000I-1500000J0D01*
G01*
X40500000Y-42000000D02*
G75*
G02*
X43500000Y-42000000I1500000J0D01*
G01*
X115000000Y-61000000D02*
X115000000Y-54000000D01*
X144985786Y-95985786D02*
X144985785Y-42014214D01*
X42014214Y-97985786D02*
G75*
G02*
X40014214Y-95985786I-14J1999986D01*
G01*
M02*
