%TF.GenerationSoftware,KiCad,Pcbnew,9.0.4*%
%TF.CreationDate,2026-06-11T12:07:45+05:30*%
%TF.ProjectId,ZAP-010A,5a41502d-3031-4304-912e-6b696361645f,rev?*%
%TF.SameCoordinates,Original*%
%TF.FileFunction,Soldermask,Bot*%
%TF.FilePolarity,Negative*%
%FSLAX46Y46*%
G04 Gerber Fmt 4.6, Leading zero omitted, Abs format (unit mm)*
G04 Created by KiCad (PCBNEW 9.0.4) date 2026-06-11 12:07:45*
%MOMM*%
%LPD*%
G01*
G04 APERTURE LIST*
G04 Aperture macros list*
%AMRoundRect*
0 Rectangle with rounded corners*
0 $1 Rounding radius*
0 $2 $3 $4 $5 $6 $7 $8 $9 X,Y pos of 4 corners*
0 Add a 4 corners polygon primitive as box body*
4,1,4,$2,$3,$4,$5,$6,$7,$8,$9,$2,$3,0*
0 Add four circle primitives for the rounded corners*
1,1,$1+$1,$2,$3*
1,1,$1+$1,$4,$5*
1,1,$1+$1,$6,$7*
1,1,$1+$1,$8,$9*
0 Add four rect primitives between the rounded corners*
20,1,$1+$1,$2,$3,$4,$5,0*
20,1,$1+$1,$4,$5,$6,$7,0*
20,1,$1+$1,$6,$7,$8,$9,0*
20,1,$1+$1,$8,$9,$2,$3,0*%
G04 Aperture macros list end*
%ADD10C,2.500000*%
%ADD11RoundRect,0.250000X1.000000X-1.000000X1.000000X1.000000X-1.000000X1.000000X-1.000000X-1.000000X0*%
%ADD12C,1.800000*%
%ADD13C,1.300000*%
%ADD14C,1.000000*%
%ADD15RoundRect,0.250000X0.600000X0.750000X-0.600000X0.750000X-0.600000X-0.750000X0.600000X-0.750000X0*%
%ADD16O,1.700000X2.000000*%
%ADD17R,1.700000X1.700000*%
%ADD18C,1.700000*%
%ADD19C,2.000000*%
%ADD20C,0.650000*%
%ADD21O,2.100000X1.000000*%
%ADD22O,1.600000X1.000000*%
%ADD23R,1.800000X1.800000*%
%ADD24C,1.600000*%
%ADD25R,3.000000X3.000000*%
%ADD26C,3.000000*%
%ADD27C,3.000000*%
G04 APERTURE END LIST*
D10*
%TO.C,K1*%
X110600000Y-58300000D03*
X104600000Y-44100000D03*
X116600000Y-44100000D03*
D11*
X104600000Y-56300000D03*
D10*
X116600000Y-56300000D03*
%TD*%
D12*
%TO.C,RV1*%
X134150000Y-59850000D03*
X136850000Y-52350000D03*
%TD*%
D13*
%TO.C,BT1*%
X68650000Y-75650000D03*
D14*
X76150000Y-75650000D03*
%TD*%
D15*
%TO.C,PS1*%
X140700000Y-80950000D03*
D16*
X140700000Y-74950000D03*
X107100000Y-86950000D03*
X107100000Y-68950000D03*
%TD*%
D17*
%TO.C,J3*%
X54870000Y-49450000D03*
D18*
X52330000Y-49450000D03*
X49790000Y-49450000D03*
X47250000Y-49450000D03*
%TD*%
D19*
%TO.C,SW1*%
X49400000Y-95650000D03*
X49400000Y-89150000D03*
X53900000Y-95650000D03*
X53900000Y-89150000D03*
%TD*%
%TO.C,F1*%
X142300000Y-47800000D03*
X142290000Y-52880000D03*
%TD*%
D20*
%TO.C,J2*%
X47230000Y-55440000D03*
X47230000Y-61220000D03*
D21*
X47730000Y-54010000D03*
D22*
X43550000Y-54010000D03*
D21*
X47730000Y-62650000D03*
D22*
X43550000Y-62650000D03*
%TD*%
D23*
%TO.C,D1*%
X42500000Y-74000000D03*
D12*
X45040000Y-74000000D03*
%TD*%
D19*
%TO.C,SW4*%
X66500000Y-95650000D03*
X66500000Y-89150000D03*
X71000000Y-95650000D03*
X71000000Y-89150000D03*
%TD*%
D24*
%TO.C,R1*%
X121800000Y-61300000D03*
X121800000Y-53680000D03*
%TD*%
D19*
%TO.C,SW3*%
X57950000Y-95650000D03*
X57950000Y-89150000D03*
X62450000Y-95650000D03*
X62450000Y-89150000D03*
%TD*%
%TO.C,SW6*%
X83600000Y-95650000D03*
X83600000Y-89150000D03*
X88100000Y-95650000D03*
X88100000Y-89150000D03*
%TD*%
D25*
%TO.C,J1*%
X136960000Y-44350000D03*
D26*
X131880000Y-44350000D03*
X126800000Y-44350000D03*
X121720000Y-44350000D03*
%TD*%
D19*
%TO.C,C1*%
X127700000Y-60600000D03*
X127700000Y-50600000D03*
%TD*%
%TO.C,SW5*%
X75050000Y-95650000D03*
X75050000Y-89150000D03*
X79550000Y-95650000D03*
X79550000Y-89150000D03*
%TD*%
D23*
%TO.C,D6*%
X42500000Y-89250000D03*
D12*
X45040000Y-89250000D03*
%TD*%
D23*
%TO.C,D5*%
X42500000Y-81625000D03*
D12*
X45040000Y-81625000D03*
%TD*%
D27*
X116850000Y-44350000D02*
X116600000Y-44100000D01*
X121720000Y-44350000D02*
X116850000Y-44350000D01*
X120850000Y-50300000D02*
X126800000Y-44350000D01*
X110600000Y-54000000D02*
X114300000Y-50300000D01*
X114300000Y-50300000D02*
X120850000Y-50300000D01*
X110600000Y-58300000D02*
X110600000Y-54000000D01*
M02*
